<?xml version="1.0" encoding="utf-8" standalone="no"?>
<!DOCTYPE svg PUBLIC "-//W3C//DTD SVG 1.1//EN"
  "http://www.w3.org/Graphics/SVG/1.1/DTD/svg11.dtd">
<!-- Created with matplotlib (https://matplotlib.org/) -->
<svg height="504pt" version="1.1" viewBox="0 0 720 504" width="720pt" xmlns="http://www.w3.org/2000/svg" xmlns:xlink="http://www.w3.org/1999/xlink">
 <defs>
  <style type="text/css">
*{stroke-linecap:butt;stroke-linejoin:round;}
  </style>
 </defs>
 <g id="figure_1">
  <g id="patch_1">
   <path d="M 0 504 
L 720 504 
L 720 0 
L 0 0 
z
" style="fill:#ffffff;"/>
  </g>
  <g id="axes_1">
   <g id="patch_2">
    <path d="M 90 403.2 
L 648 403.2 
L 648 60.48 
L 90 60.48 
z
" style="fill:#ffffff;"/>
   </g>
   <g id="matplotlib.axis_1">
    <g id="xtick_1">
     <g id="line2d_1">
      <defs>
       <path d="M 0 0 
L 0 3.5 
" id="me66274dedb" style="stroke:#000000;stroke-width:0.8;"/>
      </defs>
      <g>
       <use style="stroke:#000000;stroke-width:0.8;" x="106.464115" xlink:href="#me66274dedb" y="403.2"/>
      </g>
     </g>
     <g id="text_1">
      <!-- 2020-02-15 -->
      <defs>
       <path d="M 50.59375 8.6875 
L 13.296875 8.6875 
C 14.203125 14.5 17.40625 18.203125 26.09375 23.328125 
L 36.09375 28.734375 
C 46 34.140625 51.09375 41.453125 51.09375 50.171875 
C 51.09375 56.078125 48.703125 61.59375 44.5 65.390625 
C 40.296875 69.1875 35.09375 71 28.40625 71 
C 19.40625 71 12.703125 67.796875 8.796875 61.796875 
C 6.296875 57.984375 5.203125 53.578125 5 46.359375 
L 13.796875 46.359375 
C 14.09375 51.171875 14.703125 54.078125 15.90625 56.375 
C 18.203125 60.6875 22.796875 63.296875 28.09375 63.296875 
C 36.09375 63.296875 42.09375 57.578125 42.09375 49.96875 
C 42.09375 44.359375 38.796875 39.546875 32.5 35.9375 
L 23.296875 30.734375 
C 8.5 22.3125 4.203125 15.609375 3.40625 0 
L 50.59375 0 
z
" id="Nimbus_Sans_L_Regular-50"/>
       <path d="M 27.5 71 
C 20.90625 71 14.90625 68.09375 11.203125 63.1875 
C 6.59375 57.015625 4.296875 47.546875 4.296875 34.484375 
C 4.296875 10.671875 12.296875 -2 27.5 -2 
C 42.5 -2 50.703125 10.671875 50.703125 33.890625 
C 50.703125 47.640625 48.5 56.8125 43.796875 63.1875 
C 40.09375 68.1875 34.203125 71 27.5 71 
z
M 27.5 63.1875 
C 37 63.1875 41.703125 53.625 41.703125 34.6875 
C 41.703125 14.65625 37.09375 5.296875 27.296875 5.296875 
C 18 5.296875 13.296875 15.0625 13.296875 34.390625 
C 13.296875 53.71875 18 63.1875 27.5 63.1875 
z
" id="Nimbus_Sans_L_Regular-48"/>
       <path d="M 28.40625 31.1875 
L 4.59375 31.1875 
L 4.59375 24 
L 28.40625 24 
z
" id="Nimbus_Sans_L_Regular-45"/>
       <path d="M 25.90625 50.5 
L 25.90625 0 
L 34.703125 0 
L 34.703125 70.890625 
L 28.90625 70.890625 
C 25.796875 60 23.796875 58.5 10.203125 56.796875 
L 10.203125 50.5 
z
" id="Nimbus_Sans_L_Regular-49"/>
       <path d="M 47.59375 71 
L 11 71 
L 5.703125 32.4375 
L 13.796875 32.4375 
C 17.90625 37.296875 21.296875 39 26.796875 39 
C 36.296875 39 42.296875 32.53125 42.296875 22.09375 
C 42.296875 11.953125 36.40625 5.796875 26.796875 5.796875 
C 19.09375 5.796875 14.40625 9.671875 12.296875 17.625 
L 3.5 17.625 
C 4.703125 11.859375 5.703125 9.078125 7.796875 6.484375 
C 11.796875 1.09375 19 -2 27 -2 
C 41.296875 -2 51.296875 8.375 51.296875 23.28125 
C 51.296875 37.203125 42 46.796875 28.40625 46.796875 
C 23.40625 46.796875 19.40625 45.5 15.296875 42.5 
L 18.09375 62.296875 
L 47.59375 62.296875 
z
" id="Nimbus_Sans_L_Regular-53"/>
      </defs>
      <g transform="translate(61.280558 441.8215)rotate(-30)scale(0.1 -0.1)">
       <use transform="scale(0.996264)" xlink:href="#Nimbus_Sans_L_Regular-50"/>
       <use transform="translate(55.391677 0)scale(0.996264)" xlink:href="#Nimbus_Sans_L_Regular-48"/>
       <use transform="translate(110.783354 0)scale(0.996264)" xlink:href="#Nimbus_Sans_L_Regular-50"/>
       <use transform="translate(166.175031 0)scale(0.996264)" xlink:href="#Nimbus_Sans_L_Regular-48"/>
       <use transform="translate(221.566708 0)scale(0.996264)" xlink:href="#Nimbus_Sans_L_Regular-45"/>
       <use transform="translate(254.741938 0)scale(0.996264)" xlink:href="#Nimbus_Sans_L_Regular-48"/>
       <use transform="translate(310.133615 0)scale(0.996264)" xlink:href="#Nimbus_Sans_L_Regular-50"/>
       <use transform="translate(365.525292 0)scale(0.996264)" xlink:href="#Nimbus_Sans_L_Regular-45"/>
       <use transform="translate(398.700521 0)scale(0.996264)" xlink:href="#Nimbus_Sans_L_Regular-49"/>
       <use transform="translate(454.092198 0)scale(0.996264)" xlink:href="#Nimbus_Sans_L_Regular-53"/>
      </g>
     </g>
    </g>
    <g id="xtick_2">
     <g id="line2d_2">
      <g>
       <use style="stroke:#000000;stroke-width:0.8;" x="168.760766" xlink:href="#me66274dedb" y="403.2"/>
      </g>
     </g>
     <g id="text_2">
      <!-- 2020-02-22 -->
      <g transform="translate(123.577209 441.8215)rotate(-30)scale(0.1 -0.1)">
       <use transform="scale(0.996264)" xlink:href="#Nimbus_Sans_L_Regular-50"/>
       <use transform="translate(55.391677 0)scale(0.996264)" xlink:href="#Nimbus_Sans_L_Regular-48"/>
       <use transform="translate(110.783354 0)scale(0.996264)" xlink:href="#Nimbus_Sans_L_Regular-50"/>
       <use transform="translate(166.175031 0)scale(0.996264)" xlink:href="#Nimbus_Sans_L_Regular-48"/>
       <use transform="translate(221.566708 0)scale(0.996264)" xlink:href="#Nimbus_Sans_L_Regular-45"/>
       <use transform="translate(254.741938 0)scale(0.996264)" xlink:href="#Nimbus_Sans_L_Regular-48"/>
       <use transform="translate(310.133615 0)scale(0.996264)" xlink:href="#Nimbus_Sans_L_Regular-50"/>
       <use transform="translate(365.525292 0)scale(0.996264)" xlink:href="#Nimbus_Sans_L_Regular-45"/>
       <use transform="translate(398.700521 0)scale(0.996264)" xlink:href="#Nimbus_Sans_L_Regular-50"/>
       <use transform="translate(454.092198 0)scale(0.996264)" xlink:href="#Nimbus_Sans_L_Regular-50"/>
      </g>
     </g>
    </g>
    <g id="xtick_3">
     <g id="line2d_3">
      <g>
       <use style="stroke:#000000;stroke-width:0.8;" x="239.956938" xlink:href="#me66274dedb" y="403.2"/>
      </g>
     </g>
     <g id="text_3">
      <!-- 2020-03-01 -->
      <defs>
       <path d="M 22.09375 32.703125 
L 23.203125 32.703125 
L 26.90625 32.796875 
C 36.59375 32.796875 41.59375 28.421875 41.59375 19.9375 
C 41.59375 11.078125 36.09375 5.796875 26.90625 5.796875 
C 17.296875 5.796875 12.59375 10.578125 12 20.84375 
L 3.203125 20.84375 
C 3.59375 15.15625 4.59375 11.46875 6.296875 8.28125 
C 9.90625 1.5 16.90625 -2 26.59375 -2 
C 41.203125 -2 50.59375 6.6875 50.59375 20.046875 
C 50.59375 29.015625 47.09375 34 38.59375 36.890625 
C 45.203125 39.46875 48.5 44.453125 48.5 51.53125 
C 48.5 63.6875 40.40625 71 26.90625 71 
C 12.59375 71 5 63.1875 4.703125 48.140625 
L 13.5 48.140625 
C 13.59375 52.4375 14 54.828125 15.09375 57.015625 
C 17.09375 60.90625 21.5 63.296875 27 63.296875 
C 34.796875 63.296875 39.5 58.703125 39.5 51.234375 
C 39.5 46.25 37.703125 43.265625 33.796875 41.671875 
C 31.40625 40.671875 28.296875 40.265625 22.09375 40.171875 
z
" id="Nimbus_Sans_L_Regular-51"/>
      </defs>
      <g transform="translate(194.773381 441.8215)rotate(-30)scale(0.1 -0.1)">
       <use transform="scale(0.996264)" xlink:href="#Nimbus_Sans_L_Regular-50"/>
       <use transform="translate(55.391677 0)scale(0.996264)" xlink:href="#Nimbus_Sans_L_Regular-48"/>
       <use transform="translate(110.783354 0)scale(0.996264)" xlink:href="#Nimbus_Sans_L_Regular-50"/>
       <use transform="translate(166.175031 0)scale(0.996264)" xlink:href="#Nimbus_Sans_L_Regular-48"/>
       <use transform="translate(221.566708 0)scale(0.996264)" xlink:href="#Nimbus_Sans_L_Regular-45"/>
       <use transform="translate(254.741938 0)scale(0.996264)" xlink:href="#Nimbus_Sans_L_Regular-48"/>
       <use transform="translate(310.133615 0)scale(0.996264)" xlink:href="#Nimbus_Sans_L_Regular-51"/>
       <use transform="translate(365.525292 0)scale(0.996264)" xlink:href="#Nimbus_Sans_L_Regular-45"/>
       <use transform="translate(398.700521 0)scale(0.996264)" xlink:href="#Nimbus_Sans_L_Regular-48"/>
       <use transform="translate(454.092198 0)scale(0.996264)" xlink:href="#Nimbus_Sans_L_Regular-49"/>
      </g>
     </g>
    </g>
    <g id="xtick_4">
     <g id="line2d_4">
      <g>
       <use style="stroke:#000000;stroke-width:0.8;" x="302.253589" xlink:href="#me66274dedb" y="403.2"/>
      </g>
     </g>
     <g id="text_4">
      <!-- 2020-03-08 -->
      <defs>
       <path d="M 39.09375 37.484375 
C 46.40625 41.890625 48.796875 45.46875 48.796875 52.140625 
C 48.796875 63.1875 40.09375 71 27.5 71 
C 15 71 6.203125 63.1875 6.203125 52.140625 
C 6.203125 45.578125 8.59375 41.984375 15.796875 37.484375 
C 7.703125 33.59375 3.703125 27.71875 3.703125 19.9375 
C 3.703125 6.984375 13.5 -2 27.5 -2 
C 41.5 -2 51.296875 6.984375 51.296875 19.84375 
C 51.296875 27.71875 47.296875 33.59375 39.09375 37.484375 
z
M 27.5 63.1875 
C 35 63.1875 39.796875 58.8125 39.796875 51.9375 
C 39.796875 45.375 34.90625 41 27.5 41 
C 20.09375 41 15.203125 45.375 15.203125 52.046875 
C 15.203125 58.8125 20.09375 63.1875 27.5 63.1875 
z
M 27.5 33.59375 
C 36.296875 33.59375 42.296875 28.015625 42.296875 19.75 
C 42.296875 11.375 36.296875 5.796875 27.296875 5.796875 
C 18.703125 5.796875 12.703125 11.46875 12.703125 19.75 
C 12.703125 28.015625 18.703125 33.59375 27.5 33.59375 
z
" id="Nimbus_Sans_L_Regular-56"/>
      </defs>
      <g transform="translate(257.070032 441.8215)rotate(-30)scale(0.1 -0.1)">
       <use transform="scale(0.996264)" xlink:href="#Nimbus_Sans_L_Regular-50"/>
       <use transform="translate(55.391677 0)scale(0.996264)" xlink:href="#Nimbus_Sans_L_Regular-48"/>
       <use transform="translate(110.783354 0)scale(0.996264)" xlink:href="#Nimbus_Sans_L_Regular-50"/>
       <use transform="translate(166.175031 0)scale(0.996264)" xlink:href="#Nimbus_Sans_L_Regular-48"/>
       <use transform="translate(221.566708 0)scale(0.996264)" xlink:href="#Nimbus_Sans_L_Regular-45"/>
       <use transform="translate(254.741938 0)scale(0.996264)" xlink:href="#Nimbus_Sans_L_Regular-48"/>
       <use transform="translate(310.133615 0)scale(0.996264)" xlink:href="#Nimbus_Sans_L_Regular-51"/>
       <use transform="translate(365.525292 0)scale(0.996264)" xlink:href="#Nimbus_Sans_L_Regular-45"/>
       <use transform="translate(398.700521 0)scale(0.996264)" xlink:href="#Nimbus_Sans_L_Regular-48"/>
       <use transform="translate(454.092198 0)scale(0.996264)" xlink:href="#Nimbus_Sans_L_Regular-56"/>
      </g>
     </g>
    </g>
    <g id="xtick_5">
     <g id="line2d_5">
      <g>
       <use style="stroke:#000000;stroke-width:0.8;" x="364.550239" xlink:href="#me66274dedb" y="403.2"/>
      </g>
     </g>
     <g id="text_5">
      <!-- 2020-03-15 -->
      <g transform="translate(319.366682 441.8215)rotate(-30)scale(0.1 -0.1)">
       <use transform="scale(0.996264)" xlink:href="#Nimbus_Sans_L_Regular-50"/>
       <use transform="translate(55.391677 0)scale(0.996264)" xlink:href="#Nimbus_Sans_L_Regular-48"/>
       <use transform="translate(110.783354 0)scale(0.996264)" xlink:href="#Nimbus_Sans_L_Regular-50"/>
       <use transform="translate(166.175031 0)scale(0.996264)" xlink:href="#Nimbus_Sans_L_Regular-48"/>
       <use transform="translate(221.566708 0)scale(0.996264)" xlink:href="#Nimbus_Sans_L_Regular-45"/>
       <use transform="translate(254.741938 0)scale(0.996264)" xlink:href="#Nimbus_Sans_L_Regular-48"/>
       <use transform="translate(310.133615 0)scale(0.996264)" xlink:href="#Nimbus_Sans_L_Regular-51"/>
       <use transform="translate(365.525292 0)scale(0.996264)" xlink:href="#Nimbus_Sans_L_Regular-45"/>
       <use transform="translate(398.700521 0)scale(0.996264)" xlink:href="#Nimbus_Sans_L_Regular-49"/>
       <use transform="translate(454.092198 0)scale(0.996264)" xlink:href="#Nimbus_Sans_L_Regular-53"/>
      </g>
     </g>
    </g>
    <g id="xtick_6">
     <g id="line2d_6">
      <g>
       <use style="stroke:#000000;stroke-width:0.8;" x="426.84689" xlink:href="#me66274dedb" y="403.2"/>
      </g>
     </g>
     <g id="text_6">
      <!-- 2020-03-22 -->
      <g transform="translate(381.663333 441.8215)rotate(-30)scale(0.1 -0.1)">
       <use transform="scale(0.996264)" xlink:href="#Nimbus_Sans_L_Regular-50"/>
       <use transform="translate(55.391677 0)scale(0.996264)" xlink:href="#Nimbus_Sans_L_Regular-48"/>
       <use transform="translate(110.783354 0)scale(0.996264)" xlink:href="#Nimbus_Sans_L_Regular-50"/>
       <use transform="translate(166.175031 0)scale(0.996264)" xlink:href="#Nimbus_Sans_L_Regular-48"/>
       <use transform="translate(221.566708 0)scale(0.996264)" xlink:href="#Nimbus_Sans_L_Regular-45"/>
       <use transform="translate(254.741938 0)scale(0.996264)" xlink:href="#Nimbus_Sans_L_Regular-48"/>
       <use transform="translate(310.133615 0)scale(0.996264)" xlink:href="#Nimbus_Sans_L_Regular-51"/>
       <use transform="translate(365.525292 0)scale(0.996264)" xlink:href="#Nimbus_Sans_L_Regular-45"/>
       <use transform="translate(398.700521 0)scale(0.996264)" xlink:href="#Nimbus_Sans_L_Regular-50"/>
       <use transform="translate(454.092198 0)scale(0.996264)" xlink:href="#Nimbus_Sans_L_Regular-50"/>
      </g>
     </g>
    </g>
    <g id="xtick_7">
     <g id="line2d_7">
      <g>
       <use style="stroke:#000000;stroke-width:0.8;" x="515.842105" xlink:href="#me66274dedb" y="403.2"/>
      </g>
     </g>
     <g id="text_7">
      <!-- 2020-04-01 -->
      <defs>
       <path d="M 32.703125 17 
L 32.703125 0 
L 41.5 0 
L 41.5 17 
L 52 17 
L 52 24.890625 
L 41.5 24.890625 
L 41.5 70.890625 
L 35 70.890625 
L 2.796875 26.296875 
L 2.796875 17 
z
M 32.703125 24.890625 
L 10.5 24.890625 
L 32.703125 55.890625 
z
" id="Nimbus_Sans_L_Regular-52"/>
      </defs>
      <g transform="translate(470.658548 441.8215)rotate(-30)scale(0.1 -0.1)">
       <use transform="scale(0.996264)" xlink:href="#Nimbus_Sans_L_Regular-50"/>
       <use transform="translate(55.391677 0)scale(0.996264)" xlink:href="#Nimbus_Sans_L_Regular-48"/>
       <use transform="translate(110.783354 0)scale(0.996264)" xlink:href="#Nimbus_Sans_L_Regular-50"/>
       <use transform="translate(166.175031 0)scale(0.996264)" xlink:href="#Nimbus_Sans_L_Regular-48"/>
       <use transform="translate(221.566708 0)scale(0.996264)" xlink:href="#Nimbus_Sans_L_Regular-45"/>
       <use transform="translate(254.741938 0)scale(0.996264)" xlink:href="#Nimbus_Sans_L_Regular-48"/>
       <use transform="translate(310.133615 0)scale(0.996264)" xlink:href="#Nimbus_Sans_L_Regular-52"/>
       <use transform="translate(365.525292 0)scale(0.996264)" xlink:href="#Nimbus_Sans_L_Regular-45"/>
       <use transform="translate(398.700521 0)scale(0.996264)" xlink:href="#Nimbus_Sans_L_Regular-48"/>
       <use transform="translate(454.092198 0)scale(0.996264)" xlink:href="#Nimbus_Sans_L_Regular-49"/>
      </g>
     </g>
    </g>
    <g id="xtick_8">
     <g id="line2d_8">
      <g>
       <use style="stroke:#000000;stroke-width:0.8;" x="578.138756" xlink:href="#me66274dedb" y="403.2"/>
      </g>
     </g>
     <g id="text_8">
      <!-- 2020-04-08 -->
      <g transform="translate(532.955199 441.8215)rotate(-30)scale(0.1 -0.1)">
       <use transform="scale(0.996264)" xlink:href="#Nimbus_Sans_L_Regular-50"/>
       <use transform="translate(55.391677 0)scale(0.996264)" xlink:href="#Nimbus_Sans_L_Regular-48"/>
       <use transform="translate(110.783354 0)scale(0.996264)" xlink:href="#Nimbus_Sans_L_Regular-50"/>
       <use transform="translate(166.175031 0)scale(0.996264)" xlink:href="#Nimbus_Sans_L_Regular-48"/>
       <use transform="translate(221.566708 0)scale(0.996264)" xlink:href="#Nimbus_Sans_L_Regular-45"/>
       <use transform="translate(254.741938 0)scale(0.996264)" xlink:href="#Nimbus_Sans_L_Regular-48"/>
       <use transform="translate(310.133615 0)scale(0.996264)" xlink:href="#Nimbus_Sans_L_Regular-52"/>
       <use transform="translate(365.525292 0)scale(0.996264)" xlink:href="#Nimbus_Sans_L_Regular-45"/>
       <use transform="translate(398.700521 0)scale(0.996264)" xlink:href="#Nimbus_Sans_L_Regular-48"/>
       <use transform="translate(454.092198 0)scale(0.996264)" xlink:href="#Nimbus_Sans_L_Regular-56"/>
      </g>
     </g>
    </g>
    <g id="xtick_9">
     <g id="line2d_9">
      <g>
       <use style="stroke:#000000;stroke-width:0.8;" x="640.435407" xlink:href="#me66274dedb" y="403.2"/>
      </g>
     </g>
     <g id="text_9">
      <!-- 2020-04-15 -->
      <g transform="translate(595.25185 441.8215)rotate(-30)scale(0.1 -0.1)">
       <use transform="scale(0.996264)" xlink:href="#Nimbus_Sans_L_Regular-50"/>
       <use transform="translate(55.391677 0)scale(0.996264)" xlink:href="#Nimbus_Sans_L_Regular-48"/>
       <use transform="translate(110.783354 0)scale(0.996264)" xlink:href="#Nimbus_Sans_L_Regular-50"/>
       <use transform="translate(166.175031 0)scale(0.996264)" xlink:href="#Nimbus_Sans_L_Regular-48"/>
       <use transform="translate(221.566708 0)scale(0.996264)" xlink:href="#Nimbus_Sans_L_Regular-45"/>
       <use transform="translate(254.741938 0)scale(0.996264)" xlink:href="#Nimbus_Sans_L_Regular-48"/>
       <use transform="translate(310.133615 0)scale(0.996264)" xlink:href="#Nimbus_Sans_L_Regular-52"/>
       <use transform="translate(365.525292 0)scale(0.996264)" xlink:href="#Nimbus_Sans_L_Regular-45"/>
       <use transform="translate(398.700521 0)scale(0.996264)" xlink:href="#Nimbus_Sans_L_Regular-49"/>
       <use transform="translate(454.092198 0)scale(0.996264)" xlink:href="#Nimbus_Sans_L_Regular-53"/>
      </g>
     </g>
    </g>
   </g>
   <g id="matplotlib.axis_2">
    <g id="ytick_1">
     <g id="line2d_10">
      <defs>
       <path d="M 0 0 
L -3.5 0 
" id="mf2b40aa1d5" style="stroke:#000000;stroke-width:0.8;"/>
      </defs>
      <g>
       <use style="stroke:#000000;stroke-width:0.8;" x="90" xlink:href="#mf2b40aa1d5" y="387.621818"/>
      </g>
     </g>
     <g id="text_10">
      <!-- $0$ -->
      <defs>
       <path d="M 42 31.84375 
C 42 37.96875 41.90625 48.421875 37.703125 56.453125 
C 34 63.484375 28.09375 66 22.90625 66 
C 18.09375 66 12 63.78125 8.203125 56.5625 
C 4.203125 49.015625 3.796875 39.671875 3.796875 31.84375 
C 3.796875 26.109375 3.90625 17.375 7 9.734375 
C 11.296875 -0.609375 19 -2 22.90625 -2 
C 27.5 -2 34.5 -0.109375 38.59375 9.4375 
C 41.59375 16.375 42 24.5 42 31.84375 
z
M 22.90625 -0.40625 
C 16.5 -0.40625 12.703125 5.125 11.296875 12.75 
C 10.203125 18.6875 10.203125 27.328125 10.203125 32.953125 
C 10.203125 40.6875 10.203125 47.109375 11.5 53.234375 
C 13.40625 61.78125 19 64.390625 22.90625 64.390625 
C 27 64.390625 32.296875 61.671875 34.203125 53.4375 
C 35.5 47.71875 35.59375 40.984375 35.59375 32.953125 
C 35.59375 26.421875 35.59375 18.375 34.40625 12.453125 
C 32.296875 1.5 26.40625 -0.40625 22.90625 -0.40625 
z
" id="CMR17-48"/>
      </defs>
      <g transform="translate(78.018665 391.170978)scale(0.1 -0.1)">
       <use transform="scale(0.996264)" xlink:href="#CMR17-48"/>
      </g>
     </g>
    </g>
    <g id="ytick_2">
     <g id="line2d_11">
      <g>
       <use style="stroke:#000000;stroke-width:0.8;" x="90" xlink:href="#mf2b40aa1d5" y="311.981217"/>
      </g>
     </g>
     <g id="text_11">
      <!-- $1000$ -->
      <defs>
       <path d="M 26.59375 63.796875 
C 26.59375 65.890625 26.5 66 25.09375 66 
C 21.203125 61.359375 15.296875 59.890625 9.703125 59.6875 
C 9.40625 59.6875 8.90625 59.6875 8.796875 59.5 
C 8.703125 59.296875 8.703125 59.09375 8.703125 57 
C 11.796875 57 17 57.59375 21 59.984375 
L 21 7.296875 
C 21 3.796875 20.796875 2.59375 12.203125 2.59375 
L 9.203125 2.59375 
L 9.203125 0 
C 14 0.09375 19 0.1875 23.796875 0.1875 
C 28.59375 0.1875 33.59375 0.09375 38.40625 0 
L 38.40625 2.59375 
L 35.40625 2.59375 
C 26.796875 2.59375 26.59375 3.6875 26.59375 7.296875 
z
" id="CMR17-49"/>
      </defs>
      <g transform="translate(63.074659 315.530377)scale(0.1 -0.1)">
       <use transform="scale(0.996264)" xlink:href="#CMR17-49"/>
       <use transform="translate(45.690477 0)scale(0.996264)" xlink:href="#CMR17-48"/>
       <use transform="translate(91.380954 0)scale(0.996264)" xlink:href="#CMR17-48"/>
       <use transform="translate(137.071431 0)scale(0.996264)" xlink:href="#CMR17-48"/>
      </g>
     </g>
    </g>
    <g id="ytick_3">
     <g id="line2d_12">
      <g>
       <use style="stroke:#000000;stroke-width:0.8;" x="90" xlink:href="#mf2b40aa1d5" y="236.340616"/>
      </g>
     </g>
     <g id="text_12">
      <!-- $2000$ -->
      <defs>
       <path d="M 41.703125 15.46875 
L 39.90625 15.46875 
C 38.90625 8.390625 38.09375 7.1875 37.703125 6.59375 
C 37.203125 5.796875 30 5.796875 28.59375 5.796875 
L 9.40625 5.796875 
C 13 9.6875 20 16.765625 28.5 24.9375 
C 34.59375 30.71875 41.703125 37.5 41.703125 47.390625 
C 41.703125 59.1875 32.296875 66 21.796875 66 
C 10.796875 66 4.09375 56.296875 4.09375 47.296875 
C 4.09375 43.390625 7 42.890625 8.203125 42.890625 
C 9.203125 42.890625 12.203125 43.484375 12.203125 46.984375 
C 12.203125 50.09375 9.59375 51 8.203125 51 
C 7.59375 51 7 50.890625 6.59375 50.6875 
C 8.5 59.1875 14.296875 63.390625 20.40625 63.390625 
C 29.09375 63.390625 34.796875 56.5 34.796875 47.390625 
C 34.796875 38.703125 29.703125 31.21875 24 24.734375 
L 4.09375 2.296875 
L 4.09375 0 
L 39.296875 0 
z
" id="CMR17-50"/>
      </defs>
      <g transform="translate(63.074659 239.889776)scale(0.1 -0.1)">
       <use transform="scale(0.996264)" xlink:href="#CMR17-50"/>
       <use transform="translate(45.690477 0)scale(0.996264)" xlink:href="#CMR17-48"/>
       <use transform="translate(91.380954 0)scale(0.996264)" xlink:href="#CMR17-48"/>
       <use transform="translate(137.071431 0)scale(0.996264)" xlink:href="#CMR17-48"/>
      </g>
     </g>
    </g>
    <g id="ytick_4">
     <g id="line2d_13">
      <g>
       <use style="stroke:#000000;stroke-width:0.8;" x="90" xlink:href="#mf2b40aa1d5" y="160.700015"/>
      </g>
     </g>
     <g id="text_13">
      <!-- $3000$ -->
      <defs>
       <path d="M 22.09375 34 
C 31 34 34.90625 26.140625 34.90625 17.09375 
C 34.90625 5.03125 28.5 0.390625 22.703125 0.390625 
C 17.40625 0.390625 8.796875 3.015625 6.09375 10.796875 
C 6.59375 10.59375 7.09375 10.59375 7.59375 10.59375 
C 10 10.59375 11.796875 12.1875 11.796875 14.796875 
C 11.796875 17.6875 9.59375 19 7.59375 19 
C 5.90625 19 3.296875 18.1875 3.296875 14.484375 
C 3.296875 5.234375 12.296875 -2 22.90625 -2 
C 34 -2 42.5 6.75 42.5 16.984375 
C 42.5 26.84375 34.5 34 25 35.09375 
C 32.59375 36.671875 39.90625 43.375 39.90625 52.390625 
C 39.90625 60.25 32 66 23 66 
C 13.90625 66 5.90625 60.34375 5.90625 52.296875 
C 5.90625 48.796875 8.5 48.1875 9.796875 48.1875 
C 11.90625 48.1875 13.703125 49.484375 13.703125 52.09375 
C 13.703125 54.6875 11.90625 56 9.796875 56 
C 9.40625 56 8.90625 56 8.5 55.796875 
C 11.40625 62.484375 19.296875 63.6875 22.796875 63.6875 
C 26.296875 63.6875 32.90625 61.96875 32.90625 52.296875 
C 32.90625 49.484375 32.5 44.546875 29.09375 40.21875 
C 26.09375 36.390625 22.703125 36.1875 19.40625 35.890625 
C 18.90625 35.890625 16.59375 35.6875 16.203125 35.6875 
C 15.5 35.59375 15.09375 35.5 15.09375 34.796875 
C 15.09375 34.09375 15.203125 34 17.203125 34 
z
" id="CMR17-51"/>
      </defs>
      <g transform="translate(63.074659 164.249175)scale(0.1 -0.1)">
       <use transform="scale(0.996264)" xlink:href="#CMR17-51"/>
       <use transform="translate(45.690477 0)scale(0.996264)" xlink:href="#CMR17-48"/>
       <use transform="translate(91.380954 0)scale(0.996264)" xlink:href="#CMR17-48"/>
       <use transform="translate(137.071431 0)scale(0.996264)" xlink:href="#CMR17-48"/>
      </g>
     </g>
    </g>
    <g id="ytick_5">
     <g id="line2d_14">
      <g>
       <use style="stroke:#000000;stroke-width:0.8;" x="90" xlink:href="#mf2b40aa1d5" y="85.059413"/>
      </g>
     </g>
     <g id="text_14">
      <!-- $4000$ -->
      <defs>
       <path d="M 33.59375 64.796875 
C 33.59375 66.890625 33.5 67 31.703125 67 
L 2 19.59375 
L 2 17 
L 27.796875 17 
L 27.796875 7.1875 
C 27.796875 3.59375 27.59375 2.59375 20.59375 2.59375 
L 18.703125 2.59375 
L 18.703125 0 
C 21.90625 0.1875 27.296875 0.1875 30.703125 0.1875 
C 34.09375 0.1875 39.5 0.1875 42.703125 0 
L 42.703125 2.59375 
L 40.796875 2.59375 
C 33.796875 2.59375 33.59375 3.59375 33.59375 7.1875 
L 33.59375 17 
L 43.796875 17 
L 43.796875 19.59375 
L 33.59375 19.59375 
z
M 28.09375 58.171875 
L 28.09375 19.59375 
L 4 19.59375 
z
" id="CMR17-52"/>
      </defs>
      <g transform="translate(63.074659 88.608573)scale(0.1 -0.1)">
       <use transform="scale(0.996264)" xlink:href="#CMR17-52"/>
       <use transform="translate(45.690477 0)scale(0.996264)" xlink:href="#CMR17-48"/>
       <use transform="translate(91.380954 0)scale(0.996264)" xlink:href="#CMR17-48"/>
       <use transform="translate(137.071431 0)scale(0.996264)" xlink:href="#CMR17-48"/>
      </g>
     </g>
    </g>
    <g id="text_15">
     <!-- Number of cases -->
     <defs>
      <path d="M 64.59375 73 
L 55.796875 73 
L 55.796875 13.3125 
L 17.703125 73 
L 7.59375 73 
L 7.59375 0 
L 16.40625 0 
L 16.40625 59.171875 
L 54.09375 0 
L 64.59375 0 
z
" id="Nimbus_Sans_L_Regular-78"/>
      <path d="M 48.203125 0.296875 
L 48.203125 52 
L 39.90625 52 
L 39.90625 22.71875 
C 39.90625 12.1875 34.296875 5.296875 25.59375 5.296875 
C 19 5.296875 14.796875 9.234375 14.796875 15.4375 
L 14.796875 52 
L 6.5 52 
L 6.5 12.1875 
C 6.5 3.59375 13 -2 23.203125 -2 
C 30.90625 -2 35.796875 0.6875 40.703125 7.5625 
L 40.703125 0.296875 
z
" id="Nimbus_Sans_L_Regular-117"/>
      <path d="M 7 52 
L 7 0 
L 15.40625 0 
L 15.40625 32.640625 
C 15.40625 40.578125 20.90625 46.6875 27.703125 46.6875 
C 33.90625 46.6875 37.40625 42.875 37.40625 36.171875 
L 37.40625 0 
L 45.796875 0 
L 45.796875 32.953125 
C 45.796875 40.578125 51.296875 46.6875 58.09375 46.6875 
C 64.203125 46.6875 67.796875 42.78125 67.796875 36.171875 
L 67.796875 0 
L 76.203125 0 
L 76.203125 39.375 
C 76.203125 48.796875 70.796875 54 61 54 
C 54 54 49.796875 51.890625 44.90625 45.984375 
C 41.796875 51.59375 37.59375 54 30.796875 54 
C 23.796875 54 19.203125 51.390625 14.703125 45.09375 
L 14.703125 52 
z
" id="Nimbus_Sans_L_Regular-109"/>
      <path d="M 5.40625 73 
L 5.40625 0.296875 
L 12.90625 0.296875 
L 12.90625 6.984375 
C 16.90625 0.890625 22.203125 -2 29.5 -2 
C 43.296875 -2 52.296875 9.28125 52.296875 26.59375 
C 52.296875 43.5 43.703125 54 29.90625 54 
C 22.703125 54 17.59375 51.296875 13.703125 45.390625 
L 13.703125 73 
z
M 28.296875 46.1875 
C 37.59375 46.1875 43.59375 38.125 43.59375 25.6875 
C 43.59375 13.859375 37.40625 5.796875 28.296875 5.796875 
C 19.5 5.796875 13.703125 13.75 13.703125 25.984375 
C 13.703125 38.234375 19.5 46.1875 28.296875 46.1875 
z
" id="Nimbus_Sans_L_Regular-98"/>
      <path d="M 51.296875 23.1875 
C 51.296875 31.21875 50.703125 36.109375 49.203125 40.078125 
C 45.796875 48.796875 37.796875 54 28 54 
C 13.40625 54 4 42.71875 4 25.296875 
C 4 8.515625 13.09375 -2 27.796875 -2 
C 39.796875 -2 48.09375 4.796875 50.203125 15.90625 
L 41.796875 15.90625 
C 39.5 9.1875 34.796875 5.6875 28.09375 5.6875 
C 22.796875 5.6875 18.296875 8.03125 15.5 12.296875 
C 13.5 15.21875 12.796875 18.140625 12.703125 23.1875 
z
M 12.90625 30 
C 13.59375 39.875 19.5 46.296875 27.90625 46.296875 
C 36.09375 46.296875 42.40625 39.359375 42.40625 30.609375 
C 42.40625 30.40625 42.40625 30.203125 42.296875 30 
z
" id="Nimbus_Sans_L_Regular-101"/>
      <path d="M 6.90625 52 
L 6.90625 0 
L 15.296875 0 
L 15.296875 26.984375 
C 15.296875 34.421875 17.203125 39.28125 21.203125 42.15625 
C 23.796875 44.046875 26.296875 44.640625 32.09375 44.734375 
L 32.09375 53.1875 
C 30.703125 53.890625 30 54 28.90625 54 
C 23.5 54 19.40625 50.796875 14.59375 42.96875 
L 14.59375 52 
z
" id="Nimbus_Sans_L_Regular-114"/>
      <path d="M 27.203125 54 
C 12.5 54 3.59375 43.5 3.59375 25.984375 
C 3.59375 8.484375 12.40625 -2 27.296875 -2 
C 42 -2 51 8.484375 51 25.59375 
C 51 43.609375 42.296875 54 27.203125 54 
z
M 27.296875 46.296875 
C 36.703125 46.296875 42.296875 38.625 42.296875 25.6875 
C 42.296875 13.453125 36.5 5.6875 27.296875 5.6875 
C 18 5.6875 12.296875 13.359375 12.296875 25.984375 
C 12.296875 38.53125 18 46.296875 27.296875 46.296875 
z
" id="Nimbus_Sans_L_Regular-111"/>
      <path d="M 25.796875 52 
L 17.09375 52 
L 17.09375 60.3125 
C 17.09375 63.859375 19.09375 65.6875 22.90625 65.6875 
C 23.59375 65.6875 23.90625 65.6875 25.796875 65.59375 
L 25.796875 72.484375 
C 23.90625 72.890625 22.796875 73 21.09375 73 
C 13.40625 73 8.796875 68.59375 8.796875 61.015625 
L 8.796875 52 
L 1.796875 52 
L 1.796875 45.1875 
L 8.796875 45.1875 
L 8.796875 0 
L 17.09375 0 
L 17.09375 45.1875 
L 25.796875 45.1875 
z
" id="Nimbus_Sans_L_Regular-102"/>
      <path d="M 47.09375 34.953125 
C 46.703125 40.015625 45.59375 43.296875 43.59375 46.1875 
C 40 51.09375 33.703125 54 26.40625 54 
C 12.296875 54 3.09375 42.8125 3.09375 25.5 
C 3.09375 8.671875 12.09375 -2 26.296875 -2 
C 38.796875 -2 46.703125 5.5 47.703125 18.234375 
L 39.296875 18.234375 
C 37.90625 9.875 33.59375 5.6875 26.5 5.6875 
C 17.296875 5.6875 11.796875 13.15625 11.796875 25.5 
C 11.796875 38.53125 17.203125 46.296875 26.296875 46.296875 
C 33.296875 46.296875 37.703125 42.203125 38.703125 34.953125 
z
" id="Nimbus_Sans_L_Regular-99"/>
      <path d="M 53.5 5.1875 
C 52.59375 5 52.203125 5 51.703125 5 
C 48.796875 5 47.203125 6.484375 47.203125 9.078125 
L 47.203125 39.71875 
C 47.203125 48.984375 40.40625 54 27.5 54 
C 19.90625 54 13.59375 51.796875 10.09375 47.890625 
C 7.703125 45.203125 6.703125 42.21875 6.5 37.03125 
L 14.90625 37.03125 
C 15.59375 43.40625 19.40625 46.296875 27.203125 46.296875 
C 34.703125 46.296875 38.90625 43.5 38.90625 38.53125 
L 38.90625 36.34375 
C 38.90625 32.859375 36.796875 31.359375 30.203125 30.5625 
C 18.40625 29.078125 16.59375 28.671875 13.40625 27.390625 
C 7.296875 24.890625 4.203125 20.21875 4.203125 13.453125 
C 4.203125 4 10.796875 -2 21.40625 -2 
C 28 -2 33.296875 0.296875 39.203125 5.6875 
C 39.796875 0.390625 42.40625 -2 47.796875 -2 
C 49.5 -2 50.796875 -1.8125 53.5 -1.109375 
z
M 38.90625 16.734375 
C 38.90625 13.953125 38.09375 12.265625 35.59375 9.96875 
C 32.203125 6.890625 28.09375 5.296875 23.203125 5.296875 
C 16.703125 5.296875 12.90625 8.375 12.90625 13.65625 
C 12.90625 19.125 16.59375 21.90625 25.5 23.203125 
C 34.296875 24.40625 36.09375 24.796875 38.90625 26.09375 
z
" id="Nimbus_Sans_L_Regular-97"/>
      <path d="M 43.796875 37.9375 
C 43.703125 48.1875 36.90625 54 24.796875 54 
C 12.59375 54 4.703125 47.6875 4.703125 38.03125 
C 4.703125 29.875 8.90625 25.984375 21.296875 23 
L 29.09375 21.109375 
C 34.90625 19.71875 37.203125 17.640625 37.203125 13.859375 
C 37.203125 8.96875 32.296875 5.6875 25 5.6875 
C 20.5 5.6875 16.703125 6.984375 14.59375 9.171875 
C 13.296875 10.671875 12.703125 12.15625 12.203125 15.84375 
L 3.40625 15.84375 
C 3.796875 3.796875 10.59375 -2 24.296875 -2 
C 37.5 -2 45.90625 4.5 45.90625 14.546875 
C 45.90625 22.3125 41.5 26.59375 31.09375 29.078125 
L 23.09375 30.96875 
C 16.296875 32.5625 13.40625 34.75 13.40625 38.421875 
C 13.40625 43.203125 17.703125 46.296875 24.5 46.296875 
C 31.203125 46.296875 34.796875 43.40625 35 37.9375 
z
" id="Nimbus_Sans_L_Regular-115"/>
     </defs>
     <g transform="translate(56.952673 269.488407)rotate(-90)scale(0.1 -0.1)">
      <use transform="scale(0.996264)" xlink:href="#Nimbus_Sans_L_Regular-78"/>
      <use transform="translate(71.929985 0)scale(0.996264)" xlink:href="#Nimbus_Sans_L_Regular-117"/>
      <use transform="translate(127.321662 0)scale(0.996264)" xlink:href="#Nimbus_Sans_L_Regular-109"/>
      <use transform="translate(210.310092 0)scale(0.996264)" xlink:href="#Nimbus_Sans_L_Regular-98"/>
      <use transform="translate(265.701769 0)scale(0.996264)" xlink:href="#Nimbus_Sans_L_Regular-101"/>
      <use transform="translate(321.093446 0)scale(0.996264)" xlink:href="#Nimbus_Sans_L_Regular-114"/>
      <use transform="translate(381.963845 0)scale(0.996264)" xlink:href="#Nimbus_Sans_L_Regular-111"/>
      <use transform="translate(437.355522 0)scale(0.996264)" xlink:href="#Nimbus_Sans_L_Regular-102"/>
      <use transform="translate(492.745861 0)scale(0.996264)" xlink:href="#Nimbus_Sans_L_Regular-99"/>
      <use transform="translate(542.559062 0)scale(0.996264)" xlink:href="#Nimbus_Sans_L_Regular-97"/>
      <use transform="translate(597.950739 0)scale(0.996264)" xlink:href="#Nimbus_Sans_L_Regular-115"/>
      <use transform="translate(647.763939 0)scale(0.996264)" xlink:href="#Nimbus_Sans_L_Regular-101"/>
      <use transform="translate(703.155616 0)scale(0.996264)" xlink:href="#Nimbus_Sans_L_Regular-115"/>
     </g>
    </g>
   </g>
   <g id="line2d_15">
    <path clip-path="url(#p70ee32d87c)" d="M 159.861244 386.109006 
L 168.760766 385.655163 
L 177.660287 384.520554 
L 186.559809 383.234663 
L 195.45933 380.965445 
L 204.358852 378.544946 
L 213.258373 377.334696 
L 222.157895 374.00651 
L 231.057416 375.746244 
L 239.956938 374.082151 
L 248.856459 368.787308 
L 257.755981 369.089871 
L 266.655502 362.130936 
L 275.555024 359.407874 
L 284.454545 346.095128 
L 293.354067 336.337491 
L 302.253589 322.041417 
L 311.15311 284.448038 
L 320.052632 261.226374 
L 328.952153 232.331664 
L 337.851675 217.354825 
L 346.751196 174.844807 
L 355.650718 174.390963 
L 364.550239 171.062777 
L 373.449761 87.328631 
L 382.349282 111.684905 
L 391.248804 101.927267 
L 400.148325 129.460446 
L 409.047847 98.52344 
L 417.947368 147.841112 
L 426.84689 191.56138 
L 435.746411 110.096452 
L 444.645933 152.909033 
L 453.545455 136.948866 
L 462.444976 146.706503 
L 471.344498 147.462909 
L 480.244019 168.642278 
L 489.143541 215.312529 
L 498.043062 154.800048 
L 506.942584 193.981879 
L 515.842105 178.248634 
L 524.741627 190.048568 
L 533.641148 191.031896 
L 542.54067 244.43416 
L 551.440191 275.446807 
L 560.339713 253.057189 
L 569.239234 263.117389 
L 578.138756 272.345542 
L 587.038278 285.809569 
L 595.937799 318.108106 
L 604.837321 333.992632 
L 613.736842 368.484746 
" style="fill:none;stroke:#008000;stroke-linecap:square;stroke-width:4;"/>
   </g>
   <g id="line2d_16">
    <path clip-path="url(#p70ee32d87c)" d="M 159.861244 386.109006 
L 168.760766 385.655163 
L 177.660287 384.520554 
L 186.559809 383.234663 
L 195.45933 380.965445 
L 204.358852 378.544946 
L 213.258373 377.334696 
L 222.157895 374.00651 
L 231.057416 375.746244 
L 239.956938 374.082151 
L 248.856459 368.787308 
L 257.755981 369.089871 
L 266.655502 362.130936 
L 275.555024 359.407874 
L 284.454545 346.095128 
L 293.354067 336.337491 
L 302.253589 322.041417 
L 311.15311 284.448038 
L 320.052632 261.226374 
L 328.952153 232.331664 
L 337.851675 217.354825 
L 346.751196 174.844807 
L 355.650718 174.390963 
L 364.550239 171.062777 
L 373.449761 87.328631 
L 382.349282 111.684905 
L 391.248804 101.927267 
L 400.148325 129.460446 
L 409.047847 98.52344 
L 417.947368 147.841112 
L 426.84689 191.56138 
L 435.746411 110.096452 
L 444.645933 152.909033 
L 453.545455 136.948866 
L 462.444976 146.706503 
L 471.344498 147.462909 
L 480.244019 168.642278 
L 489.143541 215.312529 
L 498.043062 154.800048 
L 506.942584 193.981879 
L 515.842105 178.248634 
L 524.741627 190.048568 
L 533.641148 191.031896 
L 542.54067 244.43416 
L 551.440191 275.446807 
L 560.339713 253.057189 
L 569.239234 263.117389 
L 578.138756 272.345542 
L 587.038278 285.809569 
L 595.937799 318.108106 
L 604.837321 333.992632 
L 613.736842 368.484746 
" style="fill:none;stroke:#ff0000;stroke-linecap:square;stroke-width:1.5;"/>
   </g>
   <g id="line2d_17">
    <path clip-path="url(#p70ee32d87c)" d="M 159.861244 386.109006 
L 168.760766 385.730803 
L 177.660287 384.898757 
L 186.559809 383.310304 
L 195.45933 381.041086 
L 204.358852 378.620587 
L 213.258373 377.637259 
L 222.157895 374.762916 
L 231.057416 376.124447 
L 239.956938 374.762916 
L 248.856459 369.316793 
L 257.755981 370.753964 
L 266.655502 364.324513 
L 275.555024 362.811701 
L 284.454545 349.574596 
L 293.354067 338.455427 
L 302.253589 323.554229 
L 311.15311 290.877489 
L 320.052632 270.454527 
L 328.952153 246.022613 
L 337.851675 232.634226 
L 346.751196 196.704941 
L 355.650718 193.376754 
L 364.550239 187.249866 
L 373.449761 117.660512 
L 382.349282 153.060314 
L 391.248804 150.185971 
L 400.148325 180.669133 
L 409.047847 151.547502 
L 417.947368 191.334458 
L 426.84689 225.675291 
L 435.746411 159.338484 
L 444.645933 215.161247 
L 453.545455 203.663876 
L 462.444976 224.691963 
L 471.344498 225.977853 
L 480.244019 236.189335 
L 489.143541 266.521216 
L 498.043062 222.952229 
L 506.942584 271.967339 
L 515.842105 261.226374 
L 524.741627 276.959619 
L 533.641148 283.237789 
L 542.54067 312.813264 
L 551.440191 320.377324 
L 560.339713 316.746575 
L 569.239234 341.632333 
L 578.138756 355.852766 
L 587.038278 369.921917 
L 595.937799 383.764148 
L 604.837321 387.470537 
" style="fill:none;stroke:#ffa500;stroke-linecap:square;stroke-width:1.5;"/>
   </g>
   <g id="line2d_18">
    <path clip-path="url(#p70ee32d87c)" d="M 115.363636 387.470537 
L 124.263158 387.319256 
L 133.162679 387.470537 
L 142.062201 387.394896 
L 150.961722 386.865412 
L 159.861244 387.016693 
L 168.760766 386.865412 
L 177.660287 386.335928 
L 186.559809 383.915429 
L 195.45933 381.192367 
L 204.358852 378.091102 
L 213.258373 377.485978 
L 222.157895 374.687275 
L 231.057416 375.973166 
L 239.956938 375.368041 
L 248.856459 368.862949 
L 257.755981 370.073199 
L 266.655502 362.509139 
L 275.555024 361.828373 
L 284.454545 347.910503 
L 293.354067 334.522116 
L 302.253589 319.091433 
L 311.15311 282.783945 
L 320.052632 254.948204 
L 328.952153 218.565074 
L 337.851675 204.571563 
L 346.751196 161.078218 
L 355.650718 156.464141 
L 364.550239 152.152627 
L 373.449761 76.058182 
L 382.349282 124.468167 
L 391.248804 119.85409 
L 400.148325 156.464141 
L 409.047847 120.534855 
L 417.947368 171.138418 
L 426.84689 209.563843 
L 435.746411 134.528367 
L 444.645933 197.688269 
L 453.545455 183.694757 
L 462.444976 205.630532 
L 471.344498 206.311297 
L 480.244019 215.312529 
L 489.143541 251.92258 
L 498.043062 203.436954 
L 506.942584 250.485408 
L 515.842105 237.248303 
L 524.741627 252.981548 
L 533.641148 256.9905 
L 542.54067 296.474894 
L 551.440191 305.778688 
L 560.339713 301.467173 
L 569.239234 329.832399 
L 578.138756 345.943847 
L 587.038278 363.568107 
L 595.937799 382.629539 
L 604.837321 386.184647 
L 613.736842 387.621818 
L 622.636364 387.621818 
" style="fill:none;stroke:#0000ff;stroke-linecap:square;stroke-width:1.5;"/>
   </g>
   <g id="patch_3">
    <path d="M 90 403.2 
L 90 60.48 
" style="fill:none;stroke:#000000;stroke-linecap:square;stroke-linejoin:miter;stroke-width:0.8;"/>
   </g>
   <g id="patch_4">
    <path d="M 648 403.2 
L 648 60.48 
" style="fill:none;stroke:#000000;stroke-linecap:square;stroke-linejoin:miter;stroke-width:0.8;"/>
   </g>
   <g id="patch_5">
    <path d="M 90 403.2 
L 648 403.2 
" style="fill:none;stroke:#000000;stroke-linecap:square;stroke-linejoin:miter;stroke-width:0.8;"/>
   </g>
   <g id="patch_6">
    <path d="M 90 60.48 
L 648 60.48 
" style="fill:none;stroke:#000000;stroke-linecap:square;stroke-linejoin:miter;stroke-width:0.8;"/>
   </g>
   <g id="legend_1">
    <g id="patch_7">
     <path d="M 97 125.361227 
L 287.650757 125.361227 
Q 289.650757 125.361227 289.650757 123.361227 
L 289.650757 67.48 
Q 289.650757 65.48 287.650757 65.48 
L 97 65.48 
Q 95 65.48 95 67.48 
L 95 123.361227 
Q 95 125.361227 97 125.361227 
z
" style="fill:#ffffff;opacity:0.8;stroke:#cccccc;stroke-linejoin:miter;"/>
    </g>
    <g id="line2d_19">
     <path d="M 99 73.07832 
L 119 73.07832 
" style="fill:none;stroke:#008000;stroke-linecap:square;stroke-width:4;"/>
    </g>
    <g id="line2d_20"/>
    <g id="text_16">
     <!-- Refdatum n = 91317 -->
     <defs>
      <path d="M 18.59375 31.796875 
L 42.59375 31.796875 
C 50.90625 31.796875 54.59375 27.734375 54.59375 18.609375 
L 54.5 12.03125 
C 54.5 7.46875 55.296875 3 56.59375 0 
L 67.90625 0 
L 67.90625 2.296875 
C 64.40625 4.734375 63.703125 7.359375 63.5 17.203125 
C 63.40625 29.359375 61.5 32.984375 53.59375 36.390625 
C 61.796875 40.390625 65.09375 45.421875 65.09375 53.625 
C 65.09375 66.09375 57.203125 73 42.90625 73 
L 9.296875 73 
L 9.296875 0 
L 18.59375 0 
z
M 18.59375 40 
L 18.59375 64.796875 
L 41.09375 64.796875 
C 46.296875 64.796875 49.296875 64 51.59375 62.03125 
C 54.09375 59.953125 55.40625 56.6875 55.40625 52.34375 
C 55.40625 43.84375 51 40 41.09375 40 
z
" id="Nimbus_Sans_L_Regular-82"/>
      <path d="M 49.5 73 
L 41.203125 73 
L 41.203125 45.890625 
C 37.703125 51.1875 32.09375 54 25.09375 54 
C 11.5 54 2.59375 43.109375 2.59375 26.484375 
C 2.59375 8.875 11.296875 -2 25.40625 -2 
C 32.59375 -2 37.59375 0.6875 42.09375 7.1875 
L 42.09375 0.296875 
L 49.5 0.296875 
z
M 26.5 46.1875 
C 35.5 46.1875 41.203125 38.234375 41.203125 25.796875 
C 41.203125 13.75 35.40625 5.796875 26.59375 5.796875 
C 17.40625 5.796875 11.296875 13.859375 11.296875 25.984375 
C 11.296875 38.125 17.40625 46.1875 26.5 46.1875 
z
" id="Nimbus_Sans_L_Regular-100"/>
      <path d="M 25.40625 52 
L 16.796875 52 
L 16.796875 66.390625 
L 8.5 66.390625 
L 8.5 52 
L 1.40625 52 
L 1.40625 45.1875 
L 8.5 45.1875 
L 8.5 6.28125 
C 8.5 1 12.09375 -2 18.59375 -2 
C 20.59375 -2 22.59375 -1.8125 25.40625 -1.3125 
L 25.40625 5.6875 
C 24.296875 5.390625 23 5.296875 21.40625 5.296875 
C 17.796875 5.296875 16.796875 6.28125 16.796875 9.90625 
L 16.796875 45.1875 
L 25.40625 45.1875 
z
" id="Nimbus_Sans_L_Regular-116"/>
      <path d="M 7 52 
L 7 0 
L 15.40625 0 
L 15.40625 28.671875 
C 15.40625 39.671875 21 46.6875 29.59375 46.6875 
C 36.203125 46.6875 40.40625 42.6875 40.40625 36.375 
L 40.40625 0 
L 48.703125 0 
L 48.703125 39.671875 
C 48.703125 48.390625 42.203125 54 32.09375 54 
C 24.296875 54 19.296875 50.984375 14.703125 43.6875 
L 14.703125 52 
z
" id="Nimbus_Sans_L_Regular-110"/>
      <path d="M 53.40625 35 
L 5 35 
L 5 28 
L 53.40625 28 
z
M 53.40625 18 
L 5 18 
L 5 11 
L 53.40625 11 
z
" id="Nimbus_Sans_L_Regular-61"/>
      <path d="M 5.296875 16.609375 
C 7 4.890625 14.59375 -2 25.40625 -2 
C 33.203125 -2 40.296875 1.796875 44.40625 8.109375 
C 48.90625 15.09375 50.90625 23.875 50.90625 36.734375 
C 50.90625 48.484375 49.09375 55.984375 44.90625 62.203125 
C 41 67.890625 34.796875 71 27 71 
C 13.5 71 3.796875 61.03125 3.796875 47.296875 
C 3.796875 34.265625 12.796875 25 25.59375 25 
C 32.296875 25 37.203125 27.390625 41.796875 32.890625 
C 41.703125 15.5 36.09375 5.796875 26 5.796875 
C 19.796875 5.796875 15.5 9.734375 14.09375 16.609375 
z
M 26.90625 63.296875 
C 35.09375 63.296875 41.296875 56.578125 41.296875 47.5 
C 41.296875 38.90625 35.203125 32.796875 26.59375 32.796875 
C 18.09375 32.796875 12.796875 38.609375 12.796875 48 
C 12.796875 56.875 18.796875 63.296875 26.90625 63.296875 
z
" id="Nimbus_Sans_L_Regular-57"/>
      <path d="M 52 71 
L 4.59375 71 
L 4.59375 62.296875 
L 42.90625 62.296875 
C 26 38.15625 19.09375 23.328125 13.796875 0 
L 23.203125 0 
C 27.09375 22.71875 36 42.25 52 63.59375 
z
" id="Nimbus_Sans_L_Regular-55"/>
     </defs>
     <g transform="translate(127 76.57832)scale(0.1 -0.1)">
      <use transform="scale(0.996264)" xlink:href="#Nimbus_Sans_L_Regular-82"/>
      <use transform="translate(71.929985 0)scale(0.996264)" xlink:href="#Nimbus_Sans_L_Regular-101"/>
      <use transform="translate(127.321662 0)scale(0.996264)" xlink:href="#Nimbus_Sans_L_Regular-102"/>
      <use transform="translate(155.016831 0)scale(0.996264)" xlink:href="#Nimbus_Sans_L_Regular-100"/>
      <use transform="translate(210.408508 0)scale(0.996264)" xlink:href="#Nimbus_Sans_L_Regular-97"/>
      <use transform="translate(265.800185 0)scale(0.996264)" xlink:href="#Nimbus_Sans_L_Regular-116"/>
      <use transform="translate(293.495355 0)scale(0.996264)" xlink:href="#Nimbus_Sans_L_Regular-117"/>
      <use transform="translate(348.887032 0)scale(0.996264)" xlink:href="#Nimbus_Sans_L_Regular-109"/>
      <use transform="translate(459.570632 0)scale(0.996264)" xlink:href="#Nimbus_Sans_L_Regular-110"/>
      <use transform="translate(542.657478 0)scale(0.996264)" xlink:href="#Nimbus_Sans_L_Regular-61"/>
      <use transform="translate(628.534141 0)scale(0.996264)" xlink:href="#Nimbus_Sans_L_Regular-57"/>
      <use transform="translate(683.925818 0)scale(0.996264)" xlink:href="#Nimbus_Sans_L_Regular-49"/>
      <use transform="translate(739.317495 0)scale(0.996264)" xlink:href="#Nimbus_Sans_L_Regular-51"/>
      <use transform="translate(794.709172 0)scale(0.996264)" xlink:href="#Nimbus_Sans_L_Regular-49"/>
      <use transform="translate(850.100849 0)scale(0.996264)" xlink:href="#Nimbus_Sans_L_Regular-55"/>
     </g>
    </g>
    <g id="line2d_21">
     <path d="M 99 87.298627 
L 119 87.298627 
" style="fill:none;stroke:#ff0000;stroke-linecap:square;stroke-width:1.5;"/>
    </g>
    <g id="line2d_22"/>
    <g id="text_17">
     <!-- Refdatum &lt; 13.04.2020 n = 91317 -->
     <defs>
      <path d="M 12.203125 -20.90625 
L 20.5 -20.90625 
L 20.5 12.890625 
L 18.296875 35.1875 
L 14.40625 35.1875 
L 12.203125 12.890625 
z
M 12.09375 41.59375 
L 20.5 41.59375 
L 20.5 52 
L 12.09375 52 
z
" id="Nimbus_Sans_L_Regular-161"/>
      <path d="M 19.09375 10.390625 
L 8.703125 10.390625 
L 8.703125 0 
L 19.09375 0 
z
" id="Nimbus_Sans_L_Regular-46"/>
     </defs>
     <g transform="translate(127 90.798627)scale(0.1 -0.1)">
      <use transform="scale(0.996264)" xlink:href="#Nimbus_Sans_L_Regular-82"/>
      <use transform="translate(71.929985 0)scale(0.996264)" xlink:href="#Nimbus_Sans_L_Regular-101"/>
      <use transform="translate(127.321662 0)scale(0.996264)" xlink:href="#Nimbus_Sans_L_Regular-102"/>
      <use transform="translate(155.016831 0)scale(0.996264)" xlink:href="#Nimbus_Sans_L_Regular-100"/>
      <use transform="translate(210.408508 0)scale(0.996264)" xlink:href="#Nimbus_Sans_L_Regular-97"/>
      <use transform="translate(265.800185 0)scale(0.996264)" xlink:href="#Nimbus_Sans_L_Regular-116"/>
      <use transform="translate(293.495355 0)scale(0.996264)" xlink:href="#Nimbus_Sans_L_Regular-117"/>
      <use transform="translate(348.887032 0)scale(0.996264)" xlink:href="#Nimbus_Sans_L_Regular-109"/>
      <use transform="translate(459.570632 0)scale(0.996264)" xlink:href="#Nimbus_Sans_L_Regular-161"/>
      <use transform="translate(520.441031 0)scale(0.996264)" xlink:href="#Nimbus_Sans_L_Regular-49"/>
      <use transform="translate(575.832708 0)scale(0.996264)" xlink:href="#Nimbus_Sans_L_Regular-51"/>
      <use transform="translate(631.224385 0)scale(0.996264)" xlink:href="#Nimbus_Sans_L_Regular-46"/>
      <use transform="translate(658.919555 0)scale(0.996264)" xlink:href="#Nimbus_Sans_L_Regular-48"/>
      <use transform="translate(714.311232 0)scale(0.996264)" xlink:href="#Nimbus_Sans_L_Regular-52"/>
      <use transform="translate(769.702909 0)scale(0.996264)" xlink:href="#Nimbus_Sans_L_Regular-46"/>
      <use transform="translate(797.398078 0)scale(0.996264)" xlink:href="#Nimbus_Sans_L_Regular-50"/>
      <use transform="translate(852.789755 0)scale(0.996264)" xlink:href="#Nimbus_Sans_L_Regular-48"/>
      <use transform="translate(908.181432 0)scale(0.996264)" xlink:href="#Nimbus_Sans_L_Regular-50"/>
      <use transform="translate(963.573109 0)scale(0.996264)" xlink:href="#Nimbus_Sans_L_Regular-48"/>
      <use transform="translate(1046.659956 0)scale(0.996264)" xlink:href="#Nimbus_Sans_L_Regular-110"/>
      <use transform="translate(1129.746802 0)scale(0.996264)" xlink:href="#Nimbus_Sans_L_Regular-61"/>
      <use transform="translate(1215.623465 0)scale(0.996264)" xlink:href="#Nimbus_Sans_L_Regular-57"/>
      <use transform="translate(1271.015142 0)scale(0.996264)" xlink:href="#Nimbus_Sans_L_Regular-49"/>
      <use transform="translate(1326.406819 0)scale(0.996264)" xlink:href="#Nimbus_Sans_L_Regular-51"/>
      <use transform="translate(1381.798496 0)scale(0.996264)" xlink:href="#Nimbus_Sans_L_Regular-49"/>
      <use transform="translate(1437.190172 0)scale(0.996264)" xlink:href="#Nimbus_Sans_L_Regular-55"/>
     </g>
    </g>
    <g id="line2d_23">
     <path d="M 99 101.518934 
L 119 101.518934 
" style="fill:none;stroke:#ffa500;stroke-linecap:square;stroke-width:1.5;"/>
    </g>
    <g id="line2d_24"/>
    <g id="text_18">
     <!-- Meldedatum $&gt;$ Refdatum  n = 66935 -->
     <defs>
      <path d="M 46.796875 0 
L 67.296875 61.171875 
L 67.296875 0 
L 76.09375 0 
L 76.09375 73 
L 63.203125 73 
L 42 9.40625 
L 20.40625 73 
L 7.5 73 
L 7.5 0 
L 16.296875 0 
L 16.296875 61.171875 
L 37 0 
z
" id="Nimbus_Sans_L_Regular-77"/>
      <path d="M 15.203125 73 
L 6.796875 73 
L 6.796875 0 
L 15.203125 0 
z
" id="Nimbus_Sans_L_Regular-108"/>
      <path d="M 65.90625 22.8125 
C 67.796875 23.734375 67.90625 24.328125 67.90625 25.046875 
C 67.90625 25.640625 67.703125 26.359375 65.90625 27.15625 
L 11.796875 52.296875 
C 10.5 52.890625 10.296875 53 10.09375 53 
C 8.90625 53 8.203125 51.984375 8.203125 51.1875 
C 8.203125 49.984375 9 49.578125 10.296875 48.96875 
L 61.703125 25.046875 
L 10.203125 1.015625 
C 8.203125 0.109375 8.203125 -0.609375 8.203125 -1.203125 
C 8.203125 -2 8.90625 -3 10.09375 -3 
C 10.296875 -3 10.40625 -2.90625 11.796875 -2.3125 
z
" id="CMMI12-62"/>
      <path d="M 49.796875 52.375 
C 48.09375 64.09375 40.5 71 29.703125 71 
C 21.90625 71 14.90625 67.1875 10.703125 60.859375 
C 6.296875 53.890625 4.296875 45.109375 4.296875 32.25 
C 4.296875 20.5 6.09375 13 10.296875 6.78125 
C 14.09375 1.09375 20.296875 -2 28.09375 -2 
C 41.59375 -2 51.296875 7.96875 51.296875 21.6875 
C 51.296875 34.703125 42.296875 44 29.59375 44 
C 22.59375 44 17.09375 41.296875 13.296875 36.09375 
C 13.40625 53.484375 19 63.1875 29.09375 63.1875 
C 35.296875 63.1875 39.59375 59.25 41 52.375 
z
M 28.5 36.1875 
C 37 36.1875 42.296875 30.375 42.296875 20.984375 
C 42.296875 12.203125 36.296875 5.796875 28.203125 5.796875 
C 20 5.796875 13.796875 12.5 13.796875 21.484375 
C 13.796875 30.171875 19.796875 36.1875 28.5 36.1875 
z
" id="Nimbus_Sans_L_Regular-54"/>
     </defs>
     <g transform="translate(127 105.018934)scale(0.1 -0.1)">
      <use transform="scale(0.996264)" xlink:href="#Nimbus_Sans_L_Regular-77"/>
      <use transform="translate(82.98843 0)scale(0.996264)" xlink:href="#Nimbus_Sans_L_Regular-101"/>
      <use transform="translate(138.380107 0)scale(0.996264)" xlink:href="#Nimbus_Sans_L_Regular-108"/>
      <use transform="translate(160.496892 0)scale(0.996264)" xlink:href="#Nimbus_Sans_L_Regular-100"/>
      <use transform="translate(215.888569 0)scale(0.996264)" xlink:href="#Nimbus_Sans_L_Regular-101"/>
      <use transform="translate(271.280245 0)scale(0.996264)" xlink:href="#Nimbus_Sans_L_Regular-100"/>
      <use transform="translate(326.671922 0)scale(0.996264)" xlink:href="#Nimbus_Sans_L_Regular-97"/>
      <use transform="translate(382.063599 0)scale(0.996264)" xlink:href="#Nimbus_Sans_L_Regular-116"/>
      <use transform="translate(409.758769 0)scale(0.996264)" xlink:href="#Nimbus_Sans_L_Regular-117"/>
      <use transform="translate(465.150446 0)scale(0.996264)" xlink:href="#Nimbus_Sans_L_Regular-109"/>
      <use transform="translate(575.834046 0)scale(0.996264)" xlink:href="#CMMI12-62"/>
      <use transform="translate(679.401311 0)scale(0.996264)" xlink:href="#Nimbus_Sans_L_Regular-82"/>
      <use transform="translate(751.331296 0)scale(0.996264)" xlink:href="#Nimbus_Sans_L_Regular-101"/>
      <use transform="translate(806.722973 0)scale(0.996264)" xlink:href="#Nimbus_Sans_L_Regular-102"/>
      <use transform="translate(834.418143 0)scale(0.996264)" xlink:href="#Nimbus_Sans_L_Regular-100"/>
      <use transform="translate(889.80982 0)scale(0.996264)" xlink:href="#Nimbus_Sans_L_Regular-97"/>
      <use transform="translate(945.201497 0)scale(0.996264)" xlink:href="#Nimbus_Sans_L_Regular-116"/>
      <use transform="translate(972.896666 0)scale(0.996264)" xlink:href="#Nimbus_Sans_L_Regular-117"/>
      <use transform="translate(1028.288343 0)scale(0.996264)" xlink:href="#Nimbus_Sans_L_Regular-109"/>
      <use transform="translate(1138.971943 0)scale(0.996264)" xlink:href="#Nimbus_Sans_L_Regular-110"/>
      <use transform="translate(1222.05879 0)scale(0.996264)" xlink:href="#Nimbus_Sans_L_Regular-61"/>
      <use transform="translate(1307.935452 0)scale(0.996264)" xlink:href="#Nimbus_Sans_L_Regular-54"/>
      <use transform="translate(1363.327129 0)scale(0.996264)" xlink:href="#Nimbus_Sans_L_Regular-54"/>
      <use transform="translate(1418.718806 0)scale(0.996264)" xlink:href="#Nimbus_Sans_L_Regular-57"/>
      <use transform="translate(1474.110483 0)scale(0.996264)" xlink:href="#Nimbus_Sans_L_Regular-51"/>
      <use transform="translate(1529.50216 0)scale(0.996264)" xlink:href="#Nimbus_Sans_L_Regular-53"/>
     </g>
    </g>
    <g id="line2d_25">
     <path d="M 99 115.73924 
L 119 115.73924 
" style="fill:none;stroke:#0000ff;stroke-linecap:square;stroke-width:1.5;"/>
    </g>
    <g id="line2d_26"/>
    <g id="text_19">
     <!-- situation report n = 76438 -->
     <defs>
      <path d="M 15 52.46875 
L 6.703125 52.46875 
L 6.703125 0 
L 15 0 
z
M 15 73 
L 6.59375 73 
L 6.59375 62.484375 
L 15 62.484375 
z
" id="Nimbus_Sans_L_Regular-105"/>
      <path d="M 5.40625 -22 
L 13.796875 -22 
L 13.796875 5.796875 
C 18.203125 0.390625 23.09375 -2 29.90625 -2 
C 43.40625 -2 52.296875 8.875 52.296875 25.5 
C 52.296875 43 43.703125 54 29.796875 54 
C 22.703125 54 17 50.796875 13.09375 44.59375 
L 13.09375 52.484375 
L 5.40625 52.484375 
z
M 28.40625 46.1875 
C 37.59375 46.1875 43.59375 38.125 43.59375 25.6875 
C 43.59375 13.859375 37.5 5.796875 28.40625 5.796875 
C 19.59375 5.796875 13.796875 13.75 13.796875 25.984375 
C 13.796875 38.234375 19.59375 46.1875 28.40625 46.1875 
z
" id="Nimbus_Sans_L_Regular-112"/>
     </defs>
     <g transform="translate(127 119.23924)scale(0.1 -0.1)">
      <use transform="scale(0.996264)" xlink:href="#Nimbus_Sans_L_Regular-115"/>
      <use transform="translate(49.8132 0)scale(0.996264)" xlink:href="#Nimbus_Sans_L_Regular-105"/>
      <use transform="translate(71.929985 0)scale(0.996264)" xlink:href="#Nimbus_Sans_L_Regular-116"/>
      <use transform="translate(99.625154 0)scale(0.996264)" xlink:href="#Nimbus_Sans_L_Regular-117"/>
      <use transform="translate(155.016831 0)scale(0.996264)" xlink:href="#Nimbus_Sans_L_Regular-97"/>
      <use transform="translate(210.408508 0)scale(0.996264)" xlink:href="#Nimbus_Sans_L_Regular-116"/>
      <use transform="translate(238.103678 0)scale(0.996264)" xlink:href="#Nimbus_Sans_L_Regular-105"/>
      <use transform="translate(260.220462 0)scale(0.996264)" xlink:href="#Nimbus_Sans_L_Regular-111"/>
      <use transform="translate(315.612139 0)scale(0.996264)" xlink:href="#Nimbus_Sans_L_Regular-110"/>
      <use transform="translate(398.698986 0)scale(0.996264)" xlink:href="#Nimbus_Sans_L_Regular-114"/>
      <use transform="translate(431.874216 0)scale(0.996264)" xlink:href="#Nimbus_Sans_L_Regular-101"/>
      <use transform="translate(487.265893 0)scale(0.996264)" xlink:href="#Nimbus_Sans_L_Regular-112"/>
      <use transform="translate(542.65757 0)scale(0.996264)" xlink:href="#Nimbus_Sans_L_Regular-111"/>
      <use transform="translate(598.049246 0)scale(0.996264)" xlink:href="#Nimbus_Sans_L_Regular-114"/>
      <use transform="translate(635.208575 0)scale(0.996264)" xlink:href="#Nimbus_Sans_L_Regular-116"/>
      <use transform="translate(690.598914 0)scale(0.996264)" xlink:href="#Nimbus_Sans_L_Regular-110"/>
      <use transform="translate(773.68576 0)scale(0.996264)" xlink:href="#Nimbus_Sans_L_Regular-61"/>
      <use transform="translate(859.562423 0)scale(0.996264)" xlink:href="#Nimbus_Sans_L_Regular-55"/>
      <use transform="translate(914.9541 0)scale(0.996264)" xlink:href="#Nimbus_Sans_L_Regular-54"/>
      <use transform="translate(970.345777 0)scale(0.996264)" xlink:href="#Nimbus_Sans_L_Regular-52"/>
      <use transform="translate(1025.737454 0)scale(0.996264)" xlink:href="#Nimbus_Sans_L_Regular-51"/>
      <use transform="translate(1081.129131 0)scale(0.996264)" xlink:href="#Nimbus_Sans_L_Regular-56"/>
     </g>
    </g>
   </g>
  </g>
 </g>
 <defs>
  <clipPath id="p70ee32d87c">
   <rect height="342.72" width="558" x="90" y="60.48"/>
  </clipPath>
 </defs>
</svg>
