<?xml version="1.0" encoding="utf-8" standalone="no"?>
<!DOCTYPE svg PUBLIC "-//W3C//DTD SVG 1.1//EN"
  "http://www.w3.org/Graphics/SVG/1.1/DTD/svg11.dtd">
<!-- Created with matplotlib (https://matplotlib.org/) -->
<svg height="504pt" version="1.1" viewBox="0 0 720 504" width="720pt" xmlns="http://www.w3.org/2000/svg" xmlns:xlink="http://www.w3.org/1999/xlink">
 <defs>
  <style type="text/css">
*{stroke-linecap:butt;stroke-linejoin:round;}
  </style>
 </defs>
 <g id="figure_1">
  <g id="patch_1">
   <path d="M 0 504 
L 720 504 
L 720 0 
L 0 0 
z
" style="fill:#ffffff;"/>
  </g>
  <g id="axes_1">
   <g id="patch_2">
    <path d="M 50.4 403.2 
L 705.6 403.2 
L 705.6 17.64 
L 50.4 17.64 
z
" style="fill:#ffffff;"/>
   </g>
   <g id="matplotlib.axis_1">
    <g id="xtick_1">
     <g id="line2d_1">
      <defs>
       <path d="M 0 0 
L 0 3.5 
" id="m56c9449dfb" style="stroke:#000000;stroke-width:0.8;"/>
      </defs>
      <g>
       <use style="stroke:#000000;stroke-width:0.8;" x="59.642633" xlink:href="#m56c9449dfb" y="403.2"/>
      </g>
     </g>
     <g id="text_1">
      <!-- 2020-02-01 -->
      <defs>
       <path d="M 50.59375 8.6875 
L 13.296875 8.6875 
C 14.203125 14.5 17.40625 18.203125 26.09375 23.328125 
L 36.09375 28.734375 
C 46 34.140625 51.09375 41.453125 51.09375 50.171875 
C 51.09375 56.078125 48.703125 61.59375 44.5 65.390625 
C 40.296875 69.1875 35.09375 71 28.40625 71 
C 19.40625 71 12.703125 67.796875 8.796875 61.796875 
C 6.296875 57.984375 5.203125 53.578125 5 46.359375 
L 13.796875 46.359375 
C 14.09375 51.171875 14.703125 54.078125 15.90625 56.375 
C 18.203125 60.6875 22.796875 63.296875 28.09375 63.296875 
C 36.09375 63.296875 42.09375 57.578125 42.09375 49.96875 
C 42.09375 44.359375 38.796875 39.546875 32.5 35.9375 
L 23.296875 30.734375 
C 8.5 22.3125 4.203125 15.609375 3.40625 0 
L 50.59375 0 
z
" id="Nimbus_Sans_L_Regular-50"/>
       <path d="M 27.5 71 
C 20.90625 71 14.90625 68.09375 11.203125 63.1875 
C 6.59375 57.015625 4.296875 47.546875 4.296875 34.484375 
C 4.296875 10.671875 12.296875 -2 27.5 -2 
C 42.5 -2 50.703125 10.671875 50.703125 33.890625 
C 50.703125 47.640625 48.5 56.8125 43.796875 63.1875 
C 40.09375 68.1875 34.203125 71 27.5 71 
z
M 27.5 63.1875 
C 37 63.1875 41.703125 53.625 41.703125 34.6875 
C 41.703125 14.65625 37.09375 5.296875 27.296875 5.296875 
C 18 5.296875 13.296875 15.0625 13.296875 34.390625 
C 13.296875 53.71875 18 63.1875 27.5 63.1875 
z
" id="Nimbus_Sans_L_Regular-48"/>
       <path d="M 28.40625 31.1875 
L 4.59375 31.1875 
L 4.59375 24 
L 28.40625 24 
z
" id="Nimbus_Sans_L_Regular-45"/>
       <path d="M 25.90625 50.5 
L 25.90625 0 
L 34.703125 0 
L 34.703125 70.890625 
L 28.90625 70.890625 
C 25.796875 60 23.796875 58.5 10.203125 56.796875 
L 10.203125 50.5 
z
" id="Nimbus_Sans_L_Regular-49"/>
      </defs>
      <g transform="translate(14.459076 441.8215)rotate(-30)scale(0.1 -0.1)">
       <use transform="scale(0.996264)" xlink:href="#Nimbus_Sans_L_Regular-50"/>
       <use transform="translate(55.391677 0)scale(0.996264)" xlink:href="#Nimbus_Sans_L_Regular-48"/>
       <use transform="translate(110.783354 0)scale(0.996264)" xlink:href="#Nimbus_Sans_L_Regular-50"/>
       <use transform="translate(166.175031 0)scale(0.996264)" xlink:href="#Nimbus_Sans_L_Regular-48"/>
       <use transform="translate(221.566708 0)scale(0.996264)" xlink:href="#Nimbus_Sans_L_Regular-45"/>
       <use transform="translate(254.741938 0)scale(0.996264)" xlink:href="#Nimbus_Sans_L_Regular-48"/>
       <use transform="translate(310.133615 0)scale(0.996264)" xlink:href="#Nimbus_Sans_L_Regular-50"/>
       <use transform="translate(365.525292 0)scale(0.996264)" xlink:href="#Nimbus_Sans_L_Regular-45"/>
       <use transform="translate(398.700521 0)scale(0.996264)" xlink:href="#Nimbus_Sans_L_Regular-48"/>
       <use transform="translate(454.092198 0)scale(0.996264)" xlink:href="#Nimbus_Sans_L_Regular-49"/>
      </g>
     </g>
    </g>
    <g id="xtick_2">
     <g id="line2d_2">
      <g>
       <use style="stroke:#000000;stroke-width:0.8;" x="155.492163" xlink:href="#m56c9449dfb" y="403.2"/>
      </g>
     </g>
     <g id="text_2">
      <!-- 2020-02-15 -->
      <defs>
       <path d="M 47.59375 71 
L 11 71 
L 5.703125 32.4375 
L 13.796875 32.4375 
C 17.90625 37.296875 21.296875 39 26.796875 39 
C 36.296875 39 42.296875 32.53125 42.296875 22.09375 
C 42.296875 11.953125 36.40625 5.796875 26.796875 5.796875 
C 19.09375 5.796875 14.40625 9.671875 12.296875 17.625 
L 3.5 17.625 
C 4.703125 11.859375 5.703125 9.078125 7.796875 6.484375 
C 11.796875 1.09375 19 -2 27 -2 
C 41.296875 -2 51.296875 8.375 51.296875 23.28125 
C 51.296875 37.203125 42 46.796875 28.40625 46.796875 
C 23.40625 46.796875 19.40625 45.5 15.296875 42.5 
L 18.09375 62.296875 
L 47.59375 62.296875 
z
" id="Nimbus_Sans_L_Regular-53"/>
      </defs>
      <g transform="translate(110.308606 441.8215)rotate(-30)scale(0.1 -0.1)">
       <use transform="scale(0.996264)" xlink:href="#Nimbus_Sans_L_Regular-50"/>
       <use transform="translate(55.391677 0)scale(0.996264)" xlink:href="#Nimbus_Sans_L_Regular-48"/>
       <use transform="translate(110.783354 0)scale(0.996264)" xlink:href="#Nimbus_Sans_L_Regular-50"/>
       <use transform="translate(166.175031 0)scale(0.996264)" xlink:href="#Nimbus_Sans_L_Regular-48"/>
       <use transform="translate(221.566708 0)scale(0.996264)" xlink:href="#Nimbus_Sans_L_Regular-45"/>
       <use transform="translate(254.741938 0)scale(0.996264)" xlink:href="#Nimbus_Sans_L_Regular-48"/>
       <use transform="translate(310.133615 0)scale(0.996264)" xlink:href="#Nimbus_Sans_L_Regular-50"/>
       <use transform="translate(365.525292 0)scale(0.996264)" xlink:href="#Nimbus_Sans_L_Regular-45"/>
       <use transform="translate(398.700521 0)scale(0.996264)" xlink:href="#Nimbus_Sans_L_Regular-49"/>
       <use transform="translate(454.092198 0)scale(0.996264)" xlink:href="#Nimbus_Sans_L_Regular-53"/>
      </g>
     </g>
    </g>
    <g id="xtick_3">
     <g id="line2d_3">
      <g>
       <use style="stroke:#000000;stroke-width:0.8;" x="258.188088" xlink:href="#m56c9449dfb" y="403.2"/>
      </g>
     </g>
     <g id="text_3">
      <!-- 2020-03-01 -->
      <defs>
       <path d="M 22.09375 32.703125 
L 23.203125 32.703125 
L 26.90625 32.796875 
C 36.59375 32.796875 41.59375 28.421875 41.59375 19.9375 
C 41.59375 11.078125 36.09375 5.796875 26.90625 5.796875 
C 17.296875 5.796875 12.59375 10.578125 12 20.84375 
L 3.203125 20.84375 
C 3.59375 15.15625 4.59375 11.46875 6.296875 8.28125 
C 9.90625 1.5 16.90625 -2 26.59375 -2 
C 41.203125 -2 50.59375 6.6875 50.59375 20.046875 
C 50.59375 29.015625 47.09375 34 38.59375 36.890625 
C 45.203125 39.46875 48.5 44.453125 48.5 51.53125 
C 48.5 63.6875 40.40625 71 26.90625 71 
C 12.59375 71 5 63.1875 4.703125 48.140625 
L 13.5 48.140625 
C 13.59375 52.4375 14 54.828125 15.09375 57.015625 
C 17.09375 60.90625 21.5 63.296875 27 63.296875 
C 34.796875 63.296875 39.5 58.703125 39.5 51.234375 
C 39.5 46.25 37.703125 43.265625 33.796875 41.671875 
C 31.40625 40.671875 28.296875 40.265625 22.09375 40.171875 
z
" id="Nimbus_Sans_L_Regular-51"/>
      </defs>
      <g transform="translate(213.004531 441.8215)rotate(-30)scale(0.1 -0.1)">
       <use transform="scale(0.996264)" xlink:href="#Nimbus_Sans_L_Regular-50"/>
       <use transform="translate(55.391677 0)scale(0.996264)" xlink:href="#Nimbus_Sans_L_Regular-48"/>
       <use transform="translate(110.783354 0)scale(0.996264)" xlink:href="#Nimbus_Sans_L_Regular-50"/>
       <use transform="translate(166.175031 0)scale(0.996264)" xlink:href="#Nimbus_Sans_L_Regular-48"/>
       <use transform="translate(221.566708 0)scale(0.996264)" xlink:href="#Nimbus_Sans_L_Regular-45"/>
       <use transform="translate(254.741938 0)scale(0.996264)" xlink:href="#Nimbus_Sans_L_Regular-48"/>
       <use transform="translate(310.133615 0)scale(0.996264)" xlink:href="#Nimbus_Sans_L_Regular-51"/>
       <use transform="translate(365.525292 0)scale(0.996264)" xlink:href="#Nimbus_Sans_L_Regular-45"/>
       <use transform="translate(398.700521 0)scale(0.996264)" xlink:href="#Nimbus_Sans_L_Regular-48"/>
       <use transform="translate(454.092198 0)scale(0.996264)" xlink:href="#Nimbus_Sans_L_Regular-49"/>
      </g>
     </g>
    </g>
    <g id="xtick_4">
     <g id="line2d_4">
      <g>
       <use style="stroke:#000000;stroke-width:0.8;" x="354.037618" xlink:href="#m56c9449dfb" y="403.2"/>
      </g>
     </g>
     <g id="text_4">
      <!-- 2020-03-15 -->
      <g transform="translate(308.854061 441.8215)rotate(-30)scale(0.1 -0.1)">
       <use transform="scale(0.996264)" xlink:href="#Nimbus_Sans_L_Regular-50"/>
       <use transform="translate(55.391677 0)scale(0.996264)" xlink:href="#Nimbus_Sans_L_Regular-48"/>
       <use transform="translate(110.783354 0)scale(0.996264)" xlink:href="#Nimbus_Sans_L_Regular-50"/>
       <use transform="translate(166.175031 0)scale(0.996264)" xlink:href="#Nimbus_Sans_L_Regular-48"/>
       <use transform="translate(221.566708 0)scale(0.996264)" xlink:href="#Nimbus_Sans_L_Regular-45"/>
       <use transform="translate(254.741938 0)scale(0.996264)" xlink:href="#Nimbus_Sans_L_Regular-48"/>
       <use transform="translate(310.133615 0)scale(0.996264)" xlink:href="#Nimbus_Sans_L_Regular-51"/>
       <use transform="translate(365.525292 0)scale(0.996264)" xlink:href="#Nimbus_Sans_L_Regular-45"/>
       <use transform="translate(398.700521 0)scale(0.996264)" xlink:href="#Nimbus_Sans_L_Regular-49"/>
       <use transform="translate(454.092198 0)scale(0.996264)" xlink:href="#Nimbus_Sans_L_Regular-53"/>
      </g>
     </g>
    </g>
    <g id="xtick_5">
     <g id="line2d_5">
      <g>
       <use style="stroke:#000000;stroke-width:0.8;" x="470.426332" xlink:href="#m56c9449dfb" y="403.2"/>
      </g>
     </g>
     <g id="text_5">
      <!-- 2020-04-01 -->
      <defs>
       <path d="M 32.703125 17 
L 32.703125 0 
L 41.5 0 
L 41.5 17 
L 52 17 
L 52 24.890625 
L 41.5 24.890625 
L 41.5 70.890625 
L 35 70.890625 
L 2.796875 26.296875 
L 2.796875 17 
z
M 32.703125 24.890625 
L 10.5 24.890625 
L 32.703125 55.890625 
z
" id="Nimbus_Sans_L_Regular-52"/>
      </defs>
      <g transform="translate(425.242775 441.8215)rotate(-30)scale(0.1 -0.1)">
       <use transform="scale(0.996264)" xlink:href="#Nimbus_Sans_L_Regular-50"/>
       <use transform="translate(55.391677 0)scale(0.996264)" xlink:href="#Nimbus_Sans_L_Regular-48"/>
       <use transform="translate(110.783354 0)scale(0.996264)" xlink:href="#Nimbus_Sans_L_Regular-50"/>
       <use transform="translate(166.175031 0)scale(0.996264)" xlink:href="#Nimbus_Sans_L_Regular-48"/>
       <use transform="translate(221.566708 0)scale(0.996264)" xlink:href="#Nimbus_Sans_L_Regular-45"/>
       <use transform="translate(254.741938 0)scale(0.996264)" xlink:href="#Nimbus_Sans_L_Regular-48"/>
       <use transform="translate(310.133615 0)scale(0.996264)" xlink:href="#Nimbus_Sans_L_Regular-52"/>
       <use transform="translate(365.525292 0)scale(0.996264)" xlink:href="#Nimbus_Sans_L_Regular-45"/>
       <use transform="translate(398.700521 0)scale(0.996264)" xlink:href="#Nimbus_Sans_L_Regular-48"/>
       <use transform="translate(454.092198 0)scale(0.996264)" xlink:href="#Nimbus_Sans_L_Regular-49"/>
      </g>
     </g>
    </g>
    <g id="xtick_6">
     <g id="line2d_6">
      <g>
       <use style="stroke:#000000;stroke-width:0.8;" x="566.275862" xlink:href="#m56c9449dfb" y="403.2"/>
      </g>
     </g>
     <g id="text_6">
      <!-- 2020-04-15 -->
      <g transform="translate(521.092305 441.8215)rotate(-30)scale(0.1 -0.1)">
       <use transform="scale(0.996264)" xlink:href="#Nimbus_Sans_L_Regular-50"/>
       <use transform="translate(55.391677 0)scale(0.996264)" xlink:href="#Nimbus_Sans_L_Regular-48"/>
       <use transform="translate(110.783354 0)scale(0.996264)" xlink:href="#Nimbus_Sans_L_Regular-50"/>
       <use transform="translate(166.175031 0)scale(0.996264)" xlink:href="#Nimbus_Sans_L_Regular-48"/>
       <use transform="translate(221.566708 0)scale(0.996264)" xlink:href="#Nimbus_Sans_L_Regular-45"/>
       <use transform="translate(254.741938 0)scale(0.996264)" xlink:href="#Nimbus_Sans_L_Regular-48"/>
       <use transform="translate(310.133615 0)scale(0.996264)" xlink:href="#Nimbus_Sans_L_Regular-52"/>
       <use transform="translate(365.525292 0)scale(0.996264)" xlink:href="#Nimbus_Sans_L_Regular-45"/>
       <use transform="translate(398.700521 0)scale(0.996264)" xlink:href="#Nimbus_Sans_L_Regular-49"/>
       <use transform="translate(454.092198 0)scale(0.996264)" xlink:href="#Nimbus_Sans_L_Regular-53"/>
      </g>
     </g>
    </g>
    <g id="xtick_7">
     <g id="line2d_7">
      <g>
       <use style="stroke:#000000;stroke-width:0.8;" x="675.818182" xlink:href="#m56c9449dfb" y="403.2"/>
      </g>
     </g>
     <g id="text_7">
      <!-- 2020-05-01 -->
      <g transform="translate(630.634625 441.8215)rotate(-30)scale(0.1 -0.1)">
       <use transform="scale(0.996264)" xlink:href="#Nimbus_Sans_L_Regular-50"/>
       <use transform="translate(55.391677 0)scale(0.996264)" xlink:href="#Nimbus_Sans_L_Regular-48"/>
       <use transform="translate(110.783354 0)scale(0.996264)" xlink:href="#Nimbus_Sans_L_Regular-50"/>
       <use transform="translate(166.175031 0)scale(0.996264)" xlink:href="#Nimbus_Sans_L_Regular-48"/>
       <use transform="translate(221.566708 0)scale(0.996264)" xlink:href="#Nimbus_Sans_L_Regular-45"/>
       <use transform="translate(254.741938 0)scale(0.996264)" xlink:href="#Nimbus_Sans_L_Regular-48"/>
       <use transform="translate(310.133615 0)scale(0.996264)" xlink:href="#Nimbus_Sans_L_Regular-53"/>
       <use transform="translate(365.525292 0)scale(0.996264)" xlink:href="#Nimbus_Sans_L_Regular-45"/>
       <use transform="translate(398.700521 0)scale(0.996264)" xlink:href="#Nimbus_Sans_L_Regular-48"/>
       <use transform="translate(454.092198 0)scale(0.996264)" xlink:href="#Nimbus_Sans_L_Regular-49"/>
      </g>
     </g>
    </g>
   </g>
   <g id="matplotlib.axis_2">
    <g id="ytick_1">
     <g id="line2d_8">
      <defs>
       <path d="M 0 0 
L -3.5 0 
" id="m2cce83b7e2" style="stroke:#000000;stroke-width:0.8;"/>
      </defs>
      <g>
       <use style="stroke:#000000;stroke-width:0.8;" x="50.4" xlink:href="#m2cce83b7e2" y="385.674545"/>
      </g>
     </g>
     <g id="text_8">
      <!-- $0$ -->
      <defs>
       <path d="M 42 31.84375 
C 42 37.96875 41.90625 48.421875 37.703125 56.453125 
C 34 63.484375 28.09375 66 22.90625 66 
C 18.09375 66 12 63.78125 8.203125 56.5625 
C 4.203125 49.015625 3.796875 39.671875 3.796875 31.84375 
C 3.796875 26.109375 3.90625 17.375 7 9.734375 
C 11.296875 -0.609375 19 -2 22.90625 -2 
C 27.5 -2 34.5 -0.109375 38.59375 9.4375 
C 41.59375 16.375 42 24.5 42 31.84375 
z
M 22.90625 -0.40625 
C 16.5 -0.40625 12.703125 5.125 11.296875 12.75 
C 10.203125 18.6875 10.203125 27.328125 10.203125 32.953125 
C 10.203125 40.6875 10.203125 47.109375 11.5 53.234375 
C 13.40625 61.78125 19 64.390625 22.90625 64.390625 
C 27 64.390625 32.296875 61.671875 34.203125 53.4375 
C 35.5 47.71875 35.59375 40.984375 35.59375 32.953125 
C 35.59375 26.421875 35.59375 18.375 34.40625 12.453125 
C 32.296875 1.5 26.40625 -0.40625 22.90625 -0.40625 
z
" id="CMR17-48"/>
      </defs>
      <g transform="translate(38.418665 389.223706)scale(0.1 -0.1)">
       <use transform="scale(0.996264)" xlink:href="#CMR17-48"/>
      </g>
     </g>
    </g>
    <g id="ytick_2">
     <g id="line2d_9">
      <g>
       <use style="stroke:#000000;stroke-width:0.8;" x="50.4" xlink:href="#m2cce83b7e2" y="319.986935"/>
      </g>
     </g>
     <g id="text_9">
      <!-- $1000$ -->
      <defs>
       <path d="M 26.59375 63.796875 
C 26.59375 65.890625 26.5 66 25.09375 66 
C 21.203125 61.359375 15.296875 59.890625 9.703125 59.6875 
C 9.40625 59.6875 8.90625 59.6875 8.796875 59.5 
C 8.703125 59.296875 8.703125 59.09375 8.703125 57 
C 11.796875 57 17 57.59375 21 59.984375 
L 21 7.296875 
C 21 3.796875 20.796875 2.59375 12.203125 2.59375 
L 9.203125 2.59375 
L 9.203125 0 
C 14 0.09375 19 0.1875 23.796875 0.1875 
C 28.59375 0.1875 33.59375 0.09375 38.40625 0 
L 38.40625 2.59375 
L 35.40625 2.59375 
C 26.796875 2.59375 26.59375 3.6875 26.59375 7.296875 
z
" id="CMR17-49"/>
      </defs>
      <g transform="translate(23.474659 323.536095)scale(0.1 -0.1)">
       <use transform="scale(0.996264)" xlink:href="#CMR17-49"/>
       <use transform="translate(45.690477 0)scale(0.996264)" xlink:href="#CMR17-48"/>
       <use transform="translate(91.380954 0)scale(0.996264)" xlink:href="#CMR17-48"/>
       <use transform="translate(137.071431 0)scale(0.996264)" xlink:href="#CMR17-48"/>
      </g>
     </g>
    </g>
    <g id="ytick_3">
     <g id="line2d_10">
      <g>
       <use style="stroke:#000000;stroke-width:0.8;" x="50.4" xlink:href="#m2cce83b7e2" y="254.299324"/>
      </g>
     </g>
     <g id="text_10">
      <!-- $2000$ -->
      <defs>
       <path d="M 41.703125 15.46875 
L 39.90625 15.46875 
C 38.90625 8.390625 38.09375 7.1875 37.703125 6.59375 
C 37.203125 5.796875 30 5.796875 28.59375 5.796875 
L 9.40625 5.796875 
C 13 9.6875 20 16.765625 28.5 24.9375 
C 34.59375 30.71875 41.703125 37.5 41.703125 47.390625 
C 41.703125 59.1875 32.296875 66 21.796875 66 
C 10.796875 66 4.09375 56.296875 4.09375 47.296875 
C 4.09375 43.390625 7 42.890625 8.203125 42.890625 
C 9.203125 42.890625 12.203125 43.484375 12.203125 46.984375 
C 12.203125 50.09375 9.59375 51 8.203125 51 
C 7.59375 51 7 50.890625 6.59375 50.6875 
C 8.5 59.1875 14.296875 63.390625 20.40625 63.390625 
C 29.09375 63.390625 34.796875 56.5 34.796875 47.390625 
C 34.796875 38.703125 29.703125 31.21875 24 24.734375 
L 4.09375 2.296875 
L 4.09375 0 
L 39.296875 0 
z
" id="CMR17-50"/>
      </defs>
      <g transform="translate(23.474659 257.848484)scale(0.1 -0.1)">
       <use transform="scale(0.996264)" xlink:href="#CMR17-50"/>
       <use transform="translate(45.690477 0)scale(0.996264)" xlink:href="#CMR17-48"/>
       <use transform="translate(91.380954 0)scale(0.996264)" xlink:href="#CMR17-48"/>
       <use transform="translate(137.071431 0)scale(0.996264)" xlink:href="#CMR17-48"/>
      </g>
     </g>
    </g>
    <g id="ytick_4">
     <g id="line2d_11">
      <g>
       <use style="stroke:#000000;stroke-width:0.8;" x="50.4" xlink:href="#m2cce83b7e2" y="188.611713"/>
      </g>
     </g>
     <g id="text_11">
      <!-- $3000$ -->
      <defs>
       <path d="M 22.09375 34 
C 31 34 34.90625 26.140625 34.90625 17.09375 
C 34.90625 5.03125 28.5 0.390625 22.703125 0.390625 
C 17.40625 0.390625 8.796875 3.015625 6.09375 10.796875 
C 6.59375 10.59375 7.09375 10.59375 7.59375 10.59375 
C 10 10.59375 11.796875 12.1875 11.796875 14.796875 
C 11.796875 17.6875 9.59375 19 7.59375 19 
C 5.90625 19 3.296875 18.1875 3.296875 14.484375 
C 3.296875 5.234375 12.296875 -2 22.90625 -2 
C 34 -2 42.5 6.75 42.5 16.984375 
C 42.5 26.84375 34.5 34 25 35.09375 
C 32.59375 36.671875 39.90625 43.375 39.90625 52.390625 
C 39.90625 60.25 32 66 23 66 
C 13.90625 66 5.90625 60.34375 5.90625 52.296875 
C 5.90625 48.796875 8.5 48.1875 9.796875 48.1875 
C 11.90625 48.1875 13.703125 49.484375 13.703125 52.09375 
C 13.703125 54.6875 11.90625 56 9.796875 56 
C 9.40625 56 8.90625 56 8.5 55.796875 
C 11.40625 62.484375 19.296875 63.6875 22.796875 63.6875 
C 26.296875 63.6875 32.90625 61.96875 32.90625 52.296875 
C 32.90625 49.484375 32.5 44.546875 29.09375 40.21875 
C 26.09375 36.390625 22.703125 36.1875 19.40625 35.890625 
C 18.90625 35.890625 16.59375 35.6875 16.203125 35.6875 
C 15.5 35.59375 15.09375 35.5 15.09375 34.796875 
C 15.09375 34.09375 15.203125 34 17.203125 34 
z
" id="CMR17-51"/>
      </defs>
      <g transform="translate(23.474659 192.160873)scale(0.1 -0.1)">
       <use transform="scale(0.996264)" xlink:href="#CMR17-51"/>
       <use transform="translate(45.690477 0)scale(0.996264)" xlink:href="#CMR17-48"/>
       <use transform="translate(91.380954 0)scale(0.996264)" xlink:href="#CMR17-48"/>
       <use transform="translate(137.071431 0)scale(0.996264)" xlink:href="#CMR17-48"/>
      </g>
     </g>
    </g>
    <g id="ytick_5">
     <g id="line2d_12">
      <g>
       <use style="stroke:#000000;stroke-width:0.8;" x="50.4" xlink:href="#m2cce83b7e2" y="122.924102"/>
      </g>
     </g>
     <g id="text_12">
      <!-- $4000$ -->
      <defs>
       <path d="M 33.59375 64.796875 
C 33.59375 66.890625 33.5 67 31.703125 67 
L 2 19.59375 
L 2 17 
L 27.796875 17 
L 27.796875 7.1875 
C 27.796875 3.59375 27.59375 2.59375 20.59375 2.59375 
L 18.703125 2.59375 
L 18.703125 0 
C 21.90625 0.1875 27.296875 0.1875 30.703125 0.1875 
C 34.09375 0.1875 39.5 0.1875 42.703125 0 
L 42.703125 2.59375 
L 40.796875 2.59375 
C 33.796875 2.59375 33.59375 3.59375 33.59375 7.1875 
L 33.59375 17 
L 43.796875 17 
L 43.796875 19.59375 
L 33.59375 19.59375 
z
M 28.09375 58.171875 
L 28.09375 19.59375 
L 4 19.59375 
z
" id="CMR17-52"/>
      </defs>
      <g transform="translate(23.474659 126.473263)scale(0.1 -0.1)">
       <use transform="scale(0.996264)" xlink:href="#CMR17-52"/>
       <use transform="translate(45.690477 0)scale(0.996264)" xlink:href="#CMR17-48"/>
       <use transform="translate(91.380954 0)scale(0.996264)" xlink:href="#CMR17-48"/>
       <use transform="translate(137.071431 0)scale(0.996264)" xlink:href="#CMR17-48"/>
      </g>
     </g>
    </g>
    <g id="ytick_6">
     <g id="line2d_13">
      <g>
       <use style="stroke:#000000;stroke-width:0.8;" x="50.4" xlink:href="#m2cce83b7e2" y="57.236492"/>
      </g>
     </g>
     <g id="text_13">
      <!-- $5000$ -->
      <defs>
       <path d="M 11.40625 58.59375 
C 12.40625 58.1875 16.5 56.890625 20.703125 56.890625 
C 30 56.890625 35.09375 61.890625 38 64.6875 
C 38 65.484375 38 66 37.40625 66 
C 37.296875 66 37.09375 66 36.296875 65.59375 
C 32.796875 64.09375 28.703125 63 23.703125 63 
C 20.703125 63 16.203125 63.359375 11.296875 65.484375 
C 10.203125 66 10 66 9.90625 66 
C 9.40625 66 9.296875 65.890625 9.296875 63.90625 
L 9.296875 34.859375 
C 9.296875 33.015625 9.296875 32.5 10.296875 32.5 
C 10.796875 32.5 11 32.703125 11.5 33.421875 
C 14.703125 38.046875 19.09375 40 24.09375 40 
C 27.59375 40 35.09375 37.734375 35.09375 20.203125 
C 35.09375 16.984375 35.09375 11.1875 32.09375 6.59375 
C 29.59375 2.484375 25.703125 0.390625 21.40625 0.390625 
C 14.796875 0.390625 8.09375 4.984375 6.296875 12.6875 
C 6.703125 12.59375 7.5 12.390625 7.90625 12.390625 
C 9.203125 12.390625 11.703125 13.09375 11.703125 16.1875 
C 11.703125 18.890625 9.796875 20 7.90625 20 
C 5.59375 20 4.09375 18.59375 4.09375 15.796875 
C 4.09375 7.09375 11 -2 21.59375 -2 
C 31.90625 -2 41.703125 6.890625 41.703125 19.796875 
C 41.703125 32.09375 33.90625 41.59375 24.203125 41.59375 
C 19.09375 41.59375 14.796875 39.6875 11.40625 36 
z
" id="CMR17-53"/>
      </defs>
      <g transform="translate(23.474659 60.785652)scale(0.1 -0.1)">
       <use transform="scale(0.996264)" xlink:href="#CMR17-53"/>
       <use transform="translate(45.690477 0)scale(0.996264)" xlink:href="#CMR17-48"/>
       <use transform="translate(91.380954 0)scale(0.996264)" xlink:href="#CMR17-48"/>
       <use transform="translate(137.071431 0)scale(0.996264)" xlink:href="#CMR17-48"/>
      </g>
     </g>
    </g>
    <g id="text_14">
     <!-- Number of cases -->
     <defs>
      <path d="M 64.59375 73 
L 55.796875 73 
L 55.796875 13.3125 
L 17.703125 73 
L 7.59375 73 
L 7.59375 0 
L 16.40625 0 
L 16.40625 59.171875 
L 54.09375 0 
L 64.59375 0 
z
" id="Nimbus_Sans_L_Regular-78"/>
      <path d="M 48.203125 0.296875 
L 48.203125 52 
L 39.90625 52 
L 39.90625 22.71875 
C 39.90625 12.1875 34.296875 5.296875 25.59375 5.296875 
C 19 5.296875 14.796875 9.234375 14.796875 15.4375 
L 14.796875 52 
L 6.5 52 
L 6.5 12.1875 
C 6.5 3.59375 13 -2 23.203125 -2 
C 30.90625 -2 35.796875 0.6875 40.703125 7.5625 
L 40.703125 0.296875 
z
" id="Nimbus_Sans_L_Regular-117"/>
      <path d="M 7 52 
L 7 0 
L 15.40625 0 
L 15.40625 32.640625 
C 15.40625 40.578125 20.90625 46.6875 27.703125 46.6875 
C 33.90625 46.6875 37.40625 42.875 37.40625 36.171875 
L 37.40625 0 
L 45.796875 0 
L 45.796875 32.953125 
C 45.796875 40.578125 51.296875 46.6875 58.09375 46.6875 
C 64.203125 46.6875 67.796875 42.78125 67.796875 36.171875 
L 67.796875 0 
L 76.203125 0 
L 76.203125 39.375 
C 76.203125 48.796875 70.796875 54 61 54 
C 54 54 49.796875 51.890625 44.90625 45.984375 
C 41.796875 51.59375 37.59375 54 30.796875 54 
C 23.796875 54 19.203125 51.390625 14.703125 45.09375 
L 14.703125 52 
z
" id="Nimbus_Sans_L_Regular-109"/>
      <path d="M 5.40625 73 
L 5.40625 0.296875 
L 12.90625 0.296875 
L 12.90625 6.984375 
C 16.90625 0.890625 22.203125 -2 29.5 -2 
C 43.296875 -2 52.296875 9.28125 52.296875 26.59375 
C 52.296875 43.5 43.703125 54 29.90625 54 
C 22.703125 54 17.59375 51.296875 13.703125 45.390625 
L 13.703125 73 
z
M 28.296875 46.1875 
C 37.59375 46.1875 43.59375 38.125 43.59375 25.6875 
C 43.59375 13.859375 37.40625 5.796875 28.296875 5.796875 
C 19.5 5.796875 13.703125 13.75 13.703125 25.984375 
C 13.703125 38.234375 19.5 46.1875 28.296875 46.1875 
z
" id="Nimbus_Sans_L_Regular-98"/>
      <path d="M 51.296875 23.1875 
C 51.296875 31.21875 50.703125 36.109375 49.203125 40.078125 
C 45.796875 48.796875 37.796875 54 28 54 
C 13.40625 54 4 42.71875 4 25.296875 
C 4 8.515625 13.09375 -2 27.796875 -2 
C 39.796875 -2 48.09375 4.796875 50.203125 15.90625 
L 41.796875 15.90625 
C 39.5 9.1875 34.796875 5.6875 28.09375 5.6875 
C 22.796875 5.6875 18.296875 8.03125 15.5 12.296875 
C 13.5 15.21875 12.796875 18.140625 12.703125 23.1875 
z
M 12.90625 30 
C 13.59375 39.875 19.5 46.296875 27.90625 46.296875 
C 36.09375 46.296875 42.40625 39.359375 42.40625 30.609375 
C 42.40625 30.40625 42.40625 30.203125 42.296875 30 
z
" id="Nimbus_Sans_L_Regular-101"/>
      <path d="M 6.90625 52 
L 6.90625 0 
L 15.296875 0 
L 15.296875 26.984375 
C 15.296875 34.421875 17.203125 39.28125 21.203125 42.15625 
C 23.796875 44.046875 26.296875 44.640625 32.09375 44.734375 
L 32.09375 53.1875 
C 30.703125 53.890625 30 54 28.90625 54 
C 23.5 54 19.40625 50.796875 14.59375 42.96875 
L 14.59375 52 
z
" id="Nimbus_Sans_L_Regular-114"/>
      <path d="M 27.203125 54 
C 12.5 54 3.59375 43.5 3.59375 25.984375 
C 3.59375 8.484375 12.40625 -2 27.296875 -2 
C 42 -2 51 8.484375 51 25.59375 
C 51 43.609375 42.296875 54 27.203125 54 
z
M 27.296875 46.296875 
C 36.703125 46.296875 42.296875 38.625 42.296875 25.6875 
C 42.296875 13.453125 36.5 5.6875 27.296875 5.6875 
C 18 5.6875 12.296875 13.359375 12.296875 25.984375 
C 12.296875 38.53125 18 46.296875 27.296875 46.296875 
z
" id="Nimbus_Sans_L_Regular-111"/>
      <path d="M 25.796875 52 
L 17.09375 52 
L 17.09375 60.3125 
C 17.09375 63.859375 19.09375 65.6875 22.90625 65.6875 
C 23.59375 65.6875 23.90625 65.6875 25.796875 65.59375 
L 25.796875 72.484375 
C 23.90625 72.890625 22.796875 73 21.09375 73 
C 13.40625 73 8.796875 68.59375 8.796875 61.015625 
L 8.796875 52 
L 1.796875 52 
L 1.796875 45.1875 
L 8.796875 45.1875 
L 8.796875 0 
L 17.09375 0 
L 17.09375 45.1875 
L 25.796875 45.1875 
z
" id="Nimbus_Sans_L_Regular-102"/>
      <path d="M 47.09375 34.953125 
C 46.703125 40.015625 45.59375 43.296875 43.59375 46.1875 
C 40 51.09375 33.703125 54 26.40625 54 
C 12.296875 54 3.09375 42.8125 3.09375 25.5 
C 3.09375 8.671875 12.09375 -2 26.296875 -2 
C 38.796875 -2 46.703125 5.5 47.703125 18.234375 
L 39.296875 18.234375 
C 37.90625 9.875 33.59375 5.6875 26.5 5.6875 
C 17.296875 5.6875 11.796875 13.15625 11.796875 25.5 
C 11.796875 38.53125 17.203125 46.296875 26.296875 46.296875 
C 33.296875 46.296875 37.703125 42.203125 38.703125 34.953125 
z
" id="Nimbus_Sans_L_Regular-99"/>
      <path d="M 53.5 5.1875 
C 52.59375 5 52.203125 5 51.703125 5 
C 48.796875 5 47.203125 6.484375 47.203125 9.078125 
L 47.203125 39.71875 
C 47.203125 48.984375 40.40625 54 27.5 54 
C 19.90625 54 13.59375 51.796875 10.09375 47.890625 
C 7.703125 45.203125 6.703125 42.21875 6.5 37.03125 
L 14.90625 37.03125 
C 15.59375 43.40625 19.40625 46.296875 27.203125 46.296875 
C 34.703125 46.296875 38.90625 43.5 38.90625 38.53125 
L 38.90625 36.34375 
C 38.90625 32.859375 36.796875 31.359375 30.203125 30.5625 
C 18.40625 29.078125 16.59375 28.671875 13.40625 27.390625 
C 7.296875 24.890625 4.203125 20.21875 4.203125 13.453125 
C 4.203125 4 10.796875 -2 21.40625 -2 
C 28 -2 33.296875 0.296875 39.203125 5.6875 
C 39.796875 0.390625 42.40625 -2 47.796875 -2 
C 49.5 -2 50.796875 -1.8125 53.5 -1.109375 
z
M 38.90625 16.734375 
C 38.90625 13.953125 38.09375 12.265625 35.59375 9.96875 
C 32.203125 6.890625 28.09375 5.296875 23.203125 5.296875 
C 16.703125 5.296875 12.90625 8.375 12.90625 13.65625 
C 12.90625 19.125 16.59375 21.90625 25.5 23.203125 
C 34.296875 24.40625 36.09375 24.796875 38.90625 26.09375 
z
" id="Nimbus_Sans_L_Regular-97"/>
      <path d="M 43.796875 37.9375 
C 43.703125 48.1875 36.90625 54 24.796875 54 
C 12.59375 54 4.703125 47.6875 4.703125 38.03125 
C 4.703125 29.875 8.90625 25.984375 21.296875 23 
L 29.09375 21.109375 
C 34.90625 19.71875 37.203125 17.640625 37.203125 13.859375 
C 37.203125 8.96875 32.296875 5.6875 25 5.6875 
C 20.5 5.6875 16.703125 6.984375 14.59375 9.171875 
C 13.296875 10.671875 12.703125 12.15625 12.203125 15.84375 
L 3.40625 15.84375 
C 3.796875 3.796875 10.59375 -2 24.296875 -2 
C 37.5 -2 45.90625 4.5 45.90625 14.546875 
C 45.90625 22.3125 41.5 26.59375 31.09375 29.078125 
L 23.09375 30.96875 
C 16.296875 32.5625 13.40625 34.75 13.40625 38.421875 
C 13.40625 43.203125 17.703125 46.296875 24.5 46.296875 
C 31.203125 46.296875 34.796875 43.40625 35 37.9375 
z
" id="Nimbus_Sans_L_Regular-115"/>
     </defs>
     <g transform="translate(17.352673 248.068407)rotate(-90)scale(0.1 -0.1)">
      <use transform="scale(0.996264)" xlink:href="#Nimbus_Sans_L_Regular-78"/>
      <use transform="translate(71.929985 0)scale(0.996264)" xlink:href="#Nimbus_Sans_L_Regular-117"/>
      <use transform="translate(127.321662 0)scale(0.996264)" xlink:href="#Nimbus_Sans_L_Regular-109"/>
      <use transform="translate(210.310092 0)scale(0.996264)" xlink:href="#Nimbus_Sans_L_Regular-98"/>
      <use transform="translate(265.701769 0)scale(0.996264)" xlink:href="#Nimbus_Sans_L_Regular-101"/>
      <use transform="translate(321.093446 0)scale(0.996264)" xlink:href="#Nimbus_Sans_L_Regular-114"/>
      <use transform="translate(381.963845 0)scale(0.996264)" xlink:href="#Nimbus_Sans_L_Regular-111"/>
      <use transform="translate(437.355522 0)scale(0.996264)" xlink:href="#Nimbus_Sans_L_Regular-102"/>
      <use transform="translate(492.745861 0)scale(0.996264)" xlink:href="#Nimbus_Sans_L_Regular-99"/>
      <use transform="translate(542.559062 0)scale(0.996264)" xlink:href="#Nimbus_Sans_L_Regular-97"/>
      <use transform="translate(597.950739 0)scale(0.996264)" xlink:href="#Nimbus_Sans_L_Regular-115"/>
      <use transform="translate(647.763939 0)scale(0.996264)" xlink:href="#Nimbus_Sans_L_Regular-101"/>
      <use transform="translate(703.155616 0)scale(0.996264)" xlink:href="#Nimbus_Sans_L_Regular-115"/>
     </g>
    </g>
   </g>
   <g id="line2d_14">
    <path clip-path="url(#p4d3d147dd0)" d="M 80.181818 385.608858 
L 203.416928 385.608858 
L 210.263323 385.608858 
L 217.109718 385.54317 
L 230.802508 385.608858 
L 244.495298 385.54317 
L 265.034483 385.608858 
L 271.880878 385.608858 
L 285.573668 385.54317 
L 292.420063 385.54317 
L 306.112853 385.608858 
L 312.959248 385.477483 
L 319.805643 385.083357 
L 326.652038 374.047838 
L 333.498433 368.530079 
L 340.344828 351.385613 
L 347.191223 349.480672 
L 354.037618 352.699365 
L 360.884013 313.549549 
L 367.730408 274.596796 
L 374.576803 242.475554 
L 381.423197 219.419203 
L 388.269592 211.668065 
L 395.115987 236.235231 
L 401.962382 276.304674 
L 408.808777 209.04056 
L 415.655172 161.679793 
L 422.501567 119.245596 
L 429.347962 101.444254 
L 436.194357 94.547055 
L 443.040752 141.579384 
L 449.887147 225.331088 
L 456.733542 173.897688 
L 463.579937 91.985238 
L 470.426332 79.307529 
L 477.272727 69.454387 
L 484.119122 81.015407 
L 490.965517 164.964173 
L 497.811912 253.051259 
L 504.658307 194.19516 
L 511.504702 121.873101 
L 518.351097 117.274968 
L 525.197492 135.667499 
L 532.043887 212.784754 
L 538.890282 239.716674 
L 545.736677 290.361822 
L 552.583072 302.119905 
L 559.429467 249.569816 
L 566.275862 210.748438 
L 573.122257 202.340424 
L 579.968652 229.92922 
L 586.815047 273.020293 
L 593.661442 315.191739 
L 600.507837 297.784522 
L 607.354232 269.210412 
L 614.200627 260.473959 
L 621.047022 278.800803 
L 627.893417 287.471567 
L 634.739812 319.461434 
L 641.586207 349.349297 
L 648.432602 325.570382 
L 655.278997 308.754353 
L 662.125392 318.016306 
L 668.971787 342.12366 
" style="fill:none;stroke:#ff0000;stroke-linecap:square;stroke-width:1.5;"/>
   </g>
   <g id="line2d_15">
    <path clip-path="url(#p4d3d147dd0)" d="M 223.956113 381.996039 
L 230.802508 378.777346 
L 237.648903 376.47828 
L 244.495298 375.558653 
L 251.341693 374.179214 
L 258.188088 372.33996 
L 265.034483 369.581081 
L 271.880878 366.362388 
L 278.727273 362.683882 
L 285.573668 358.085749 
L 292.420063 348.42967 
L 299.266458 335.554898 
L 306.112853 316.702554 
L 312.959248 290.558885 
L 319.805643 257.912143 
L 326.652038 217.908388 
L 333.498433 178.495821 
L 340.344828 137.178314 
L 347.191223 106.830638 
L 354.037618 83.445848 
L 360.884013 54.017799 
L 367.730408 42.522467 
L 374.576803 35.165455 
L 381.423197 59.995371 
L 388.269592 63.214064 
L 395.115987 84.365475 
L 401.962382 104.071758 
L 408.808777 110.509144 
L 415.655172 118.785783 
L 422.501567 112.348397 
L 429.347962 138.097941 
L 436.194357 147.754019 
L 443.040752 163.781796 
L 449.887147 184.01358 
L 456.733542 191.830406 
L 463.579937 207.004244 
L 470.426332 215.280883 
L 477.272727 242.344179 
L 484.119122 269.473162 
L 490.965517 306.192536 
" style="fill:none;stroke:#ffa500;stroke-linecap:square;stroke-width:1.5;"/>
   </g>
   <g id="line2d_16">
    <path clip-path="url(#p4d3d147dd0)" d="M 162.338558 385.214732 
L 169.184953 384.951982 
L 176.031348 385.149045 
L 182.877743 385.017669 
L 189.724138 383.441167 
L 196.570533 384.229418 
L 203.416928 383.966668 
L 210.263323 382.652915 
L 217.109718 381.470538 
L 223.956113 378.908722 
L 230.802508 376.018467 
L 237.648903 375.492966 
L 244.495298 372.865461 
L 251.341693 374.310589 
L 258.188088 372.996837 
L 265.034483 368.070266 
L 271.880878 369.05558 
L 278.727273 362.880945 
L 285.573668 361.89563 
L 292.420063 348.16692 
L 299.266458 336.868651 
L 306.112853 321.037936 
L 312.959248 287.471567 
L 319.805643 260.211209 
L 326.652038 229.469407 
L 333.498433 212.587691 
L 340.344828 174.68594 
L 347.191223 173.043749 
L 354.037618 164.964173 
L 360.884013 90.934236 
L 367.730408 140.725445 
L 374.576803 131.857618 
L 381.423197 167.591678 
L 388.269592 130.346803 
L 395.115987 176.985006 
L 401.962382 213.967131 
L 408.808777 139.346005 
L 415.655172 203.128675 
L 422.501567 187.100898 
L 429.347962 209.960187 
L 436.194357 205.559117 
L 443.040752 215.149508 
L 449.887147 248.518814 
L 456.733542 193.406909 
L 463.579937 243.395181 
L 470.426332 218.828014 
L 477.272727 236.235231 
L 484.119122 231.702786 
L 490.965517 265.203467 
L 497.811912 277.684113 
L 504.658307 246.745249 
L 511.504702 267.568221 
L 518.351097 278.012551 
L 525.197492 281.822433 
L 532.043887 300.412027 
L 538.890282 312.104421 
L 545.736677 312.170109 
L 552.583072 315.585865 
L 559.429467 312.892673 
L 566.275862 317.819244 
L 573.122257 326.621383 
L 579.968652 329.248888 
L 586.815047 336.408837 
L 593.661442 343.962913 
L 600.507837 334.109771 
L 607.354232 346.656105 
L 614.200627 350.07186 
L 621.047022 352.042489 
L 627.893417 360.25344 
L 634.739812 367.282014 
L 641.586207 369.712456 
L 648.432602 369.909519 
L 655.278997 378.645971 
L 662.125392 382.52154 
L 668.971787 384.557856 
L 675.818182 385.674545 
" style="fill:none;stroke:#0000ff;stroke-linecap:square;stroke-width:2;"/>
   </g>
   <g id="line2d_17">
    <path clip-path="url(#p4d3d147dd0)" d="M 223.956113 381.996039 
L 230.802508 381.536226 
L 237.648903 379.23716 
L 244.495298 377.397907 
L 251.341693 376.47828 
L 258.188088 375.558653 
L 265.034483 371.880147 
L 271.880878 369.121268 
L 278.727273 363.603508 
L 285.573668 359.925002 
L 292.420063 349.80911 
L 299.266458 337.853965 
L 306.112853 319.001621 
L 312.959248 293.18639 
L 319.805643 260.99946 
L 326.652038 220.995705 
L 333.498433 185.590083 
L 340.344828 147.885395 
L 347.191223 117.931844 
L 354.037618 93.101927 
L 360.884013 61.374811 
L 367.730408 48.959853 
L 374.576803 38.384147 
L 381.423197 65.053317 
L 388.269592 64.593504 
L 395.115987 81.146782 
L 401.962382 97.70006 
L 408.808777 103.217819 
L 415.655172 105.516886 
L 422.501567 96.32062 
L 429.347962 114.253338 
L 436.194357 118.391657 
L 443.040752 124.36923 
L 449.887147 134.485122 
L 456.733542 125.288856 
L 463.579937 121.150537 
L 470.426332 105.976699 
L 477.272727 100.918753 
L 484.119122 105.976699 
L 490.965517 137.703815 
" style="fill:none;stroke:#008000;stroke-dasharray:1.85,0.8;stroke-dashoffset:0;stroke-width:0.5;"/>
   </g>
   <g id="patch_3">
    <path d="M 50.4 403.2 
L 50.4 17.64 
" style="fill:none;stroke:#000000;stroke-linecap:square;stroke-linejoin:miter;stroke-width:0.8;"/>
   </g>
   <g id="patch_4">
    <path d="M 705.6 403.2 
L 705.6 17.64 
" style="fill:none;stroke:#000000;stroke-linecap:square;stroke-linejoin:miter;stroke-width:0.8;"/>
   </g>
   <g id="patch_5">
    <path d="M 50.4 403.2 
L 705.6 403.2 
" style="fill:none;stroke:#000000;stroke-linecap:square;stroke-linejoin:miter;stroke-width:0.8;"/>
   </g>
   <g id="patch_6">
    <path d="M 50.4 17.64 
L 705.6 17.64 
" style="fill:none;stroke:#000000;stroke-linecap:square;stroke-linejoin:miter;stroke-width:0.8;"/>
   </g>
   <g id="legend_1">
    <g id="patch_7">
     <path d="M 57.4 83.074328 
L 293.91987 83.074328 
Q 295.91987 83.074328 295.91987 81.074328 
L 295.91987 24.64 
Q 295.91987 22.64 293.91987 22.64 
L 57.4 22.64 
Q 55.4 22.64 55.4 24.64 
L 55.4 81.074328 
Q 55.4 83.074328 57.4 83.074328 
z
" style="fill:#ffffff;opacity:0.8;stroke:#cccccc;stroke-linejoin:miter;"/>
    </g>
    <g id="line2d_18">
     <path d="M 59.4 30.23832 
L 79.4 30.23832 
" style="fill:none;stroke:#ff0000;stroke-linecap:square;stroke-width:1.5;"/>
    </g>
    <g id="line2d_19"/>
    <g id="text_15">
     <!-- Meldedatum n = 116954 -->
     <defs>
      <path d="M 46.796875 0 
L 67.296875 61.171875 
L 67.296875 0 
L 76.09375 0 
L 76.09375 73 
L 63.203125 73 
L 42 9.40625 
L 20.40625 73 
L 7.5 73 
L 7.5 0 
L 16.296875 0 
L 16.296875 61.171875 
L 37 0 
z
" id="Nimbus_Sans_L_Regular-77"/>
      <path d="M 15.203125 73 
L 6.796875 73 
L 6.796875 0 
L 15.203125 0 
z
" id="Nimbus_Sans_L_Regular-108"/>
      <path d="M 49.5 73 
L 41.203125 73 
L 41.203125 45.890625 
C 37.703125 51.1875 32.09375 54 25.09375 54 
C 11.5 54 2.59375 43.109375 2.59375 26.484375 
C 2.59375 8.875 11.296875 -2 25.40625 -2 
C 32.59375 -2 37.59375 0.6875 42.09375 7.1875 
L 42.09375 0.296875 
L 49.5 0.296875 
z
M 26.5 46.1875 
C 35.5 46.1875 41.203125 38.234375 41.203125 25.796875 
C 41.203125 13.75 35.40625 5.796875 26.59375 5.796875 
C 17.40625 5.796875 11.296875 13.859375 11.296875 25.984375 
C 11.296875 38.125 17.40625 46.1875 26.5 46.1875 
z
" id="Nimbus_Sans_L_Regular-100"/>
      <path d="M 25.40625 52 
L 16.796875 52 
L 16.796875 66.390625 
L 8.5 66.390625 
L 8.5 52 
L 1.40625 52 
L 1.40625 45.1875 
L 8.5 45.1875 
L 8.5 6.28125 
C 8.5 1 12.09375 -2 18.59375 -2 
C 20.59375 -2 22.59375 -1.8125 25.40625 -1.3125 
L 25.40625 5.6875 
C 24.296875 5.390625 23 5.296875 21.40625 5.296875 
C 17.796875 5.296875 16.796875 6.28125 16.796875 9.90625 
L 16.796875 45.1875 
L 25.40625 45.1875 
z
" id="Nimbus_Sans_L_Regular-116"/>
      <path d="M 7 52 
L 7 0 
L 15.40625 0 
L 15.40625 28.671875 
C 15.40625 39.671875 21 46.6875 29.59375 46.6875 
C 36.203125 46.6875 40.40625 42.6875 40.40625 36.375 
L 40.40625 0 
L 48.703125 0 
L 48.703125 39.671875 
C 48.703125 48.390625 42.203125 54 32.09375 54 
C 24.296875 54 19.296875 50.984375 14.703125 43.6875 
L 14.703125 52 
z
" id="Nimbus_Sans_L_Regular-110"/>
      <path d="M 53.40625 35 
L 5 35 
L 5 28 
L 53.40625 28 
z
M 53.40625 18 
L 5 18 
L 5 11 
L 53.40625 11 
z
" id="Nimbus_Sans_L_Regular-61"/>
      <path d="M 49.796875 52.375 
C 48.09375 64.09375 40.5 71 29.703125 71 
C 21.90625 71 14.90625 67.1875 10.703125 60.859375 
C 6.296875 53.890625 4.296875 45.109375 4.296875 32.25 
C 4.296875 20.5 6.09375 13 10.296875 6.78125 
C 14.09375 1.09375 20.296875 -2 28.09375 -2 
C 41.59375 -2 51.296875 7.96875 51.296875 21.6875 
C 51.296875 34.703125 42.296875 44 29.59375 44 
C 22.59375 44 17.09375 41.296875 13.296875 36.09375 
C 13.40625 53.484375 19 63.1875 29.09375 63.1875 
C 35.296875 63.1875 39.59375 59.25 41 52.375 
z
M 28.5 36.1875 
C 37 36.1875 42.296875 30.375 42.296875 20.984375 
C 42.296875 12.203125 36.296875 5.796875 28.203125 5.796875 
C 20 5.796875 13.796875 12.5 13.796875 21.484375 
C 13.796875 30.171875 19.796875 36.1875 28.5 36.1875 
z
" id="Nimbus_Sans_L_Regular-54"/>
      <path d="M 5.296875 16.609375 
C 7 4.890625 14.59375 -2 25.40625 -2 
C 33.203125 -2 40.296875 1.796875 44.40625 8.109375 
C 48.90625 15.09375 50.90625 23.875 50.90625 36.734375 
C 50.90625 48.484375 49.09375 55.984375 44.90625 62.203125 
C 41 67.890625 34.796875 71 27 71 
C 13.5 71 3.796875 61.03125 3.796875 47.296875 
C 3.796875 34.265625 12.796875 25 25.59375 25 
C 32.296875 25 37.203125 27.390625 41.796875 32.890625 
C 41.703125 15.5 36.09375 5.796875 26 5.796875 
C 19.796875 5.796875 15.5 9.734375 14.09375 16.609375 
z
M 26.90625 63.296875 
C 35.09375 63.296875 41.296875 56.578125 41.296875 47.5 
C 41.296875 38.90625 35.203125 32.796875 26.59375 32.796875 
C 18.09375 32.796875 12.796875 38.609375 12.796875 48 
C 12.796875 56.875 18.796875 63.296875 26.90625 63.296875 
z
" id="Nimbus_Sans_L_Regular-57"/>
     </defs>
     <g transform="translate(87.4 33.73832)scale(0.1 -0.1)">
      <use transform="scale(0.996264)" xlink:href="#Nimbus_Sans_L_Regular-77"/>
      <use transform="translate(82.98843 0)scale(0.996264)" xlink:href="#Nimbus_Sans_L_Regular-101"/>
      <use transform="translate(138.380107 0)scale(0.996264)" xlink:href="#Nimbus_Sans_L_Regular-108"/>
      <use transform="translate(160.496892 0)scale(0.996264)" xlink:href="#Nimbus_Sans_L_Regular-100"/>
      <use transform="translate(215.888569 0)scale(0.996264)" xlink:href="#Nimbus_Sans_L_Regular-101"/>
      <use transform="translate(271.280245 0)scale(0.996264)" xlink:href="#Nimbus_Sans_L_Regular-100"/>
      <use transform="translate(326.671922 0)scale(0.996264)" xlink:href="#Nimbus_Sans_L_Regular-97"/>
      <use transform="translate(382.063599 0)scale(0.996264)" xlink:href="#Nimbus_Sans_L_Regular-116"/>
      <use transform="translate(409.758769 0)scale(0.996264)" xlink:href="#Nimbus_Sans_L_Regular-117"/>
      <use transform="translate(465.150446 0)scale(0.996264)" xlink:href="#Nimbus_Sans_L_Regular-109"/>
      <use transform="translate(575.834046 0)scale(0.996264)" xlink:href="#Nimbus_Sans_L_Regular-110"/>
      <use transform="translate(658.920892 0)scale(0.996264)" xlink:href="#Nimbus_Sans_L_Regular-61"/>
      <use transform="translate(744.797555 0)scale(0.996264)" xlink:href="#Nimbus_Sans_L_Regular-49"/>
      <use transform="translate(800.189232 0)scale(0.996264)" xlink:href="#Nimbus_Sans_L_Regular-49"/>
      <use transform="translate(855.580909 0)scale(0.996264)" xlink:href="#Nimbus_Sans_L_Regular-54"/>
      <use transform="translate(910.972586 0)scale(0.996264)" xlink:href="#Nimbus_Sans_L_Regular-57"/>
      <use transform="translate(966.364263 0)scale(0.996264)" xlink:href="#Nimbus_Sans_L_Regular-53"/>
      <use transform="translate(1021.75594 0)scale(0.996264)" xlink:href="#Nimbus_Sans_L_Regular-52"/>
     </g>
    </g>
    <g id="line2d_20">
     <path d="M 59.4 44.642994 
L 79.4 44.642994 
" style="fill:none;stroke:#ffa500;stroke-linecap:square;stroke-width:1.5;"/>
    </g>
    <g id="line2d_21"/>
    <g id="text_16">
     <!-- Imputated (RKI estimation) n = 100280 -->
     <defs>
      <path d="M 19.40625 73 
L 10 73 
L 10 0 
L 19.40625 0 
z
" id="Nimbus_Sans_L_Regular-73"/>
      <path d="M 5.40625 -22 
L 13.796875 -22 
L 13.796875 5.796875 
C 18.203125 0.390625 23.09375 -2 29.90625 -2 
C 43.40625 -2 52.296875 8.875 52.296875 25.5 
C 52.296875 43 43.703125 54 29.796875 54 
C 22.703125 54 17 50.796875 13.09375 44.59375 
L 13.09375 52.484375 
L 5.40625 52.484375 
z
M 28.40625 46.1875 
C 37.59375 46.1875 43.59375 38.125 43.59375 25.6875 
C 43.59375 13.859375 37.5 5.796875 28.40625 5.796875 
C 19.59375 5.796875 13.796875 13.75 13.796875 25.984375 
C 13.796875 38.234375 19.59375 46.1875 28.40625 46.1875 
z
" id="Nimbus_Sans_L_Regular-112"/>
      <path d="M 23.59375 73 
C 13.59375 59.890625 7.296875 41.6875 7.296875 25.984375 
C 7.296875 10.1875 13.59375 -8.015625 23.59375 -21.109375 
L 29.09375 -21.109375 
C 20.296875 -6.8125 15.40625 9.984375 15.40625 25.984375 
C 15.40625 41.890625 20.296875 58.796875 29.09375 73 
z
" id="Nimbus_Sans_L_Regular-40"/>
      <path d="M 18.59375 31.796875 
L 42.59375 31.796875 
C 50.90625 31.796875 54.59375 27.734375 54.59375 18.609375 
L 54.5 12.03125 
C 54.5 7.46875 55.296875 3 56.59375 0 
L 67.90625 0 
L 67.90625 2.296875 
C 64.40625 4.734375 63.703125 7.359375 63.5 17.203125 
C 63.40625 29.359375 61.5 32.984375 53.59375 36.390625 
C 61.796875 40.390625 65.09375 45.421875 65.09375 53.625 
C 65.09375 66.09375 57.203125 73 42.90625 73 
L 9.296875 73 
L 9.296875 0 
L 18.59375 0 
z
M 18.59375 40 
L 18.59375 64.796875 
L 41.09375 64.796875 
C 46.296875 64.796875 49.296875 64 51.59375 62.03125 
C 54.09375 59.953125 55.40625 56.6875 55.40625 52.34375 
C 55.40625 43.84375 51 40 41.09375 40 
z
" id="Nimbus_Sans_L_Regular-82"/>
      <path d="M 17.203125 25.53125 
L 29.09375 37.4375 
L 54.796875 0 
L 65.796875 0 
L 35.796875 43.25 
L 65.5 73 
L 53.5 73 
L 17.203125 36.046875 
L 17.203125 73 
L 7.90625 73 
L 7.90625 0 
L 17.203125 0 
z
" id="Nimbus_Sans_L_Regular-75"/>
      <path d="M 15 52.46875 
L 6.703125 52.46875 
L 6.703125 0 
L 15 0 
z
M 15 73 
L 6.59375 73 
L 6.59375 62.484375 
L 15 62.484375 
z
" id="Nimbus_Sans_L_Regular-105"/>
      <path d="M 9.296875 -21.109375 
C 19.296875 -8.015625 25.59375 10.1875 25.59375 25.890625 
C 25.59375 41.6875 19.296875 59.890625 9.296875 73 
L 3.796875 73 
C 12.59375 58.6875 17.5 41.890625 17.5 25.890625 
C 17.5 9.984375 12.59375 -6.90625 3.796875 -21.109375 
z
" id="Nimbus_Sans_L_Regular-41"/>
      <path d="M 39.09375 37.484375 
C 46.40625 41.890625 48.796875 45.46875 48.796875 52.140625 
C 48.796875 63.1875 40.09375 71 27.5 71 
C 15 71 6.203125 63.1875 6.203125 52.140625 
C 6.203125 45.578125 8.59375 41.984375 15.796875 37.484375 
C 7.703125 33.59375 3.703125 27.71875 3.703125 19.9375 
C 3.703125 6.984375 13.5 -2 27.5 -2 
C 41.5 -2 51.296875 6.984375 51.296875 19.84375 
C 51.296875 27.71875 47.296875 33.59375 39.09375 37.484375 
z
M 27.5 63.1875 
C 35 63.1875 39.796875 58.8125 39.796875 51.9375 
C 39.796875 45.375 34.90625 41 27.5 41 
C 20.09375 41 15.203125 45.375 15.203125 52.046875 
C 15.203125 58.8125 20.09375 63.1875 27.5 63.1875 
z
M 27.5 33.59375 
C 36.296875 33.59375 42.296875 28.015625 42.296875 19.75 
C 42.296875 11.375 36.296875 5.796875 27.296875 5.796875 
C 18.703125 5.796875 12.703125 11.46875 12.703125 19.75 
C 12.703125 28.015625 18.703125 33.59375 27.5 33.59375 
z
" id="Nimbus_Sans_L_Regular-56"/>
     </defs>
     <g transform="translate(87.4 48.142994)scale(0.1 -0.1)">
      <use transform="scale(0.996264)" xlink:href="#Nimbus_Sans_L_Regular-73"/>
      <use transform="translate(27.69517 0)scale(0.996264)" xlink:href="#Nimbus_Sans_L_Regular-109"/>
      <use transform="translate(110.6836 0)scale(0.996264)" xlink:href="#Nimbus_Sans_L_Regular-112"/>
      <use transform="translate(166.075277 0)scale(0.996264)" xlink:href="#Nimbus_Sans_L_Regular-117"/>
      <use transform="translate(221.466954 0)scale(0.996264)" xlink:href="#Nimbus_Sans_L_Regular-116"/>
      <use transform="translate(249.162123 0)scale(0.996264)" xlink:href="#Nimbus_Sans_L_Regular-97"/>
      <use transform="translate(304.5538 0)scale(0.996264)" xlink:href="#Nimbus_Sans_L_Regular-116"/>
      <use transform="translate(332.24897 0)scale(0.996264)" xlink:href="#Nimbus_Sans_L_Regular-101"/>
      <use transform="translate(387.640647 0)scale(0.996264)" xlink:href="#Nimbus_Sans_L_Regular-100"/>
      <use transform="translate(470.727493 0)scale(0.996264)" xlink:href="#Nimbus_Sans_L_Regular-40"/>
      <use transform="translate(503.902723 0)scale(0.996264)" xlink:href="#Nimbus_Sans_L_Regular-82"/>
      <use transform="translate(575.832708 0)scale(0.996264)" xlink:href="#Nimbus_Sans_L_Regular-75"/>
      <use transform="translate(642.282739 0)scale(0.996264)" xlink:href="#Nimbus_Sans_L_Regular-73"/>
      <use transform="translate(697.673078 0)scale(0.996264)" xlink:href="#Nimbus_Sans_L_Regular-101"/>
      <use transform="translate(753.064755 0)scale(0.996264)" xlink:href="#Nimbus_Sans_L_Regular-115"/>
      <use transform="translate(802.877956 0)scale(0.996264)" xlink:href="#Nimbus_Sans_L_Regular-116"/>
      <use transform="translate(830.573125 0)scale(0.996264)" xlink:href="#Nimbus_Sans_L_Regular-105"/>
      <use transform="translate(852.68991 0)scale(0.996264)" xlink:href="#Nimbus_Sans_L_Regular-109"/>
      <use transform="translate(935.67834 0)scale(0.996264)" xlink:href="#Nimbus_Sans_L_Regular-97"/>
      <use transform="translate(991.070017 0)scale(0.996264)" xlink:href="#Nimbus_Sans_L_Regular-116"/>
      <use transform="translate(1018.765187 0)scale(0.996264)" xlink:href="#Nimbus_Sans_L_Regular-105"/>
      <use transform="translate(1040.881971 0)scale(0.996264)" xlink:href="#Nimbus_Sans_L_Regular-111"/>
      <use transform="translate(1096.273648 0)scale(0.996264)" xlink:href="#Nimbus_Sans_L_Regular-110"/>
      <use transform="translate(1151.665325 0)scale(0.996264)" xlink:href="#Nimbus_Sans_L_Regular-41"/>
      <use transform="translate(1212.535724 0)scale(0.996264)" xlink:href="#Nimbus_Sans_L_Regular-110"/>
      <use transform="translate(1295.622571 0)scale(0.996264)" xlink:href="#Nimbus_Sans_L_Regular-61"/>
      <use transform="translate(1381.499233 0)scale(0.996264)" xlink:href="#Nimbus_Sans_L_Regular-49"/>
      <use transform="translate(1436.89091 0)scale(0.996264)" xlink:href="#Nimbus_Sans_L_Regular-48"/>
      <use transform="translate(1492.282587 0)scale(0.996264)" xlink:href="#Nimbus_Sans_L_Regular-48"/>
      <use transform="translate(1547.674264 0)scale(0.996264)" xlink:href="#Nimbus_Sans_L_Regular-50"/>
      <use transform="translate(1603.065941 0)scale(0.996264)" xlink:href="#Nimbus_Sans_L_Regular-56"/>
      <use transform="translate(1658.457618 0)scale(0.996264)" xlink:href="#Nimbus_Sans_L_Regular-48"/>
     </g>
    </g>
    <g id="line2d_22">
     <path d="M 59.4 59.047668 
L 79.4 59.047668 
" style="fill:none;stroke:#0000ff;stroke-linecap:square;stroke-width:2;"/>
    </g>
    <g id="line2d_23"/>
    <g id="text_17">
     <!-- EpiCurve 01.05.20 situation report n = 104186 -->
     <defs>
      <path d="M 18.296875 33 
L 58 33 
L 58 41.1875 
L 18.296875 41.1875 
L 18.296875 64.796875 
L 59.5 64.796875 
L 59.5 73 
L 9 73 
L 9 0 
L 61.296875 0 
L 61.296875 8.1875 
L 18.296875 8.1875 
z
" id="Nimbus_Sans_L_Regular-69"/>
      <path d="M 66.203125 50.296875 
C 63.296875 66.1875 54.09375 74 38.09375 74 
C 28.296875 74 20.40625 70.890625 15 64.90625 
C 8.40625 57.75 4.796875 47.421875 4.796875 35.6875 
C 4.796875 23.78125 8.5 13.546875 15.40625 6.484375 
C 21 0.6875 28.203125 -2 37.703125 -2 
C 55.5 -2 65.5 7.578125 67.703125 26.75 
L 58.09375 26.75 
C 57.296875 21.78125 56.296875 18.40625 54.796875 15.53125 
C 51.796875 9.5625 45.59375 6.1875 37.796875 6.1875 
C 23.296875 6.1875 14.09375 17.71875 14.09375 35.796875 
C 14.09375 54.375 22.90625 65.796875 37 65.796875 
C 42.90625 65.796875 48.40625 64 51.40625 61.21875 
C 54.09375 58.734375 55.59375 55.65625 56.703125 50.296875 
z
" id="Nimbus_Sans_L_Regular-67"/>
      <path d="M 28.5 0 
L 48.59375 52 
L 39.203125 52 
L 24.40625 9.828125 
L 10.40625 52 
L 1 52 
L 19.40625 0 
z
" id="Nimbus_Sans_L_Regular-118"/>
      <path d="M 19.09375 10.390625 
L 8.703125 10.390625 
L 8.703125 0 
L 19.09375 0 
z
" id="Nimbus_Sans_L_Regular-46"/>
     </defs>
     <g transform="translate(87.4 62.547668)scale(0.1 -0.1)">
      <use transform="scale(0.996264)" xlink:href="#Nimbus_Sans_L_Regular-69"/>
      <use transform="translate(66.450031 0)scale(0.996264)" xlink:href="#Nimbus_Sans_L_Regular-112"/>
      <use transform="translate(121.841708 0)scale(0.996264)" xlink:href="#Nimbus_Sans_L_Regular-105"/>
      <use transform="translate(143.958492 0)scale(0.996264)" xlink:href="#Nimbus_Sans_L_Regular-67"/>
      <use transform="translate(215.888477 0)scale(0.996264)" xlink:href="#Nimbus_Sans_L_Regular-117"/>
      <use transform="translate(271.280154 0)scale(0.996264)" xlink:href="#Nimbus_Sans_L_Regular-114"/>
      <use transform="translate(307.443477 0)scale(0.996264)" xlink:href="#Nimbus_Sans_L_Regular-118"/>
      <use transform="translate(354.766048 0)scale(0.996264)" xlink:href="#Nimbus_Sans_L_Regular-101"/>
      <use transform="translate(437.852894 0)scale(0.996264)" xlink:href="#Nimbus_Sans_L_Regular-48"/>
      <use transform="translate(493.244571 0)scale(0.996264)" xlink:href="#Nimbus_Sans_L_Regular-49"/>
      <use transform="translate(548.636248 0)scale(0.996264)" xlink:href="#Nimbus_Sans_L_Regular-46"/>
      <use transform="translate(576.331418 0)scale(0.996264)" xlink:href="#Nimbus_Sans_L_Regular-48"/>
      <use transform="translate(631.723095 0)scale(0.996264)" xlink:href="#Nimbus_Sans_L_Regular-53"/>
      <use transform="translate(687.114772 0)scale(0.996264)" xlink:href="#Nimbus_Sans_L_Regular-46"/>
      <use transform="translate(714.809941 0)scale(0.996264)" xlink:href="#Nimbus_Sans_L_Regular-50"/>
      <use transform="translate(770.201618 0)scale(0.996264)" xlink:href="#Nimbus_Sans_L_Regular-48"/>
      <use transform="translate(853.288465 0)scale(0.996264)" xlink:href="#Nimbus_Sans_L_Regular-115"/>
      <use transform="translate(903.101665 0)scale(0.996264)" xlink:href="#Nimbus_Sans_L_Regular-105"/>
      <use transform="translate(925.21845 0)scale(0.996264)" xlink:href="#Nimbus_Sans_L_Regular-116"/>
      <use transform="translate(952.913619 0)scale(0.996264)" xlink:href="#Nimbus_Sans_L_Regular-117"/>
      <use transform="translate(1008.305296 0)scale(0.996264)" xlink:href="#Nimbus_Sans_L_Regular-97"/>
      <use transform="translate(1063.696973 0)scale(0.996264)" xlink:href="#Nimbus_Sans_L_Regular-116"/>
      <use transform="translate(1091.392143 0)scale(0.996264)" xlink:href="#Nimbus_Sans_L_Regular-105"/>
      <use transform="translate(1113.508927 0)scale(0.996264)" xlink:href="#Nimbus_Sans_L_Regular-111"/>
      <use transform="translate(1168.900604 0)scale(0.996264)" xlink:href="#Nimbus_Sans_L_Regular-110"/>
      <use transform="translate(1251.987451 0)scale(0.996264)" xlink:href="#Nimbus_Sans_L_Regular-114"/>
      <use transform="translate(1285.16268 0)scale(0.996264)" xlink:href="#Nimbus_Sans_L_Regular-101"/>
      <use transform="translate(1340.554357 0)scale(0.996264)" xlink:href="#Nimbus_Sans_L_Regular-112"/>
      <use transform="translate(1395.946034 0)scale(0.996264)" xlink:href="#Nimbus_Sans_L_Regular-111"/>
      <use transform="translate(1451.337711 0)scale(0.996264)" xlink:href="#Nimbus_Sans_L_Regular-114"/>
      <use transform="translate(1488.497039 0)scale(0.996264)" xlink:href="#Nimbus_Sans_L_Regular-116"/>
      <use transform="translate(1543.887379 0)scale(0.996264)" xlink:href="#Nimbus_Sans_L_Regular-110"/>
      <use transform="translate(1626.974225 0)scale(0.996264)" xlink:href="#Nimbus_Sans_L_Regular-61"/>
      <use transform="translate(1712.850888 0)scale(0.996264)" xlink:href="#Nimbus_Sans_L_Regular-49"/>
      <use transform="translate(1768.242565 0)scale(0.996264)" xlink:href="#Nimbus_Sans_L_Regular-48"/>
      <use transform="translate(1823.634241 0)scale(0.996264)" xlink:href="#Nimbus_Sans_L_Regular-52"/>
      <use transform="translate(1879.025918 0)scale(0.996264)" xlink:href="#Nimbus_Sans_L_Regular-49"/>
      <use transform="translate(1934.417595 0)scale(0.996264)" xlink:href="#Nimbus_Sans_L_Regular-56"/>
      <use transform="translate(1989.809272 0)scale(0.996264)" xlink:href="#Nimbus_Sans_L_Regular-54"/>
     </g>
    </g>
    <g id="line2d_24">
     <path d="M 59.4 73.452342 
L 79.4 73.452342 
" style="fill:none;stroke:#008000;stroke-dasharray:1.85,0.8;stroke-dashoffset:0;stroke-width:0.5;"/>
    </g>
    <g id="line2d_25"/>
    <g id="text_18">
     <!-- Nowcast(low) (RKI estimate) n = 112854 -->
     <defs>
      <path d="M 55.40625 0 
L 70.796875 52 
L 61.40625 52 
L 51 11.515625 
L 40.703125 52 
L 30.5 52 
L 20.5 11.515625 
L 9.796875 52 
L 0.59375 52 
L 15.796875 0 
L 25.203125 0 
L 35.296875 40.765625 
L 45.90625 0 
z
" id="Nimbus_Sans_L_Regular-119"/>
     </defs>
     <g transform="translate(87.4 76.952342)scale(0.1 -0.1)">
      <use transform="scale(0.996264)" xlink:href="#Nimbus_Sans_L_Regular-78"/>
      <use transform="translate(71.929985 0)scale(0.996264)" xlink:href="#Nimbus_Sans_L_Regular-111"/>
      <use transform="translate(125.828269 0)scale(0.996264)" xlink:href="#Nimbus_Sans_L_Regular-119"/>
      <use transform="translate(197.758254 0)scale(0.996264)" xlink:href="#Nimbus_Sans_L_Regular-99"/>
      <use transform="translate(247.571454 0)scale(0.996264)" xlink:href="#Nimbus_Sans_L_Regular-97"/>
      <use transform="translate(302.963131 0)scale(0.996264)" xlink:href="#Nimbus_Sans_L_Regular-115"/>
      <use transform="translate(352.776332 0)scale(0.996264)" xlink:href="#Nimbus_Sans_L_Regular-116"/>
      <use transform="translate(380.471502 0)scale(0.996264)" xlink:href="#Nimbus_Sans_L_Regular-40"/>
      <use transform="translate(413.646731 0)scale(0.996264)" xlink:href="#Nimbus_Sans_L_Regular-108"/>
      <use transform="translate(435.763516 0)scale(0.996264)" xlink:href="#Nimbus_Sans_L_Regular-111"/>
      <use transform="translate(489.6618 0)scale(0.996264)" xlink:href="#Nimbus_Sans_L_Regular-119"/>
      <use transform="translate(561.591785 0)scale(0.996264)" xlink:href="#Nimbus_Sans_L_Regular-41"/>
      <use transform="translate(622.462184 0)scale(0.996264)" xlink:href="#Nimbus_Sans_L_Regular-40"/>
      <use transform="translate(655.637414 0)scale(0.996264)" xlink:href="#Nimbus_Sans_L_Regular-82"/>
      <use transform="translate(727.567399 0)scale(0.996264)" xlink:href="#Nimbus_Sans_L_Regular-75"/>
      <use transform="translate(794.01743 0)scale(0.996264)" xlink:href="#Nimbus_Sans_L_Regular-73"/>
      <use transform="translate(849.407769 0)scale(0.996264)" xlink:href="#Nimbus_Sans_L_Regular-101"/>
      <use transform="translate(904.799446 0)scale(0.996264)" xlink:href="#Nimbus_Sans_L_Regular-115"/>
      <use transform="translate(954.612646 0)scale(0.996264)" xlink:href="#Nimbus_Sans_L_Regular-116"/>
      <use transform="translate(982.307816 0)scale(0.996264)" xlink:href="#Nimbus_Sans_L_Regular-105"/>
      <use transform="translate(1004.4246 0)scale(0.996264)" xlink:href="#Nimbus_Sans_L_Regular-109"/>
      <use transform="translate(1087.413031 0)scale(0.996264)" xlink:href="#Nimbus_Sans_L_Regular-97"/>
      <use transform="translate(1142.804708 0)scale(0.996264)" xlink:href="#Nimbus_Sans_L_Regular-116"/>
      <use transform="translate(1170.499877 0)scale(0.996264)" xlink:href="#Nimbus_Sans_L_Regular-101"/>
      <use transform="translate(1225.891554 0)scale(0.996264)" xlink:href="#Nimbus_Sans_L_Regular-41"/>
      <use transform="translate(1286.761953 0)scale(0.996264)" xlink:href="#Nimbus_Sans_L_Regular-110"/>
      <use transform="translate(1369.8488 0)scale(0.996264)" xlink:href="#Nimbus_Sans_L_Regular-61"/>
      <use transform="translate(1455.725462 0)scale(0.996264)" xlink:href="#Nimbus_Sans_L_Regular-49"/>
      <use transform="translate(1511.117139 0)scale(0.996264)" xlink:href="#Nimbus_Sans_L_Regular-49"/>
      <use transform="translate(1566.508816 0)scale(0.996264)" xlink:href="#Nimbus_Sans_L_Regular-50"/>
      <use transform="translate(1621.900493 0)scale(0.996264)" xlink:href="#Nimbus_Sans_L_Regular-56"/>
      <use transform="translate(1677.29217 0)scale(0.996264)" xlink:href="#Nimbus_Sans_L_Regular-53"/>
      <use transform="translate(1732.683847 0)scale(0.996264)" xlink:href="#Nimbus_Sans_L_Regular-52"/>
     </g>
    </g>
   </g>
  </g>
 </g>
 <defs>
  <clipPath id="p4d3d147dd0">
   <rect height="385.56" width="655.2" x="50.4" y="17.64"/>
  </clipPath>
 </defs>
</svg>
