<?xml version="1.0" encoding="utf-8" standalone="no"?>
<!DOCTYPE svg PUBLIC "-//W3C//DTD SVG 1.1//EN"
  "http://www.w3.org/Graphics/SVG/1.1/DTD/svg11.dtd">
<!-- Created with matplotlib (https://matplotlib.org/) -->
<svg height="720pt" version="1.1" viewBox="0 0 720 720" width="720pt" xmlns="http://www.w3.org/2000/svg" xmlns:xlink="http://www.w3.org/1999/xlink">
 <defs>
  <style type="text/css">
*{stroke-linecap:butt;stroke-linejoin:round;}
  </style>
 </defs>
 <g id="figure_1">
  <g id="patch_1">
   <path d="M 0 720 
L 720 720 
L 720 0 
L 0 0 
z
" style="fill:#ffffff;"/>
  </g>
  <g id="axes_1">
   <g id="patch_2">
    <path d="M 50.4 338.914286 
L 705.6 338.914286 
L 705.6 25.2 
L 50.4 25.2 
z
" style="fill:#ffffff;"/>
   </g>
   <g id="matplotlib.axis_1">
    <g id="xtick_1">
     <g id="line2d_1">
      <defs>
       <path d="M 0 0 
L 0 3.5 
" id="m4beba37d97" style="stroke:#000000;stroke-width:0.8;"/>
      </defs>
      <g>
       <use style="stroke:#000000;stroke-width:0.8;" x="63.247059" xlink:href="#m4beba37d97" y="338.914286"/>
      </g>
     </g>
     <g id="text_1">
      <!-- $0$ -->
      <defs>
       <path d="M 42 31.84375 
C 42 37.96875 41.90625 48.421875 37.703125 56.453125 
C 34 63.484375 28.09375 66 22.90625 66 
C 18.09375 66 12 63.78125 8.203125 56.5625 
C 4.203125 49.015625 3.796875 39.671875 3.796875 31.84375 
C 3.796875 26.109375 3.90625 17.375 7 9.734375 
C 11.296875 -0.609375 19 -2 22.90625 -2 
C 27.5 -2 34.5 -0.109375 38.59375 9.4375 
C 41.59375 16.375 42 24.5 42 31.84375 
z
M 22.90625 -0.40625 
C 16.5 -0.40625 12.703125 5.125 11.296875 12.75 
C 10.203125 18.6875 10.203125 27.328125 10.203125 32.953125 
C 10.203125 40.6875 10.203125 47.109375 11.5 53.234375 
C 13.40625 61.78125 19 64.390625 22.90625 64.390625 
C 27 64.390625 32.296875 61.671875 34.203125 53.4375 
C 35.5 47.71875 35.59375 40.984375 35.59375 32.953125 
C 35.59375 26.421875 35.59375 18.375 34.40625 12.453125 
C 32.296875 1.5 26.40625 -0.40625 22.90625 -0.40625 
z
" id="CMR17-48"/>
      </defs>
      <g transform="translate(60.756391 353.012606)scale(0.1 -0.1)">
       <use transform="scale(0.996264)" xlink:href="#CMR17-48"/>
      </g>
     </g>
    </g>
    <g id="xtick_2">
     <g id="line2d_2">
      <g>
       <use style="stroke:#000000;stroke-width:0.8;" x="191.717647" xlink:href="#m4beba37d97" y="338.914286"/>
      </g>
     </g>
     <g id="text_2">
      <!-- $5$ -->
      <defs>
       <path d="M 11.40625 58.59375 
C 12.40625 58.1875 16.5 56.890625 20.703125 56.890625 
C 30 56.890625 35.09375 61.890625 38 64.6875 
C 38 65.484375 38 66 37.40625 66 
C 37.296875 66 37.09375 66 36.296875 65.59375 
C 32.796875 64.09375 28.703125 63 23.703125 63 
C 20.703125 63 16.203125 63.359375 11.296875 65.484375 
C 10.203125 66 10 66 9.90625 66 
C 9.40625 66 9.296875 65.890625 9.296875 63.90625 
L 9.296875 34.859375 
C 9.296875 33.015625 9.296875 32.5 10.296875 32.5 
C 10.796875 32.5 11 32.703125 11.5 33.421875 
C 14.703125 38.046875 19.09375 40 24.09375 40 
C 27.59375 40 35.09375 37.734375 35.09375 20.203125 
C 35.09375 16.984375 35.09375 11.1875 32.09375 6.59375 
C 29.59375 2.484375 25.703125 0.390625 21.40625 0.390625 
C 14.796875 0.390625 8.09375 4.984375 6.296875 12.6875 
C 6.703125 12.59375 7.5 12.390625 7.90625 12.390625 
C 9.203125 12.390625 11.703125 13.09375 11.703125 16.1875 
C 11.703125 18.890625 9.796875 20 7.90625 20 
C 5.59375 20 4.09375 18.59375 4.09375 15.796875 
C 4.09375 7.09375 11 -2 21.59375 -2 
C 31.90625 -2 41.703125 6.890625 41.703125 19.796875 
C 41.703125 32.09375 33.90625 41.59375 24.203125 41.59375 
C 19.09375 41.59375 14.796875 39.6875 11.40625 36 
z
" id="CMR17-53"/>
      </defs>
      <g transform="translate(189.226979 353.012606)scale(0.1 -0.1)">
       <use transform="scale(0.996264)" xlink:href="#CMR17-53"/>
      </g>
     </g>
    </g>
    <g id="xtick_3">
     <g id="line2d_3">
      <g>
       <use style="stroke:#000000;stroke-width:0.8;" x="320.188235" xlink:href="#m4beba37d97" y="338.914286"/>
      </g>
     </g>
     <g id="text_3">
      <!-- $10$ -->
      <defs>
       <path d="M 26.59375 63.796875 
C 26.59375 65.890625 26.5 66 25.09375 66 
C 21.203125 61.359375 15.296875 59.890625 9.703125 59.6875 
C 9.40625 59.6875 8.90625 59.6875 8.796875 59.5 
C 8.703125 59.296875 8.703125 59.09375 8.703125 57 
C 11.796875 57 17 57.59375 21 59.984375 
L 21 7.296875 
C 21 3.796875 20.796875 2.59375 12.203125 2.59375 
L 9.203125 2.59375 
L 9.203125 0 
C 14 0.09375 19 0.1875 23.796875 0.1875 
C 28.59375 0.1875 33.59375 0.09375 38.40625 0 
L 38.40625 2.59375 
L 35.40625 2.59375 
C 26.796875 2.59375 26.59375 3.6875 26.59375 7.296875 
z
" id="CMR17-49"/>
      </defs>
      <g transform="translate(315.2069 353.012606)scale(0.1 -0.1)">
       <use transform="scale(0.996264)" xlink:href="#CMR17-49"/>
       <use transform="translate(45.690477 0)scale(0.996264)" xlink:href="#CMR17-48"/>
      </g>
     </g>
    </g>
    <g id="xtick_4">
     <g id="line2d_4">
      <g>
       <use style="stroke:#000000;stroke-width:0.8;" x="448.658824" xlink:href="#m4beba37d97" y="338.914286"/>
      </g>
     </g>
     <g id="text_4">
      <!-- $15$ -->
      <g transform="translate(443.677488 353.012606)scale(0.1 -0.1)">
       <use transform="scale(0.996264)" xlink:href="#CMR17-49"/>
       <use transform="translate(45.690477 0)scale(0.996264)" xlink:href="#CMR17-53"/>
      </g>
     </g>
    </g>
    <g id="xtick_5">
     <g id="line2d_5">
      <g>
       <use style="stroke:#000000;stroke-width:0.8;" x="577.129412" xlink:href="#m4beba37d97" y="338.914286"/>
      </g>
     </g>
     <g id="text_5">
      <!-- $20$ -->
      <defs>
       <path d="M 41.703125 15.46875 
L 39.90625 15.46875 
C 38.90625 8.390625 38.09375 7.1875 37.703125 6.59375 
C 37.203125 5.796875 30 5.796875 28.59375 5.796875 
L 9.40625 5.796875 
C 13 9.6875 20 16.765625 28.5 24.9375 
C 34.59375 30.71875 41.703125 37.5 41.703125 47.390625 
C 41.703125 59.1875 32.296875 66 21.796875 66 
C 10.796875 66 4.09375 56.296875 4.09375 47.296875 
C 4.09375 43.390625 7 42.890625 8.203125 42.890625 
C 9.203125 42.890625 12.203125 43.484375 12.203125 46.984375 
C 12.203125 50.09375 9.59375 51 8.203125 51 
C 7.59375 51 7 50.890625 6.59375 50.6875 
C 8.5 59.1875 14.296875 63.390625 20.40625 63.390625 
C 29.09375 63.390625 34.796875 56.5 34.796875 47.390625 
C 34.796875 38.703125 29.703125 31.21875 24 24.734375 
L 4.09375 2.296875 
L 4.09375 0 
L 39.296875 0 
z
" id="CMR17-50"/>
      </defs>
      <g transform="translate(572.148077 353.012606)scale(0.1 -0.1)">
       <use transform="scale(0.996264)" xlink:href="#CMR17-50"/>
       <use transform="translate(45.690477 0)scale(0.996264)" xlink:href="#CMR17-48"/>
      </g>
     </g>
    </g>
    <g id="xtick_6">
     <g id="line2d_6">
      <g>
       <use style="stroke:#000000;stroke-width:0.8;" x="705.6" xlink:href="#m4beba37d97" y="338.914286"/>
      </g>
     </g>
     <g id="text_6">
      <!-- $25$ -->
      <g transform="translate(700.618665 353.012606)scale(0.1 -0.1)">
       <use transform="scale(0.996264)" xlink:href="#CMR17-50"/>
       <use transform="translate(45.690477 0)scale(0.996264)" xlink:href="#CMR17-53"/>
      </g>
     </g>
    </g>
    <g id="text_7">
     <!-- days between Refdatum and Meldedatum -->
     <defs>
      <path d="M 49.5 73 
L 41.203125 73 
L 41.203125 45.890625 
C 37.703125 51.1875 32.09375 54 25.09375 54 
C 11.5 54 2.59375 43.109375 2.59375 26.484375 
C 2.59375 8.875 11.296875 -2 25.40625 -2 
C 32.59375 -2 37.59375 0.6875 42.09375 7.1875 
L 42.09375 0.296875 
L 49.5 0.296875 
z
M 26.5 46.1875 
C 35.5 46.1875 41.203125 38.234375 41.203125 25.796875 
C 41.203125 13.75 35.40625 5.796875 26.59375 5.796875 
C 17.40625 5.796875 11.296875 13.859375 11.296875 25.984375 
C 11.296875 38.125 17.40625 46.1875 26.5 46.1875 
z
" id="Nimbus_Sans_L_Regular-100"/>
      <path d="M 53.5 5.1875 
C 52.59375 5 52.203125 5 51.703125 5 
C 48.796875 5 47.203125 6.484375 47.203125 9.078125 
L 47.203125 39.71875 
C 47.203125 48.984375 40.40625 54 27.5 54 
C 19.90625 54 13.59375 51.796875 10.09375 47.890625 
C 7.703125 45.203125 6.703125 42.21875 6.5 37.03125 
L 14.90625 37.03125 
C 15.59375 43.40625 19.40625 46.296875 27.203125 46.296875 
C 34.703125 46.296875 38.90625 43.5 38.90625 38.53125 
L 38.90625 36.34375 
C 38.90625 32.859375 36.796875 31.359375 30.203125 30.5625 
C 18.40625 29.078125 16.59375 28.671875 13.40625 27.390625 
C 7.296875 24.890625 4.203125 20.21875 4.203125 13.453125 
C 4.203125 4 10.796875 -2 21.40625 -2 
C 28 -2 33.296875 0.296875 39.203125 5.6875 
C 39.796875 0.390625 42.40625 -2 47.796875 -2 
C 49.5 -2 50.796875 -1.8125 53.5 -1.109375 
z
M 38.90625 16.734375 
C 38.90625 13.953125 38.09375 12.265625 35.59375 9.96875 
C 32.203125 6.890625 28.09375 5.296875 23.203125 5.296875 
C 16.703125 5.296875 12.90625 8.375 12.90625 13.65625 
C 12.90625 19.125 16.59375 21.90625 25.5 23.203125 
C 34.296875 24.40625 36.09375 24.796875 38.90625 26.09375 
z
" id="Nimbus_Sans_L_Regular-97"/>
      <path d="M 38.796875 52 
L 24.296875 11.3125 
L 10.90625 52 
L 2 52 
L 19.703125 -0.453125 
L 16.5 -8.71875 
C 15.203125 -12.40625 13.296875 -13.8125 9.796875 -13.8125 
C 8.59375 -13.8125 7.203125 -13.609375 5.40625 -13.203125 
L 5.40625 -20.703125 
C 7.09375 -21.609375 8.796875 -22 11 -22 
C 13.703125 -22 16.59375 -21.109375 18.796875 -19.5 
C 21.40625 -17.609375 22.90625 -15.40625 24.5 -11.21875 
L 47.796875 52 
z
" id="Nimbus_Sans_L_Regular-121"/>
      <path d="M 43.796875 37.9375 
C 43.703125 48.1875 36.90625 54 24.796875 54 
C 12.59375 54 4.703125 47.6875 4.703125 38.03125 
C 4.703125 29.875 8.90625 25.984375 21.296875 23 
L 29.09375 21.109375 
C 34.90625 19.71875 37.203125 17.640625 37.203125 13.859375 
C 37.203125 8.96875 32.296875 5.6875 25 5.6875 
C 20.5 5.6875 16.703125 6.984375 14.59375 9.171875 
C 13.296875 10.671875 12.703125 12.15625 12.203125 15.84375 
L 3.40625 15.84375 
C 3.796875 3.796875 10.59375 -2 24.296875 -2 
C 37.5 -2 45.90625 4.5 45.90625 14.546875 
C 45.90625 22.3125 41.5 26.59375 31.09375 29.078125 
L 23.09375 30.96875 
C 16.296875 32.5625 13.40625 34.75 13.40625 38.421875 
C 13.40625 43.203125 17.703125 46.296875 24.5 46.296875 
C 31.203125 46.296875 34.796875 43.40625 35 37.9375 
z
" id="Nimbus_Sans_L_Regular-115"/>
      <path d="M 5.40625 73 
L 5.40625 0.296875 
L 12.90625 0.296875 
L 12.90625 6.984375 
C 16.90625 0.890625 22.203125 -2 29.5 -2 
C 43.296875 -2 52.296875 9.28125 52.296875 26.59375 
C 52.296875 43.5 43.703125 54 29.90625 54 
C 22.703125 54 17.59375 51.296875 13.703125 45.390625 
L 13.703125 73 
z
M 28.296875 46.1875 
C 37.59375 46.1875 43.59375 38.125 43.59375 25.6875 
C 43.59375 13.859375 37.40625 5.796875 28.296875 5.796875 
C 19.5 5.796875 13.703125 13.75 13.703125 25.984375 
C 13.703125 38.234375 19.5 46.1875 28.296875 46.1875 
z
" id="Nimbus_Sans_L_Regular-98"/>
      <path d="M 51.296875 23.1875 
C 51.296875 31.21875 50.703125 36.109375 49.203125 40.078125 
C 45.796875 48.796875 37.796875 54 28 54 
C 13.40625 54 4 42.71875 4 25.296875 
C 4 8.515625 13.09375 -2 27.796875 -2 
C 39.796875 -2 48.09375 4.796875 50.203125 15.90625 
L 41.796875 15.90625 
C 39.5 9.1875 34.796875 5.6875 28.09375 5.6875 
C 22.796875 5.6875 18.296875 8.03125 15.5 12.296875 
C 13.5 15.21875 12.796875 18.140625 12.703125 23.1875 
z
M 12.90625 30 
C 13.59375 39.875 19.5 46.296875 27.90625 46.296875 
C 36.09375 46.296875 42.40625 39.359375 42.40625 30.609375 
C 42.40625 30.40625 42.40625 30.203125 42.296875 30 
z
" id="Nimbus_Sans_L_Regular-101"/>
      <path d="M 25.40625 52 
L 16.796875 52 
L 16.796875 66.390625 
L 8.5 66.390625 
L 8.5 52 
L 1.40625 52 
L 1.40625 45.1875 
L 8.5 45.1875 
L 8.5 6.28125 
C 8.5 1 12.09375 -2 18.59375 -2 
C 20.59375 -2 22.59375 -1.8125 25.40625 -1.3125 
L 25.40625 5.6875 
C 24.296875 5.390625 23 5.296875 21.40625 5.296875 
C 17.796875 5.296875 16.796875 6.28125 16.796875 9.90625 
L 16.796875 45.1875 
L 25.40625 45.1875 
z
" id="Nimbus_Sans_L_Regular-116"/>
      <path d="M 55.40625 0 
L 70.796875 52 
L 61.40625 52 
L 51 11.515625 
L 40.703125 52 
L 30.5 52 
L 20.5 11.515625 
L 9.796875 52 
L 0.59375 52 
L 15.796875 0 
L 25.203125 0 
L 35.296875 40.765625 
L 45.90625 0 
z
" id="Nimbus_Sans_L_Regular-119"/>
      <path d="M 7 52 
L 7 0 
L 15.40625 0 
L 15.40625 28.671875 
C 15.40625 39.671875 21 46.6875 29.59375 46.6875 
C 36.203125 46.6875 40.40625 42.6875 40.40625 36.375 
L 40.40625 0 
L 48.703125 0 
L 48.703125 39.671875 
C 48.703125 48.390625 42.203125 54 32.09375 54 
C 24.296875 54 19.296875 50.984375 14.703125 43.6875 
L 14.703125 52 
z
" id="Nimbus_Sans_L_Regular-110"/>
      <path d="M 18.59375 31.796875 
L 42.59375 31.796875 
C 50.90625 31.796875 54.59375 27.734375 54.59375 18.609375 
L 54.5 12.03125 
C 54.5 7.46875 55.296875 3 56.59375 0 
L 67.90625 0 
L 67.90625 2.296875 
C 64.40625 4.734375 63.703125 7.359375 63.5 17.203125 
C 63.40625 29.359375 61.5 32.984375 53.59375 36.390625 
C 61.796875 40.390625 65.09375 45.421875 65.09375 53.625 
C 65.09375 66.09375 57.203125 73 42.90625 73 
L 9.296875 73 
L 9.296875 0 
L 18.59375 0 
z
M 18.59375 40 
L 18.59375 64.796875 
L 41.09375 64.796875 
C 46.296875 64.796875 49.296875 64 51.59375 62.03125 
C 54.09375 59.953125 55.40625 56.6875 55.40625 52.34375 
C 55.40625 43.84375 51 40 41.09375 40 
z
" id="Nimbus_Sans_L_Regular-82"/>
      <path d="M 25.796875 52 
L 17.09375 52 
L 17.09375 60.3125 
C 17.09375 63.859375 19.09375 65.6875 22.90625 65.6875 
C 23.59375 65.6875 23.90625 65.6875 25.796875 65.59375 
L 25.796875 72.484375 
C 23.90625 72.890625 22.796875 73 21.09375 73 
C 13.40625 73 8.796875 68.59375 8.796875 61.015625 
L 8.796875 52 
L 1.796875 52 
L 1.796875 45.1875 
L 8.796875 45.1875 
L 8.796875 0 
L 17.09375 0 
L 17.09375 45.1875 
L 25.796875 45.1875 
z
" id="Nimbus_Sans_L_Regular-102"/>
      <path d="M 48.203125 0.296875 
L 48.203125 52 
L 39.90625 52 
L 39.90625 22.71875 
C 39.90625 12.1875 34.296875 5.296875 25.59375 5.296875 
C 19 5.296875 14.796875 9.234375 14.796875 15.4375 
L 14.796875 52 
L 6.5 52 
L 6.5 12.1875 
C 6.5 3.59375 13 -2 23.203125 -2 
C 30.90625 -2 35.796875 0.6875 40.703125 7.5625 
L 40.703125 0.296875 
z
" id="Nimbus_Sans_L_Regular-117"/>
      <path d="M 7 52 
L 7 0 
L 15.40625 0 
L 15.40625 32.640625 
C 15.40625 40.578125 20.90625 46.6875 27.703125 46.6875 
C 33.90625 46.6875 37.40625 42.875 37.40625 36.171875 
L 37.40625 0 
L 45.796875 0 
L 45.796875 32.953125 
C 45.796875 40.578125 51.296875 46.6875 58.09375 46.6875 
C 64.203125 46.6875 67.796875 42.78125 67.796875 36.171875 
L 67.796875 0 
L 76.203125 0 
L 76.203125 39.375 
C 76.203125 48.796875 70.796875 54 61 54 
C 54 54 49.796875 51.890625 44.90625 45.984375 
C 41.796875 51.59375 37.59375 54 30.796875 54 
C 23.796875 54 19.203125 51.390625 14.703125 45.09375 
L 14.703125 52 
z
" id="Nimbus_Sans_L_Regular-109"/>
      <path d="M 46.796875 0 
L 67.296875 61.171875 
L 67.296875 0 
L 76.09375 0 
L 76.09375 73 
L 63.203125 73 
L 42 9.40625 
L 20.40625 73 
L 7.5 73 
L 7.5 0 
L 16.296875 0 
L 16.296875 61.171875 
L 37 0 
z
" id="Nimbus_Sans_L_Regular-77"/>
      <path d="M 15.203125 73 
L 6.796875 73 
L 6.796875 0 
L 15.203125 0 
z
" id="Nimbus_Sans_L_Regular-108"/>
     </defs>
     <g transform="translate(286.001139 366.41728)scale(0.1 -0.1)">
      <use transform="scale(0.996264)" xlink:href="#Nimbus_Sans_L_Regular-100"/>
      <use transform="translate(55.391677 0)scale(0.996264)" xlink:href="#Nimbus_Sans_L_Regular-97"/>
      <use transform="translate(107.795246 0)scale(0.996264)" xlink:href="#Nimbus_Sans_L_Regular-121"/>
      <use transform="translate(157.608446 0)scale(0.996264)" xlink:href="#Nimbus_Sans_L_Regular-115"/>
      <use transform="translate(235.116817 0)scale(0.996264)" xlink:href="#Nimbus_Sans_L_Regular-98"/>
      <use transform="translate(290.508494 0)scale(0.996264)" xlink:href="#Nimbus_Sans_L_Regular-101"/>
      <use transform="translate(345.900171 0)scale(0.996264)" xlink:href="#Nimbus_Sans_L_Regular-116"/>
      <use transform="translate(373.59534 0)scale(0.996264)" xlink:href="#Nimbus_Sans_L_Regular-119"/>
      <use transform="translate(444.529228 0)scale(0.996264)" xlink:href="#Nimbus_Sans_L_Regular-101"/>
      <use transform="translate(499.920905 0)scale(0.996264)" xlink:href="#Nimbus_Sans_L_Regular-101"/>
      <use transform="translate(555.312582 0)scale(0.996264)" xlink:href="#Nimbus_Sans_L_Regular-110"/>
      <use transform="translate(638.399429 0)scale(0.996264)" xlink:href="#Nimbus_Sans_L_Regular-82"/>
      <use transform="translate(710.329414 0)scale(0.996264)" xlink:href="#Nimbus_Sans_L_Regular-101"/>
      <use transform="translate(765.72109 0)scale(0.996264)" xlink:href="#Nimbus_Sans_L_Regular-102"/>
      <use transform="translate(793.41626 0)scale(0.996264)" xlink:href="#Nimbus_Sans_L_Regular-100"/>
      <use transform="translate(848.807937 0)scale(0.996264)" xlink:href="#Nimbus_Sans_L_Regular-97"/>
      <use transform="translate(904.199614 0)scale(0.996264)" xlink:href="#Nimbus_Sans_L_Regular-116"/>
      <use transform="translate(931.894784 0)scale(0.996264)" xlink:href="#Nimbus_Sans_L_Regular-117"/>
      <use transform="translate(987.286461 0)scale(0.996264)" xlink:href="#Nimbus_Sans_L_Regular-109"/>
      <use transform="translate(1097.97006 0)scale(0.996264)" xlink:href="#Nimbus_Sans_L_Regular-97"/>
      <use transform="translate(1153.361737 0)scale(0.996264)" xlink:href="#Nimbus_Sans_L_Regular-110"/>
      <use transform="translate(1208.753414 0)scale(0.996264)" xlink:href="#Nimbus_Sans_L_Regular-100"/>
      <use transform="translate(1291.840261 0)scale(0.996264)" xlink:href="#Nimbus_Sans_L_Regular-77"/>
      <use transform="translate(1374.828691 0)scale(0.996264)" xlink:href="#Nimbus_Sans_L_Regular-101"/>
      <use transform="translate(1430.220368 0)scale(0.996264)" xlink:href="#Nimbus_Sans_L_Regular-108"/>
      <use transform="translate(1452.337152 0)scale(0.996264)" xlink:href="#Nimbus_Sans_L_Regular-100"/>
      <use transform="translate(1507.728829 0)scale(0.996264)" xlink:href="#Nimbus_Sans_L_Regular-101"/>
      <use transform="translate(1563.120506 0)scale(0.996264)" xlink:href="#Nimbus_Sans_L_Regular-100"/>
      <use transform="translate(1618.512183 0)scale(0.996264)" xlink:href="#Nimbus_Sans_L_Regular-97"/>
      <use transform="translate(1673.90386 0)scale(0.996264)" xlink:href="#Nimbus_Sans_L_Regular-116"/>
      <use transform="translate(1701.59903 0)scale(0.996264)" xlink:href="#Nimbus_Sans_L_Regular-117"/>
      <use transform="translate(1756.990707 0)scale(0.996264)" xlink:href="#Nimbus_Sans_L_Regular-109"/>
     </g>
    </g>
   </g>
   <g id="matplotlib.axis_2">
    <g id="ytick_1">
     <g id="line2d_7">
      <defs>
       <path d="M 0 0 
L -3.5 0 
" id="m70381e3bcc" style="stroke:#000000;stroke-width:0.8;"/>
      </defs>
      <g>
       <use style="stroke:#000000;stroke-width:0.8;" x="50.4" xlink:href="#m70381e3bcc" y="324.654545"/>
      </g>
     </g>
     <g id="text_8">
      <!-- $0.00$ -->
      <defs>
       <path d="M 18.40625 4.796875 
C 18.40625 7.6875 16 9.6875 13.59375 9.6875 
C 10.703125 9.6875 8.703125 7.296875 8.703125 4.890625 
C 8.703125 2 11.09375 0 13.5 0 
C 16.40625 0 18.40625 2.390625 18.40625 4.796875 
z
" id="CMMI12-58"/>
      </defs>
      <g transform="translate(25.688586 328.203706)scale(0.1 -0.1)">
       <use transform="scale(0.996264)" xlink:href="#CMR17-48"/>
       <use transform="translate(45.690477 0)scale(0.996264)" xlink:href="#CMMI12-58"/>
       <use transform="translate(72.787654 0)scale(0.996264)" xlink:href="#CMR17-48"/>
       <use transform="translate(118.478131 0)scale(0.996264)" xlink:href="#CMR17-48"/>
      </g>
     </g>
    </g>
    <g id="ytick_2">
     <g id="line2d_8">
      <g>
       <use style="stroke:#000000;stroke-width:0.8;" x="50.4" xlink:href="#m70381e3bcc" y="270.820608"/>
      </g>
     </g>
     <g id="text_9">
      <!-- $0.02$ -->
      <g transform="translate(25.688586 274.369768)scale(0.1 -0.1)">
       <use transform="scale(0.996264)" xlink:href="#CMR17-48"/>
       <use transform="translate(45.690477 0)scale(0.996264)" xlink:href="#CMMI12-58"/>
       <use transform="translate(72.787654 0)scale(0.996264)" xlink:href="#CMR17-48"/>
       <use transform="translate(118.478131 0)scale(0.996264)" xlink:href="#CMR17-50"/>
      </g>
     </g>
    </g>
    <g id="ytick_3">
     <g id="line2d_9">
      <g>
       <use style="stroke:#000000;stroke-width:0.8;" x="50.4" xlink:href="#m70381e3bcc" y="216.98667"/>
      </g>
     </g>
     <g id="text_10">
      <!-- $0.04$ -->
      <defs>
       <path d="M 33.59375 64.796875 
C 33.59375 66.890625 33.5 67 31.703125 67 
L 2 19.59375 
L 2 17 
L 27.796875 17 
L 27.796875 7.1875 
C 27.796875 3.59375 27.59375 2.59375 20.59375 2.59375 
L 18.703125 2.59375 
L 18.703125 0 
C 21.90625 0.1875 27.296875 0.1875 30.703125 0.1875 
C 34.09375 0.1875 39.5 0.1875 42.703125 0 
L 42.703125 2.59375 
L 40.796875 2.59375 
C 33.796875 2.59375 33.59375 3.59375 33.59375 7.1875 
L 33.59375 17 
L 43.796875 17 
L 43.796875 19.59375 
L 33.59375 19.59375 
z
M 28.09375 58.171875 
L 28.09375 19.59375 
L 4 19.59375 
z
" id="CMR17-52"/>
      </defs>
      <g transform="translate(25.688586 220.53583)scale(0.1 -0.1)">
       <use transform="scale(0.996264)" xlink:href="#CMR17-48"/>
       <use transform="translate(45.690477 0)scale(0.996264)" xlink:href="#CMMI12-58"/>
       <use transform="translate(72.787654 0)scale(0.996264)" xlink:href="#CMR17-48"/>
       <use transform="translate(118.478131 0)scale(0.996264)" xlink:href="#CMR17-52"/>
      </g>
     </g>
    </g>
    <g id="ytick_4">
     <g id="line2d_10">
      <g>
       <use style="stroke:#000000;stroke-width:0.8;" x="50.4" xlink:href="#m70381e3bcc" y="163.152733"/>
      </g>
     </g>
     <g id="text_11">
      <!-- $0.06$ -->
      <defs>
       <path d="M 10.59375 34.34375 
C 10.59375 58 21.796875 63.6875 28.296875 63.6875 
C 30.40625 63.6875 35.5 63.265625 37.5 59.09375 
C 35.90625 59.09375 32.90625 59.09375 32.90625 55.59375 
C 32.90625 52.890625 35.09375 52 36.5 52 
C 37.40625 52 40.09375 52.390625 40.09375 55.796875 
C 40.09375 62.296875 35.09375 66 28.203125 66 
C 16.296875 66 3.796875 53.296875 3.796875 31.421875 
C 3.796875 4.015625 15.09375 -2 23.09375 -2 
C 32.796875 -2 42 6.734375 42 20.234375 
C 42 32.828125 33.90625 42 23.703125 42 
C 17.59375 42 13.09375 37.96875 10.59375 30.921875 
z
M 23.09375 0.390625 
C 10.796875 0.390625 10.796875 18.9375 10.796875 22.65625 
C 10.796875 29.90625 14.203125 40.390625 23.5 40.390625 
C 25.203125 40.390625 30.09375 40.390625 33.40625 33.4375 
C 35.203125 29.515625 35.203125 25.375 35.203125 20.34375 
C 35.203125 14.90625 35.203125 10.875 33.09375 6.84375 
C 30.90625 2.703125 27.703125 0.390625 23.09375 0.390625 
z
" id="CMR17-54"/>
      </defs>
      <g transform="translate(25.688586 166.701893)scale(0.1 -0.1)">
       <use transform="scale(0.996264)" xlink:href="#CMR17-48"/>
       <use transform="translate(45.690477 0)scale(0.996264)" xlink:href="#CMMI12-58"/>
       <use transform="translate(72.787654 0)scale(0.996264)" xlink:href="#CMR17-48"/>
       <use transform="translate(118.478131 0)scale(0.996264)" xlink:href="#CMR17-54"/>
      </g>
     </g>
    </g>
    <g id="ytick_5">
     <g id="line2d_11">
      <g>
       <use style="stroke:#000000;stroke-width:0.8;" x="50.4" xlink:href="#m70381e3bcc" y="109.318795"/>
      </g>
     </g>
     <g id="text_12">
      <!-- $0.08$ -->
      <defs>
       <path d="M 27.203125 35.765625 
C 33.5 38.96875 39.90625 43.796875 39.90625 51.53125 
C 39.90625 60.6875 31.09375 66 23 66 
C 13.90625 66 5.90625 59.375 5.90625 50.234375 
C 5.90625 47.71875 6.5 43.390625 10.40625 39.578125 
C 11.40625 38.578125 15.59375 35.5625 18.296875 33.65625 
C 13.796875 31.34375 3.296875 25.8125 3.296875 14.765625 
C 3.296875 4.40625 13.09375 -2 22.796875 -2 
C 33.5 -2 42.5 5.71875 42.5 15.96875 
C 42.5 25.109375 36.40625 29.328125 32.40625 32.046875 
z
M 14.09375 44.609375 
C 13.296875 45.109375 9.296875 48.21875 9.296875 52.9375 
C 9.296875 59.078125 15.59375 63.6875 22.796875 63.6875 
C 30.703125 63.6875 36.5 58.0625 36.5 51.53125 
C 36.5 42.1875 26.09375 36.859375 25.59375 36.859375 
C 25.5 36.859375 25.40625 36.859375 24.59375 37.46875 
z
M 32.5 24 
C 34 22.90625 38.796875 19.578125 38.796875 13.453125 
C 38.796875 6.015625 31.40625 0.390625 23 0.390625 
C 13.90625 0.390625 7 6.921875 7 14.859375 
C 7 22.796875 13.09375 29.4375 20 32.546875 
z
" id="CMR17-56"/>
      </defs>
      <g transform="translate(25.688586 112.867955)scale(0.1 -0.1)">
       <use transform="scale(0.996264)" xlink:href="#CMR17-48"/>
       <use transform="translate(45.690477 0)scale(0.996264)" xlink:href="#CMMI12-58"/>
       <use transform="translate(72.787654 0)scale(0.996264)" xlink:href="#CMR17-48"/>
       <use transform="translate(118.478131 0)scale(0.996264)" xlink:href="#CMR17-56"/>
      </g>
     </g>
    </g>
    <g id="ytick_6">
     <g id="line2d_12">
      <g>
       <use style="stroke:#000000;stroke-width:0.8;" x="50.4" xlink:href="#m70381e3bcc" y="55.484857"/>
      </g>
     </g>
     <g id="text_13">
      <!-- $0.10$ -->
      <g transform="translate(25.688586 59.034017)scale(0.1 -0.1)">
       <use transform="scale(0.996264)" xlink:href="#CMR17-48"/>
       <use transform="translate(45.690477 0)scale(0.996264)" xlink:href="#CMMI12-58"/>
       <use transform="translate(72.787654 0)scale(0.996264)" xlink:href="#CMR17-49"/>
       <use transform="translate(118.478131 0)scale(0.996264)" xlink:href="#CMR17-48"/>
      </g>
     </g>
    </g>
    <g id="text_14">
     <!-- percentage of cases per day of reporting -->
     <defs>
      <path d="M 5.40625 -22 
L 13.796875 -22 
L 13.796875 5.796875 
C 18.203125 0.390625 23.09375 -2 29.90625 -2 
C 43.40625 -2 52.296875 8.875 52.296875 25.5 
C 52.296875 43 43.703125 54 29.796875 54 
C 22.703125 54 17 50.796875 13.09375 44.59375 
L 13.09375 52.484375 
L 5.40625 52.484375 
z
M 28.40625 46.1875 
C 37.59375 46.1875 43.59375 38.125 43.59375 25.6875 
C 43.59375 13.859375 37.5 5.796875 28.40625 5.796875 
C 19.59375 5.796875 13.796875 13.75 13.796875 25.984375 
C 13.796875 38.234375 19.59375 46.1875 28.40625 46.1875 
z
" id="Nimbus_Sans_L_Regular-112"/>
      <path d="M 6.90625 52 
L 6.90625 0 
L 15.296875 0 
L 15.296875 26.984375 
C 15.296875 34.421875 17.203125 39.28125 21.203125 42.15625 
C 23.796875 44.046875 26.296875 44.640625 32.09375 44.734375 
L 32.09375 53.1875 
C 30.703125 53.890625 30 54 28.90625 54 
C 23.5 54 19.40625 50.796875 14.59375 42.96875 
L 14.59375 52 
z
" id="Nimbus_Sans_L_Regular-114"/>
      <path d="M 47.09375 34.953125 
C 46.703125 40.015625 45.59375 43.296875 43.59375 46.1875 
C 40 51.09375 33.703125 54 26.40625 54 
C 12.296875 54 3.09375 42.8125 3.09375 25.5 
C 3.09375 8.671875 12.09375 -2 26.296875 -2 
C 38.796875 -2 46.703125 5.5 47.703125 18.234375 
L 39.296875 18.234375 
C 37.90625 9.875 33.59375 5.6875 26.5 5.6875 
C 17.296875 5.6875 11.796875 13.15625 11.796875 25.5 
C 11.796875 38.53125 17.203125 46.296875 26.296875 46.296875 
C 33.296875 46.296875 37.703125 42.203125 38.703125 34.953125 
z
" id="Nimbus_Sans_L_Regular-99"/>
      <path d="M 41.203125 52.484375 
L 41.203125 44.890625 
C 37 51.09375 31.90625 54 25.203125 54 
C 11.90625 54 2.90625 42.40625 2.90625 25.5 
C 2.90625 16.9375 5.203125 9.96875 9.5 5 
C 13.40625 0.59375 19 -2 24.5 -2 
C 31.09375 -2 35.703125 0.796875 40.40625 7.390625 
L 40.40625 4.6875 
C 40.40625 -2.421875 39.5 -6.890625 37.40625 -9.90625 
C 35.203125 -13.140625 30.90625 -15 25.796875 -15 
C 22 -15 18.59375 -13.96875 16.296875 -12.09375 
C 14.40625 -10.53125 13.59375 -9.078125 13.09375 -5.859375 
L 4.59375 -5.859375 
C 5.5 -16.109375 13.203125 -22 25.5 -22 
C 33.296875 -22 40 -19.5 43.40625 -15.3125 
C 47.40625 -10.328125 48.90625 -3.46875 48.90625 8.875 
L 48.90625 52.484375 
z
M 26.09375 46.296875 
C 35.09375 46.296875 40.40625 38.734375 40.40625 25.6875 
C 40.40625 13.25 35 5.6875 26.203125 5.6875 
C 17.09375 5.6875 11.59375 13.359375 11.59375 25.984375 
C 11.59375 38.53125 17.203125 46.296875 26.09375 46.296875 
z
" id="Nimbus_Sans_L_Regular-103"/>
      <path d="M 27.203125 54 
C 12.5 54 3.59375 43.5 3.59375 25.984375 
C 3.59375 8.484375 12.40625 -2 27.296875 -2 
C 42 -2 51 8.484375 51 25.59375 
C 51 43.609375 42.296875 54 27.203125 54 
z
M 27.296875 46.296875 
C 36.703125 46.296875 42.296875 38.625 42.296875 25.6875 
C 42.296875 13.453125 36.5 5.6875 27.296875 5.6875 
C 18 5.6875 12.296875 13.359375 12.296875 25.984375 
C 12.296875 38.53125 18 46.296875 27.296875 46.296875 
z
" id="Nimbus_Sans_L_Regular-111"/>
      <path d="M 15 52.46875 
L 6.703125 52.46875 
L 6.703125 0 
L 15 0 
z
M 15 73 
L 6.59375 73 
L 6.59375 62.484375 
L 15 62.484375 
z
" id="Nimbus_Sans_L_Regular-105"/>
     </defs>
     <g transform="translate(19.566599 271.540284)rotate(-90)scale(0.1 -0.1)">
      <use transform="scale(0.996264)" xlink:href="#Nimbus_Sans_L_Regular-112"/>
      <use transform="translate(55.391677 0)scale(0.996264)" xlink:href="#Nimbus_Sans_L_Regular-101"/>
      <use transform="translate(110.783354 0)scale(0.996264)" xlink:href="#Nimbus_Sans_L_Regular-114"/>
      <use transform="translate(143.958584 0)scale(0.996264)" xlink:href="#Nimbus_Sans_L_Regular-99"/>
      <use transform="translate(193.771784 0)scale(0.996264)" xlink:href="#Nimbus_Sans_L_Regular-101"/>
      <use transform="translate(249.163461 0)scale(0.996264)" xlink:href="#Nimbus_Sans_L_Regular-110"/>
      <use transform="translate(304.555138 0)scale(0.996264)" xlink:href="#Nimbus_Sans_L_Regular-116"/>
      <use transform="translate(332.250308 0)scale(0.996264)" xlink:href="#Nimbus_Sans_L_Regular-97"/>
      <use transform="translate(387.641985 0)scale(0.996264)" xlink:href="#Nimbus_Sans_L_Regular-103"/>
      <use transform="translate(443.033662 0)scale(0.996264)" xlink:href="#Nimbus_Sans_L_Regular-101"/>
      <use transform="translate(526.120508 0)scale(0.996264)" xlink:href="#Nimbus_Sans_L_Regular-111"/>
      <use transform="translate(581.512185 0)scale(0.996264)" xlink:href="#Nimbus_Sans_L_Regular-102"/>
      <use transform="translate(636.902524 0)scale(0.996264)" xlink:href="#Nimbus_Sans_L_Regular-99"/>
      <use transform="translate(686.715725 0)scale(0.996264)" xlink:href="#Nimbus_Sans_L_Regular-97"/>
      <use transform="translate(742.107402 0)scale(0.996264)" xlink:href="#Nimbus_Sans_L_Regular-115"/>
      <use transform="translate(791.920602 0)scale(0.996264)" xlink:href="#Nimbus_Sans_L_Regular-101"/>
      <use transform="translate(847.312279 0)scale(0.996264)" xlink:href="#Nimbus_Sans_L_Regular-115"/>
      <use transform="translate(924.820649 0)scale(0.996264)" xlink:href="#Nimbus_Sans_L_Regular-112"/>
      <use transform="translate(980.212326 0)scale(0.996264)" xlink:href="#Nimbus_Sans_L_Regular-101"/>
      <use transform="translate(1035.604003 0)scale(0.996264)" xlink:href="#Nimbus_Sans_L_Regular-114"/>
      <use transform="translate(1096.474403 0)scale(0.996264)" xlink:href="#Nimbus_Sans_L_Regular-100"/>
      <use transform="translate(1151.86608 0)scale(0.996264)" xlink:href="#Nimbus_Sans_L_Regular-97"/>
      <use transform="translate(1204.269649 0)scale(0.996264)" xlink:href="#Nimbus_Sans_L_Regular-121"/>
      <use transform="translate(1281.778019 0)scale(0.996264)" xlink:href="#Nimbus_Sans_L_Regular-111"/>
      <use transform="translate(1337.169696 0)scale(0.996264)" xlink:href="#Nimbus_Sans_L_Regular-102"/>
      <use transform="translate(1392.560035 0)scale(0.996264)" xlink:href="#Nimbus_Sans_L_Regular-114"/>
      <use transform="translate(1425.735265 0)scale(0.996264)" xlink:href="#Nimbus_Sans_L_Regular-101"/>
      <use transform="translate(1481.126942 0)scale(0.996264)" xlink:href="#Nimbus_Sans_L_Regular-112"/>
      <use transform="translate(1536.518619 0)scale(0.996264)" xlink:href="#Nimbus_Sans_L_Regular-111"/>
      <use transform="translate(1591.910295 0)scale(0.996264)" xlink:href="#Nimbus_Sans_L_Regular-114"/>
      <use transform="translate(1629.069624 0)scale(0.996264)" xlink:href="#Nimbus_Sans_L_Regular-116"/>
      <use transform="translate(1656.764793 0)scale(0.996264)" xlink:href="#Nimbus_Sans_L_Regular-105"/>
      <use transform="translate(1678.881578 0)scale(0.996264)" xlink:href="#Nimbus_Sans_L_Regular-110"/>
      <use transform="translate(1734.273254 0)scale(0.996264)" xlink:href="#Nimbus_Sans_L_Regular-103"/>
     </g>
    </g>
   </g>
   <g id="line2d_13">
    <path clip-path="url(#pfb4473c4c1)" d="M 63.247059 324.654545 
L 88.941176 190.622638 
L 114.635294 85.826014 
L 140.329412 43.641954 
L 166.023529 39.45974 
L 191.717647 49.915275 
L 217.411765 76.174751 
L 243.105882 95.396849 
L 268.8 137.058132 
L 294.494118 164.363162 
L 320.188235 183.786327 
L 345.882353 212.096697 
L 371.576471 236.828057 
L 397.270588 257.216349 
L 422.964706 266.666544 
L 448.658824 281.867282 
L 474.352941 292.403243 
L 500.047059 301.169807 
L 525.741176 305.633516 
L 551.435294 311.223205 
L 577.129412 312.831749 
L 602.823529 315.686914 
L 628.517647 318.300798 
L 654.211765 320.834254 
L 679.905882 321.437458 
L 705.6 322.24173 
L 721 322.434549 
" style="fill:none;stroke:#ff0000;stroke-linecap:square;stroke-width:1.5;"/>
   </g>
   <g id="line2d_14">
    <path clip-path="url(#pfb4473c4c1)" d="M 63.247059 324.654545 
L 88.941176 218.169834 
L 114.635294 117.469477 
L 140.329412 71.720489 
L 166.023529 57.434886 
L 191.717647 52.789874 
L 217.411765 68.828312 
L 243.105882 81.755468 
L 268.8 122.596518 
L 294.494118 150.203666 
L 320.188235 171.150041 
L 345.882353 201.999933 
L 371.576471 228.949767 
L 397.270588 251.166948 
L 422.964706 261.464852 
L 448.658824 278.029141 
L 474.352941 289.510208 
L 500.047059 299.063158 
L 525.741176 303.927274 
L 551.435294 310.018375 
L 577.129412 311.77121 
L 602.823529 314.882492 
L 628.517647 317.730848 
L 654.211765 320.491563 
L 679.905882 321.148876 
L 705.6 322.025293 
L 721 322.235409 
" style="fill:none;stroke:#0000ff;stroke-linecap:square;stroke-width:1.5;"/>
   </g>
   <g id="line2d_15">
    <path clip-path="url(#pfb4473c4c1)" d="M 63.247059 324.654545 
L 88.941176 256.366659 
L 114.635294 169.419829 
L 140.329412 117.546684 
L 166.023529 80.934117 
L 191.717647 74.201509 
L 217.411765 86.897285 
L 243.105882 91.898651 
L 268.8 121.073288 
L 294.494118 134.923226 
L 320.188235 149.606724 
L 345.882353 176.729519 
L 371.576471 204.621754 
L 397.270588 232.001028 
L 422.964706 243.799123 
L 448.658824 261.303905 
L 474.352941 276.243884 
L 500.047059 288.29846 
L 525.741176 294.646348 
L 551.435294 303.302558 
L 577.129412 305.803242 
L 602.823529 310.355767 
L 628.517647 314.523573 
L 654.211765 318.563138 
L 679.905882 319.524939 
L 705.6 320.807341 
L 721 321.114788 
" style="fill:none;stroke:#ffa500;stroke-linecap:square;stroke-width:1.5;"/>
   </g>
   <g id="patch_3">
    <path d="M 50.4 338.914286 
L 50.4 25.2 
" style="fill:none;stroke:#000000;stroke-linecap:square;stroke-linejoin:miter;stroke-width:0.8;"/>
   </g>
   <g id="patch_4">
    <path d="M 705.6 338.914286 
L 705.6 25.2 
" style="fill:none;stroke:#000000;stroke-linecap:square;stroke-linejoin:miter;stroke-width:0.8;"/>
   </g>
   <g id="patch_5">
    <path d="M 50.4 338.914286 
L 705.6 338.914286 
" style="fill:none;stroke:#000000;stroke-linecap:square;stroke-linejoin:miter;stroke-width:0.8;"/>
   </g>
   <g id="patch_6">
    <path d="M 50.4 25.2 
L 705.6 25.2 
" style="fill:none;stroke:#000000;stroke-linecap:square;stroke-linejoin:miter;stroke-width:0.8;"/>
   </g>
   <g id="legend_1">
    <g id="patch_7">
     <path d="M 499.917488 76.229654 
L 698.6 76.229654 
Q 700.6 76.229654 700.6 74.229654 
L 700.6 32.2 
Q 700.6 30.2 698.6 30.2 
L 499.917488 30.2 
Q 497.917488 30.2 497.917488 32.2 
L 497.917488 74.229654 
Q 497.917488 76.229654 499.917488 76.229654 
z
" style="fill:#ffffff;opacity:0.8;stroke:#cccccc;stroke-linejoin:miter;"/>
    </g>
    <g id="line2d_16">
     <path d="M 501.917488 37.79832 
L 521.917488 37.79832 
" style="fill:none;stroke:#ff0000;stroke-linecap:square;stroke-width:1.5;"/>
    </g>
    <g id="line2d_17"/>
    <g id="text_15">
     <!-- total n = 66935 -->
     <defs>
      <path d="M 53.40625 35 
L 5 35 
L 5 28 
L 53.40625 28 
z
M 53.40625 18 
L 5 18 
L 5 11 
L 53.40625 11 
z
" id="Nimbus_Sans_L_Regular-61"/>
      <path d="M 49.796875 52.375 
C 48.09375 64.09375 40.5 71 29.703125 71 
C 21.90625 71 14.90625 67.1875 10.703125 60.859375 
C 6.296875 53.890625 4.296875 45.109375 4.296875 32.25 
C 4.296875 20.5 6.09375 13 10.296875 6.78125 
C 14.09375 1.09375 20.296875 -2 28.09375 -2 
C 41.59375 -2 51.296875 7.96875 51.296875 21.6875 
C 51.296875 34.703125 42.296875 44 29.59375 44 
C 22.59375 44 17.09375 41.296875 13.296875 36.09375 
C 13.40625 53.484375 19 63.1875 29.09375 63.1875 
C 35.296875 63.1875 39.59375 59.25 41 52.375 
z
M 28.5 36.1875 
C 37 36.1875 42.296875 30.375 42.296875 20.984375 
C 42.296875 12.203125 36.296875 5.796875 28.203125 5.796875 
C 20 5.796875 13.796875 12.5 13.796875 21.484375 
C 13.796875 30.171875 19.796875 36.1875 28.5 36.1875 
z
" id="Nimbus_Sans_L_Regular-54"/>
      <path d="M 5.296875 16.609375 
C 7 4.890625 14.59375 -2 25.40625 -2 
C 33.203125 -2 40.296875 1.796875 44.40625 8.109375 
C 48.90625 15.09375 50.90625 23.875 50.90625 36.734375 
C 50.90625 48.484375 49.09375 55.984375 44.90625 62.203125 
C 41 67.890625 34.796875 71 27 71 
C 13.5 71 3.796875 61.03125 3.796875 47.296875 
C 3.796875 34.265625 12.796875 25 25.59375 25 
C 32.296875 25 37.203125 27.390625 41.796875 32.890625 
C 41.703125 15.5 36.09375 5.796875 26 5.796875 
C 19.796875 5.796875 15.5 9.734375 14.09375 16.609375 
z
M 26.90625 63.296875 
C 35.09375 63.296875 41.296875 56.578125 41.296875 47.5 
C 41.296875 38.90625 35.203125 32.796875 26.59375 32.796875 
C 18.09375 32.796875 12.796875 38.609375 12.796875 48 
C 12.796875 56.875 18.796875 63.296875 26.90625 63.296875 
z
" id="Nimbus_Sans_L_Regular-57"/>
      <path d="M 22.09375 32.703125 
L 23.203125 32.703125 
L 26.90625 32.796875 
C 36.59375 32.796875 41.59375 28.421875 41.59375 19.9375 
C 41.59375 11.078125 36.09375 5.796875 26.90625 5.796875 
C 17.296875 5.796875 12.59375 10.578125 12 20.84375 
L 3.203125 20.84375 
C 3.59375 15.15625 4.59375 11.46875 6.296875 8.28125 
C 9.90625 1.5 16.90625 -2 26.59375 -2 
C 41.203125 -2 50.59375 6.6875 50.59375 20.046875 
C 50.59375 29.015625 47.09375 34 38.59375 36.890625 
C 45.203125 39.46875 48.5 44.453125 48.5 51.53125 
C 48.5 63.6875 40.40625 71 26.90625 71 
C 12.59375 71 5 63.1875 4.703125 48.140625 
L 13.5 48.140625 
C 13.59375 52.4375 14 54.828125 15.09375 57.015625 
C 17.09375 60.90625 21.5 63.296875 27 63.296875 
C 34.796875 63.296875 39.5 58.703125 39.5 51.234375 
C 39.5 46.25 37.703125 43.265625 33.796875 41.671875 
C 31.40625 40.671875 28.296875 40.265625 22.09375 40.171875 
z
" id="Nimbus_Sans_L_Regular-51"/>
      <path d="M 47.59375 71 
L 11 71 
L 5.703125 32.4375 
L 13.796875 32.4375 
C 17.90625 37.296875 21.296875 39 26.796875 39 
C 36.296875 39 42.296875 32.53125 42.296875 22.09375 
C 42.296875 11.953125 36.40625 5.796875 26.796875 5.796875 
C 19.09375 5.796875 14.40625 9.671875 12.296875 17.625 
L 3.5 17.625 
C 4.703125 11.859375 5.703125 9.078125 7.796875 6.484375 
C 11.796875 1.09375 19 -2 27 -2 
C 41.296875 -2 51.296875 8.375 51.296875 23.28125 
C 51.296875 37.203125 42 46.796875 28.40625 46.796875 
C 23.40625 46.796875 19.40625 45.5 15.296875 42.5 
L 18.09375 62.296875 
L 47.59375 62.296875 
z
" id="Nimbus_Sans_L_Regular-53"/>
     </defs>
     <g transform="translate(529.917488 41.29832)scale(0.1 -0.1)">
      <use transform="scale(0.996264)" xlink:href="#Nimbus_Sans_L_Regular-116"/>
      <use transform="translate(27.69517 0)scale(0.996264)" xlink:href="#Nimbus_Sans_L_Regular-111"/>
      <use transform="translate(83.086847 0)scale(0.996264)" xlink:href="#Nimbus_Sans_L_Regular-116"/>
      <use transform="translate(110.782016 0)scale(0.996264)" xlink:href="#Nimbus_Sans_L_Regular-97"/>
      <use transform="translate(166.173693 0)scale(0.996264)" xlink:href="#Nimbus_Sans_L_Regular-108"/>
      <use transform="translate(215.985647 0)scale(0.996264)" xlink:href="#Nimbus_Sans_L_Regular-110"/>
      <use transform="translate(299.072494 0)scale(0.996264)" xlink:href="#Nimbus_Sans_L_Regular-61"/>
      <use transform="translate(384.949156 0)scale(0.996264)" xlink:href="#Nimbus_Sans_L_Regular-54"/>
      <use transform="translate(440.340833 0)scale(0.996264)" xlink:href="#Nimbus_Sans_L_Regular-54"/>
      <use transform="translate(495.73251 0)scale(0.996264)" xlink:href="#Nimbus_Sans_L_Regular-57"/>
      <use transform="translate(551.124187 0)scale(0.996264)" xlink:href="#Nimbus_Sans_L_Regular-51"/>
      <use transform="translate(606.515864 0)scale(0.996264)" xlink:href="#Nimbus_Sans_L_Regular-53"/>
     </g>
    </g>
    <g id="line2d_18">
     <path d="M 501.917488 52.202994 
L 521.917488 52.202994 
" style="fill:none;stroke:#0000ff;stroke-linecap:square;stroke-width:1.5;"/>
    </g>
    <g id="line2d_19"/>
    <g id="text_16">
     <!-- Refdate older than 10 days n = 61425 -->
     <defs>
      <path d="M 7 73 
L 7 0 
L 15.296875 0 
L 15.296875 28.953125 
C 15.296875 39.671875 20.90625 46.6875 29.5 46.6875 
C 32.203125 46.6875 34.90625 45.78125 36.90625 44.28125 
C 39.296875 42.578125 40.296875 40.078125 40.296875 36.375 
L 40.296875 0 
L 48.59375 0 
L 48.59375 39.671875 
C 48.59375 48.484375 42.296875 54 32.09375 54 
C 24.703125 54 20.203125 51.6875 15.296875 45.28125 
L 15.296875 73 
z
" id="Nimbus_Sans_L_Regular-104"/>
      <path d="M 25.90625 50.5 
L 25.90625 0 
L 34.703125 0 
L 34.703125 70.890625 
L 28.90625 70.890625 
C 25.796875 60 23.796875 58.5 10.203125 56.796875 
L 10.203125 50.5 
z
" id="Nimbus_Sans_L_Regular-49"/>
      <path d="M 27.5 71 
C 20.90625 71 14.90625 68.09375 11.203125 63.1875 
C 6.59375 57.015625 4.296875 47.546875 4.296875 34.484375 
C 4.296875 10.671875 12.296875 -2 27.5 -2 
C 42.5 -2 50.703125 10.671875 50.703125 33.890625 
C 50.703125 47.640625 48.5 56.8125 43.796875 63.1875 
C 40.09375 68.1875 34.203125 71 27.5 71 
z
M 27.5 63.1875 
C 37 63.1875 41.703125 53.625 41.703125 34.6875 
C 41.703125 14.65625 37.09375 5.296875 27.296875 5.296875 
C 18 5.296875 13.296875 15.0625 13.296875 34.390625 
C 13.296875 53.71875 18 63.1875 27.5 63.1875 
z
" id="Nimbus_Sans_L_Regular-48"/>
      <path d="M 32.703125 17 
L 32.703125 0 
L 41.5 0 
L 41.5 17 
L 52 17 
L 52 24.890625 
L 41.5 24.890625 
L 41.5 70.890625 
L 35 70.890625 
L 2.796875 26.296875 
L 2.796875 17 
z
M 32.703125 24.890625 
L 10.5 24.890625 
L 32.703125 55.890625 
z
" id="Nimbus_Sans_L_Regular-52"/>
      <path d="M 50.59375 8.6875 
L 13.296875 8.6875 
C 14.203125 14.5 17.40625 18.203125 26.09375 23.328125 
L 36.09375 28.734375 
C 46 34.140625 51.09375 41.453125 51.09375 50.171875 
C 51.09375 56.078125 48.703125 61.59375 44.5 65.390625 
C 40.296875 69.1875 35.09375 71 28.40625 71 
C 19.40625 71 12.703125 67.796875 8.796875 61.796875 
C 6.296875 57.984375 5.203125 53.578125 5 46.359375 
L 13.796875 46.359375 
C 14.09375 51.171875 14.703125 54.078125 15.90625 56.375 
C 18.203125 60.6875 22.796875 63.296875 28.09375 63.296875 
C 36.09375 63.296875 42.09375 57.578125 42.09375 49.96875 
C 42.09375 44.359375 38.796875 39.546875 32.5 35.9375 
L 23.296875 30.734375 
C 8.5 22.3125 4.203125 15.609375 3.40625 0 
L 50.59375 0 
z
" id="Nimbus_Sans_L_Regular-50"/>
     </defs>
     <g transform="translate(529.917488 55.702994)scale(0.1 -0.1)">
      <use transform="scale(0.996264)" xlink:href="#Nimbus_Sans_L_Regular-82"/>
      <use transform="translate(71.929985 0)scale(0.996264)" xlink:href="#Nimbus_Sans_L_Regular-101"/>
      <use transform="translate(127.321662 0)scale(0.996264)" xlink:href="#Nimbus_Sans_L_Regular-102"/>
      <use transform="translate(155.016831 0)scale(0.996264)" xlink:href="#Nimbus_Sans_L_Regular-100"/>
      <use transform="translate(210.408508 0)scale(0.996264)" xlink:href="#Nimbus_Sans_L_Regular-97"/>
      <use transform="translate(265.800185 0)scale(0.996264)" xlink:href="#Nimbus_Sans_L_Regular-116"/>
      <use transform="translate(293.495355 0)scale(0.996264)" xlink:href="#Nimbus_Sans_L_Regular-101"/>
      <use transform="translate(376.582202 0)scale(0.996264)" xlink:href="#Nimbus_Sans_L_Regular-111"/>
      <use transform="translate(431.973878 0)scale(0.996264)" xlink:href="#Nimbus_Sans_L_Regular-108"/>
      <use transform="translate(454.090663 0)scale(0.996264)" xlink:href="#Nimbus_Sans_L_Regular-100"/>
      <use transform="translate(509.48234 0)scale(0.996264)" xlink:href="#Nimbus_Sans_L_Regular-101"/>
      <use transform="translate(564.874017 0)scale(0.996264)" xlink:href="#Nimbus_Sans_L_Regular-114"/>
      <use transform="translate(625.744416 0)scale(0.996264)" xlink:href="#Nimbus_Sans_L_Regular-116"/>
      <use transform="translate(653.439586 0)scale(0.996264)" xlink:href="#Nimbus_Sans_L_Regular-104"/>
      <use transform="translate(708.831263 0)scale(0.996264)" xlink:href="#Nimbus_Sans_L_Regular-97"/>
      <use transform="translate(764.22294 0)scale(0.996264)" xlink:href="#Nimbus_Sans_L_Regular-110"/>
      <use transform="translate(847.309786 0)scale(0.996264)" xlink:href="#Nimbus_Sans_L_Regular-49"/>
      <use transform="translate(902.701463 0)scale(0.996264)" xlink:href="#Nimbus_Sans_L_Regular-48"/>
      <use transform="translate(985.78831 0)scale(0.996264)" xlink:href="#Nimbus_Sans_L_Regular-100"/>
      <use transform="translate(1041.179987 0)scale(0.996264)" xlink:href="#Nimbus_Sans_L_Regular-97"/>
      <use transform="translate(1093.583556 0)scale(0.996264)" xlink:href="#Nimbus_Sans_L_Regular-121"/>
      <use transform="translate(1143.396756 0)scale(0.996264)" xlink:href="#Nimbus_Sans_L_Regular-115"/>
      <use transform="translate(1220.905126 0)scale(0.996264)" xlink:href="#Nimbus_Sans_L_Regular-110"/>
      <use transform="translate(1303.991973 0)scale(0.996264)" xlink:href="#Nimbus_Sans_L_Regular-61"/>
      <use transform="translate(1389.868635 0)scale(0.996264)" xlink:href="#Nimbus_Sans_L_Regular-54"/>
      <use transform="translate(1445.260312 0)scale(0.996264)" xlink:href="#Nimbus_Sans_L_Regular-49"/>
      <use transform="translate(1500.651989 0)scale(0.996264)" xlink:href="#Nimbus_Sans_L_Regular-52"/>
      <use transform="translate(1556.043666 0)scale(0.996264)" xlink:href="#Nimbus_Sans_L_Regular-50"/>
      <use transform="translate(1611.435343 0)scale(0.996264)" xlink:href="#Nimbus_Sans_L_Regular-53"/>
     </g>
    </g>
    <g id="line2d_20">
     <path d="M 501.917488 66.607668 
L 521.917488 66.607668 
" style="fill:none;stroke:#ffa500;stroke-linecap:square;stroke-width:1.5;"/>
    </g>
    <g id="line2d_21"/>
    <g id="text_17">
     <!-- Refdate older than 20 days n = 41979 -->
     <defs>
      <path d="M 52 71 
L 4.59375 71 
L 4.59375 62.296875 
L 42.90625 62.296875 
C 26 38.15625 19.09375 23.328125 13.796875 0 
L 23.203125 0 
C 27.09375 22.71875 36 42.25 52 63.59375 
z
" id="Nimbus_Sans_L_Regular-55"/>
     </defs>
     <g transform="translate(529.917488 70.107668)scale(0.1 -0.1)">
      <use transform="scale(0.996264)" xlink:href="#Nimbus_Sans_L_Regular-82"/>
      <use transform="translate(71.929985 0)scale(0.996264)" xlink:href="#Nimbus_Sans_L_Regular-101"/>
      <use transform="translate(127.321662 0)scale(0.996264)" xlink:href="#Nimbus_Sans_L_Regular-102"/>
      <use transform="translate(155.016831 0)scale(0.996264)" xlink:href="#Nimbus_Sans_L_Regular-100"/>
      <use transform="translate(210.408508 0)scale(0.996264)" xlink:href="#Nimbus_Sans_L_Regular-97"/>
      <use transform="translate(265.800185 0)scale(0.996264)" xlink:href="#Nimbus_Sans_L_Regular-116"/>
      <use transform="translate(293.495355 0)scale(0.996264)" xlink:href="#Nimbus_Sans_L_Regular-101"/>
      <use transform="translate(376.582202 0)scale(0.996264)" xlink:href="#Nimbus_Sans_L_Regular-111"/>
      <use transform="translate(431.973878 0)scale(0.996264)" xlink:href="#Nimbus_Sans_L_Regular-108"/>
      <use transform="translate(454.090663 0)scale(0.996264)" xlink:href="#Nimbus_Sans_L_Regular-100"/>
      <use transform="translate(509.48234 0)scale(0.996264)" xlink:href="#Nimbus_Sans_L_Regular-101"/>
      <use transform="translate(564.874017 0)scale(0.996264)" xlink:href="#Nimbus_Sans_L_Regular-114"/>
      <use transform="translate(625.744416 0)scale(0.996264)" xlink:href="#Nimbus_Sans_L_Regular-116"/>
      <use transform="translate(653.439586 0)scale(0.996264)" xlink:href="#Nimbus_Sans_L_Regular-104"/>
      <use transform="translate(708.831263 0)scale(0.996264)" xlink:href="#Nimbus_Sans_L_Regular-97"/>
      <use transform="translate(764.22294 0)scale(0.996264)" xlink:href="#Nimbus_Sans_L_Regular-110"/>
      <use transform="translate(847.309786 0)scale(0.996264)" xlink:href="#Nimbus_Sans_L_Regular-50"/>
      <use transform="translate(902.701463 0)scale(0.996264)" xlink:href="#Nimbus_Sans_L_Regular-48"/>
      <use transform="translate(985.78831 0)scale(0.996264)" xlink:href="#Nimbus_Sans_L_Regular-100"/>
      <use transform="translate(1041.179987 0)scale(0.996264)" xlink:href="#Nimbus_Sans_L_Regular-97"/>
      <use transform="translate(1093.583556 0)scale(0.996264)" xlink:href="#Nimbus_Sans_L_Regular-121"/>
      <use transform="translate(1143.396756 0)scale(0.996264)" xlink:href="#Nimbus_Sans_L_Regular-115"/>
      <use transform="translate(1220.905126 0)scale(0.996264)" xlink:href="#Nimbus_Sans_L_Regular-110"/>
      <use transform="translate(1303.991973 0)scale(0.996264)" xlink:href="#Nimbus_Sans_L_Regular-61"/>
      <use transform="translate(1389.868635 0)scale(0.996264)" xlink:href="#Nimbus_Sans_L_Regular-52"/>
      <use transform="translate(1445.260312 0)scale(0.996264)" xlink:href="#Nimbus_Sans_L_Regular-49"/>
      <use transform="translate(1500.651989 0)scale(0.996264)" xlink:href="#Nimbus_Sans_L_Regular-57"/>
      <use transform="translate(1556.043666 0)scale(0.996264)" xlink:href="#Nimbus_Sans_L_Regular-55"/>
      <use transform="translate(1611.435343 0)scale(0.996264)" xlink:href="#Nimbus_Sans_L_Regular-57"/>
     </g>
    </g>
   </g>
  </g>
  <g id="axes_2">
   <g id="patch_8">
    <path d="M 50.4 684 
L 705.6 684 
L 705.6 370.285714 
L 50.4 370.285714 
z
" style="fill:#ffffff;"/>
   </g>
   <g id="matplotlib.axis_3">
    <g id="xtick_7">
     <g id="line2d_22">
      <g>
       <use style="stroke:#000000;stroke-width:0.8;" x="63.247059" xlink:href="#m4beba37d97" y="684"/>
      </g>
     </g>
     <g id="text_18">
      <!-- $0$ -->
      <g transform="translate(60.756391 698.09832)scale(0.1 -0.1)">
       <use transform="scale(0.996264)" xlink:href="#CMR17-48"/>
      </g>
     </g>
    </g>
    <g id="xtick_8">
     <g id="line2d_23">
      <g>
       <use style="stroke:#000000;stroke-width:0.8;" x="191.717647" xlink:href="#m4beba37d97" y="684"/>
      </g>
     </g>
     <g id="text_19">
      <!-- $5$ -->
      <g transform="translate(189.226979 698.09832)scale(0.1 -0.1)">
       <use transform="scale(0.996264)" xlink:href="#CMR17-53"/>
      </g>
     </g>
    </g>
    <g id="xtick_9">
     <g id="line2d_24">
      <g>
       <use style="stroke:#000000;stroke-width:0.8;" x="320.188235" xlink:href="#m4beba37d97" y="684"/>
      </g>
     </g>
     <g id="text_20">
      <!-- $10$ -->
      <g transform="translate(315.2069 698.09832)scale(0.1 -0.1)">
       <use transform="scale(0.996264)" xlink:href="#CMR17-49"/>
       <use transform="translate(45.690477 0)scale(0.996264)" xlink:href="#CMR17-48"/>
      </g>
     </g>
    </g>
    <g id="xtick_10">
     <g id="line2d_25">
      <g>
       <use style="stroke:#000000;stroke-width:0.8;" x="448.658824" xlink:href="#m4beba37d97" y="684"/>
      </g>
     </g>
     <g id="text_21">
      <!-- $15$ -->
      <g transform="translate(443.677488 698.09832)scale(0.1 -0.1)">
       <use transform="scale(0.996264)" xlink:href="#CMR17-49"/>
       <use transform="translate(45.690477 0)scale(0.996264)" xlink:href="#CMR17-53"/>
      </g>
     </g>
    </g>
    <g id="xtick_11">
     <g id="line2d_26">
      <g>
       <use style="stroke:#000000;stroke-width:0.8;" x="577.129412" xlink:href="#m4beba37d97" y="684"/>
      </g>
     </g>
     <g id="text_22">
      <!-- $20$ -->
      <g transform="translate(572.148077 698.09832)scale(0.1 -0.1)">
       <use transform="scale(0.996264)" xlink:href="#CMR17-50"/>
       <use transform="translate(45.690477 0)scale(0.996264)" xlink:href="#CMR17-48"/>
      </g>
     </g>
    </g>
    <g id="xtick_12">
     <g id="line2d_27">
      <g>
       <use style="stroke:#000000;stroke-width:0.8;" x="705.6" xlink:href="#m4beba37d97" y="684"/>
      </g>
     </g>
     <g id="text_23">
      <!-- $25$ -->
      <g transform="translate(700.618665 698.09832)scale(0.1 -0.1)">
       <use transform="scale(0.996264)" xlink:href="#CMR17-50"/>
       <use transform="translate(45.690477 0)scale(0.996264)" xlink:href="#CMR17-53"/>
      </g>
     </g>
    </g>
   </g>
   <g id="matplotlib.axis_4">
    <g id="ytick_7">
     <g id="line2d_28">
      <g>
       <use style="stroke:#000000;stroke-width:0.8;" x="50.4" xlink:href="#m70381e3bcc" y="669.74026"/>
      </g>
     </g>
     <g id="text_24">
      <!-- $0.0$ -->
      <g transform="translate(30.669921 673.28942)scale(0.1 -0.1)">
       <use transform="scale(0.996264)" xlink:href="#CMR17-48"/>
       <use transform="translate(45.690477 0)scale(0.996264)" xlink:href="#CMMI12-58"/>
       <use transform="translate(72.787654 0)scale(0.996264)" xlink:href="#CMR17-48"/>
      </g>
     </g>
    </g>
    <g id="ytick_8">
     <g id="line2d_29">
      <g>
       <use style="stroke:#000000;stroke-width:0.8;" x="50.4" xlink:href="#m70381e3bcc" y="612.701299"/>
      </g>
     </g>
     <g id="text_25">
      <!-- $0.2$ -->
      <g transform="translate(30.669921 616.250459)scale(0.1 -0.1)">
       <use transform="scale(0.996264)" xlink:href="#CMR17-48"/>
       <use transform="translate(45.690477 0)scale(0.996264)" xlink:href="#CMMI12-58"/>
       <use transform="translate(72.787654 0)scale(0.996264)" xlink:href="#CMR17-50"/>
      </g>
     </g>
    </g>
    <g id="ytick_9">
     <g id="line2d_30">
      <g>
       <use style="stroke:#000000;stroke-width:0.8;" x="50.4" xlink:href="#m70381e3bcc" y="555.662338"/>
      </g>
     </g>
     <g id="text_26">
      <!-- $0.4$ -->
      <g transform="translate(30.669921 559.211498)scale(0.1 -0.1)">
       <use transform="scale(0.996264)" xlink:href="#CMR17-48"/>
       <use transform="translate(45.690477 0)scale(0.996264)" xlink:href="#CMMI12-58"/>
       <use transform="translate(72.787654 0)scale(0.996264)" xlink:href="#CMR17-52"/>
      </g>
     </g>
    </g>
    <g id="ytick_10">
     <g id="line2d_31">
      <g>
       <use style="stroke:#000000;stroke-width:0.8;" x="50.4" xlink:href="#m70381e3bcc" y="498.623377"/>
      </g>
     </g>
     <g id="text_27">
      <!-- $0.6$ -->
      <g transform="translate(30.669921 502.172537)scale(0.1 -0.1)">
       <use transform="scale(0.996264)" xlink:href="#CMR17-48"/>
       <use transform="translate(45.690477 0)scale(0.996264)" xlink:href="#CMMI12-58"/>
       <use transform="translate(72.787654 0)scale(0.996264)" xlink:href="#CMR17-54"/>
      </g>
     </g>
    </g>
    <g id="ytick_11">
     <g id="line2d_32">
      <g>
       <use style="stroke:#000000;stroke-width:0.8;" x="50.4" xlink:href="#m70381e3bcc" y="441.584416"/>
      </g>
     </g>
     <g id="text_28">
      <!-- $0.8$ -->
      <g transform="translate(30.669921 445.133576)scale(0.1 -0.1)">
       <use transform="scale(0.996264)" xlink:href="#CMR17-48"/>
       <use transform="translate(45.690477 0)scale(0.996264)" xlink:href="#CMMI12-58"/>
       <use transform="translate(72.787654 0)scale(0.996264)" xlink:href="#CMR17-56"/>
      </g>
     </g>
    </g>
    <g id="ytick_12">
     <g id="line2d_33">
      <g>
       <use style="stroke:#000000;stroke-width:0.8;" x="50.4" xlink:href="#m70381e3bcc" y="384.545455"/>
      </g>
     </g>
     <g id="text_29">
      <!-- $1.0$ -->
      <g transform="translate(30.669921 388.094615)scale(0.1 -0.1)">
       <use transform="scale(0.996264)" xlink:href="#CMR17-49"/>
       <use transform="translate(45.690477 0)scale(0.996264)" xlink:href="#CMMI12-58"/>
       <use transform="translate(72.787654 0)scale(0.996264)" xlink:href="#CMR17-48"/>
      </g>
     </g>
    </g>
    <g id="text_30">
     <!-- percentage after days -->
     <g transform="translate(24.547935 575.172113)rotate(-90)scale(0.1 -0.1)">
      <use transform="scale(0.996264)" xlink:href="#Nimbus_Sans_L_Regular-112"/>
      <use transform="translate(55.391677 0)scale(0.996264)" xlink:href="#Nimbus_Sans_L_Regular-101"/>
      <use transform="translate(110.783354 0)scale(0.996264)" xlink:href="#Nimbus_Sans_L_Regular-114"/>
      <use transform="translate(143.958584 0)scale(0.996264)" xlink:href="#Nimbus_Sans_L_Regular-99"/>
      <use transform="translate(193.771784 0)scale(0.996264)" xlink:href="#Nimbus_Sans_L_Regular-101"/>
      <use transform="translate(249.163461 0)scale(0.996264)" xlink:href="#Nimbus_Sans_L_Regular-110"/>
      <use transform="translate(304.555138 0)scale(0.996264)" xlink:href="#Nimbus_Sans_L_Regular-116"/>
      <use transform="translate(332.250308 0)scale(0.996264)" xlink:href="#Nimbus_Sans_L_Regular-97"/>
      <use transform="translate(387.641985 0)scale(0.996264)" xlink:href="#Nimbus_Sans_L_Regular-103"/>
      <use transform="translate(443.033662 0)scale(0.996264)" xlink:href="#Nimbus_Sans_L_Regular-101"/>
      <use transform="translate(526.120508 0)scale(0.996264)" xlink:href="#Nimbus_Sans_L_Regular-97"/>
      <use transform="translate(581.512185 0)scale(0.996264)" xlink:href="#Nimbus_Sans_L_Regular-102"/>
      <use transform="translate(609.207355 0)scale(0.996264)" xlink:href="#Nimbus_Sans_L_Regular-116"/>
      <use transform="translate(636.902524 0)scale(0.996264)" xlink:href="#Nimbus_Sans_L_Regular-101"/>
      <use transform="translate(692.294201 0)scale(0.996264)" xlink:href="#Nimbus_Sans_L_Regular-114"/>
      <use transform="translate(753.164601 0)scale(0.996264)" xlink:href="#Nimbus_Sans_L_Regular-100"/>
      <use transform="translate(808.556278 0)scale(0.996264)" xlink:href="#Nimbus_Sans_L_Regular-97"/>
      <use transform="translate(860.959847 0)scale(0.996264)" xlink:href="#Nimbus_Sans_L_Regular-121"/>
      <use transform="translate(910.773047 0)scale(0.996264)" xlink:href="#Nimbus_Sans_L_Regular-115"/>
     </g>
    </g>
   </g>
   <g id="line2d_34">
    <path clip-path="url(#ped0310f3c4)" d="M 63.247059 669.74026 
L 88.941176 655.539105 
L 114.635294 630.234377 
L 140.329412 600.460099 
L 166.023529 570.242701 
L 191.717647 541.133104 
L 217.411765 514.80579 
L 243.105882 490.515127 
L 268.8 470.638623 
L 294.494118 453.655184 
L 320.188235 438.729698 
L 345.882353 426.803796 
L 371.576471 417.498269 
L 397.270588 410.352953 
L 422.964706 404.208919 
L 448.658824 399.675458 
L 474.352941 396.258318 
L 500.047059 393.770027 
L 525.741176 391.754682 
L 551.435294 390.331584 
L 577.129412 389.078916 
L 602.823529 388.128764 
L 628.517647 387.455562 
L 654.211765 387.050789 
L 679.905882 386.709927 
L 705.6 386.454281 
L 721 386.321487 
" style="fill:none;stroke:#ff0000;stroke-linecap:square;stroke-width:1.5;"/>
   </g>
   <g id="line2d_35">
    <path clip-path="url(#ped0310f3c4)" d="M 63.247059 669.74026 
L 88.941176 658.457828 
L 114.635294 636.505837 
L 140.329412 609.706579 
L 166.023529 581.393711 
L 191.717647 552.588688 
L 217.411765 525.482993 
L 243.105882 499.746977 
L 268.8 478.338214 
L 294.494118 459.854526 
L 320.188235 443.590181 
L 345.882353 430.594491 
L 371.576471 420.454231 
L 397.270588 412.667961 
L 422.964706 405.972789 
L 448.658824 401.032663 
L 474.352941 397.308996 
L 500.047059 394.597498 
L 525.741176 392.40137 
L 551.435294 390.850616 
L 577.129412 389.485581 
L 602.823529 388.450197 
L 628.517647 387.716607 
L 654.211765 387.275524 
L 679.905882 386.904086 
L 705.6 386.625508 
L 721 386.480802 
" style="fill:none;stroke:#0000ff;stroke-linecap:square;stroke-width:1.5;"/>
   </g>
   <g id="line2d_36">
    <path clip-path="url(#ped0310f3c4)" d="M 63.247059 669.74026 
L 88.941176 662.504917 
L 114.635294 646.057249 
L 140.329412 624.113439 
L 166.023529 598.290398 
L 191.717647 571.754012 
L 217.411765 546.56279 
L 243.105882 521.901479 
L 268.8 500.331325 
L 294.494118 480.228621 
L 320.188235 461.681685 
L 345.882353 446.008505 
L 371.576471 433.290606 
L 397.270588 423.473638 
L 422.964706 414.906721 
L 448.658824 408.194496 
L 474.352941 403.065215 
L 500.047059 399.213159 
L 525.741176 396.033685 
L 551.435294 393.771366 
L 577.129412 391.774004 
L 602.823529 390.258998 
L 628.517647 389.185585 
L 654.211765 388.540179 
L 679.905882 387.996679 
L 705.6 387.589054 
L 721 387.377316 
" style="fill:none;stroke:#ffa500;stroke-linecap:square;stroke-width:1.5;"/>
   </g>
   <g id="patch_9">
    <path d="M 50.4 684 
L 50.4 370.285714 
" style="fill:none;stroke:#000000;stroke-linecap:square;stroke-linejoin:miter;stroke-width:0.8;"/>
   </g>
   <g id="patch_10">
    <path d="M 705.6 684 
L 705.6 370.285714 
" style="fill:none;stroke:#000000;stroke-linecap:square;stroke-linejoin:miter;stroke-width:0.8;"/>
   </g>
   <g id="patch_11">
    <path d="M 50.4 684 
L 705.6 684 
" style="fill:none;stroke:#000000;stroke-linecap:square;stroke-linejoin:miter;stroke-width:0.8;"/>
   </g>
   <g id="patch_12">
    <path d="M 50.4 370.285714 
L 705.6 370.285714 
" style="fill:none;stroke:#000000;stroke-linecap:square;stroke-linejoin:miter;stroke-width:0.8;"/>
   </g>
  </g>
 </g>
 <defs>
  <clipPath id="pfb4473c4c1">
   <rect height="313.714286" width="655.2" x="50.4" y="25.2"/>
  </clipPath>
  <clipPath id="ped0310f3c4">
   <rect height="313.714286" width="655.2" x="50.4" y="370.285714"/>
  </clipPath>
 </defs>
</svg>
