<?xml version="1.0" encoding="utf-8" standalone="no"?>
<!DOCTYPE svg PUBLIC "-//W3C//DTD SVG 1.1//EN"
  "http://www.w3.org/Graphics/SVG/1.1/DTD/svg11.dtd">
<!-- Created with matplotlib (https://matplotlib.org/) -->
<svg height="504pt" version="1.1" viewBox="0 0 720 504" width="720pt" xmlns="http://www.w3.org/2000/svg" xmlns:xlink="http://www.w3.org/1999/xlink">
 <defs>
  <style type="text/css">
*{stroke-linecap:butt;stroke-linejoin:round;}
  </style>
 </defs>
 <g id="figure_1">
  <g id="patch_1">
   <path d="M 0 504 
L 720 504 
L 720 0 
L 0 0 
z
" style="fill:#ffffff;"/>
  </g>
  <g id="axes_1">
   <g id="patch_2">
    <path d="M 50.4 478.8 
L 705.6 478.8 
L 705.6 17.64 
L 50.4 17.64 
z
" style="fill:#ffffff;"/>
   </g>
   <g id="matplotlib.axis_1">
    <g id="xtick_1">
     <g id="line2d_1">
      <defs>
       <path d="M 0 0 
L 0 3.5 
" id="m408a160096" style="stroke:#000000;stroke-width:0.8;"/>
      </defs>
      <g>
       <use style="stroke:#000000;stroke-width:0.8;" x="72.24" xlink:href="#m408a160096" y="478.8"/>
      </g>
     </g>
     <g id="text_1">
      <!-- 2020-02-15 -->
      <defs>
       <path d="M 50.59375 8.6875 
L 13.296875 8.6875 
C 14.203125 14.5 17.40625 18.203125 26.09375 23.328125 
L 36.09375 28.734375 
C 46 34.140625 51.09375 41.453125 51.09375 50.171875 
C 51.09375 56.078125 48.703125 61.59375 44.5 65.390625 
C 40.296875 69.1875 35.09375 71 28.40625 71 
C 19.40625 71 12.703125 67.796875 8.796875 61.796875 
C 6.296875 57.984375 5.203125 53.578125 5 46.359375 
L 13.796875 46.359375 
C 14.09375 51.171875 14.703125 54.078125 15.90625 56.375 
C 18.203125 60.6875 22.796875 63.296875 28.09375 63.296875 
C 36.09375 63.296875 42.09375 57.578125 42.09375 49.96875 
C 42.09375 44.359375 38.796875 39.546875 32.5 35.9375 
L 23.296875 30.734375 
C 8.5 22.3125 4.203125 15.609375 3.40625 0 
L 50.59375 0 
z
" id="Nimbus_Sans_L_Regular-50"/>
       <path d="M 27.5 71 
C 20.90625 71 14.90625 68.09375 11.203125 63.1875 
C 6.59375 57.015625 4.296875 47.546875 4.296875 34.484375 
C 4.296875 10.671875 12.296875 -2 27.5 -2 
C 42.5 -2 50.703125 10.671875 50.703125 33.890625 
C 50.703125 47.640625 48.5 56.8125 43.796875 63.1875 
C 40.09375 68.1875 34.203125 71 27.5 71 
z
M 27.5 63.1875 
C 37 63.1875 41.703125 53.625 41.703125 34.6875 
C 41.703125 14.65625 37.09375 5.296875 27.296875 5.296875 
C 18 5.296875 13.296875 15.0625 13.296875 34.390625 
C 13.296875 53.71875 18 63.1875 27.5 63.1875 
z
" id="Nimbus_Sans_L_Regular-48"/>
       <path d="M 28.40625 31.1875 
L 4.59375 31.1875 
L 4.59375 24 
L 28.40625 24 
z
" id="Nimbus_Sans_L_Regular-45"/>
       <path d="M 25.90625 50.5 
L 25.90625 0 
L 34.703125 0 
L 34.703125 70.890625 
L 28.90625 70.890625 
C 25.796875 60 23.796875 58.5 10.203125 56.796875 
L 10.203125 50.5 
z
" id="Nimbus_Sans_L_Regular-49"/>
       <path d="M 47.59375 71 
L 11 71 
L 5.703125 32.4375 
L 13.796875 32.4375 
C 17.90625 37.296875 21.296875 39 26.796875 39 
C 36.296875 39 42.296875 32.53125 42.296875 22.09375 
C 42.296875 11.953125 36.40625 5.796875 26.796875 5.796875 
C 19.09375 5.796875 14.40625 9.671875 12.296875 17.625 
L 3.5 17.625 
C 4.703125 11.859375 5.703125 9.078125 7.796875 6.484375 
C 11.796875 1.09375 19 -2 27 -2 
C 41.296875 -2 51.296875 8.375 51.296875 23.28125 
C 51.296875 37.203125 42 46.796875 28.40625 46.796875 
C 23.40625 46.796875 19.40625 45.5 15.296875 42.5 
L 18.09375 62.296875 
L 47.59375 62.296875 
z
" id="Nimbus_Sans_L_Regular-53"/>
      </defs>
      <g transform="translate(46.765826 492.89832)scale(0.1 -0.1)">
       <use transform="scale(0.996264)" xlink:href="#Nimbus_Sans_L_Regular-50"/>
       <use transform="translate(55.391677 0)scale(0.996264)" xlink:href="#Nimbus_Sans_L_Regular-48"/>
       <use transform="translate(110.783354 0)scale(0.996264)" xlink:href="#Nimbus_Sans_L_Regular-50"/>
       <use transform="translate(166.175031 0)scale(0.996264)" xlink:href="#Nimbus_Sans_L_Regular-48"/>
       <use transform="translate(221.566708 0)scale(0.996264)" xlink:href="#Nimbus_Sans_L_Regular-45"/>
       <use transform="translate(254.741938 0)scale(0.996264)" xlink:href="#Nimbus_Sans_L_Regular-48"/>
       <use transform="translate(310.133615 0)scale(0.996264)" xlink:href="#Nimbus_Sans_L_Regular-50"/>
       <use transform="translate(365.525292 0)scale(0.996264)" xlink:href="#Nimbus_Sans_L_Regular-45"/>
       <use transform="translate(398.700521 0)scale(0.996264)" xlink:href="#Nimbus_Sans_L_Regular-49"/>
       <use transform="translate(454.092198 0)scale(0.996264)" xlink:href="#Nimbus_Sans_L_Regular-53"/>
      </g>
     </g>
    </g>
    <g id="xtick_2">
     <g id="line2d_2">
      <g>
       <use style="stroke:#000000;stroke-width:0.8;" x="191.367273" xlink:href="#m408a160096" y="478.8"/>
      </g>
     </g>
     <g id="text_2">
      <!-- 2020-03-01 -->
      <defs>
       <path d="M 22.09375 32.703125 
L 23.203125 32.703125 
L 26.90625 32.796875 
C 36.59375 32.796875 41.59375 28.421875 41.59375 19.9375 
C 41.59375 11.078125 36.09375 5.796875 26.90625 5.796875 
C 17.296875 5.796875 12.59375 10.578125 12 20.84375 
L 3.203125 20.84375 
C 3.59375 15.15625 4.59375 11.46875 6.296875 8.28125 
C 9.90625 1.5 16.90625 -2 26.59375 -2 
C 41.203125 -2 50.59375 6.6875 50.59375 20.046875 
C 50.59375 29.015625 47.09375 34 38.59375 36.890625 
C 45.203125 39.46875 48.5 44.453125 48.5 51.53125 
C 48.5 63.6875 40.40625 71 26.90625 71 
C 12.59375 71 5 63.1875 4.703125 48.140625 
L 13.5 48.140625 
C 13.59375 52.4375 14 54.828125 15.09375 57.015625 
C 17.09375 60.90625 21.5 63.296875 27 63.296875 
C 34.796875 63.296875 39.5 58.703125 39.5 51.234375 
C 39.5 46.25 37.703125 43.265625 33.796875 41.671875 
C 31.40625 40.671875 28.296875 40.265625 22.09375 40.171875 
z
" id="Nimbus_Sans_L_Regular-51"/>
      </defs>
      <g transform="translate(165.893099 492.89832)scale(0.1 -0.1)">
       <use transform="scale(0.996264)" xlink:href="#Nimbus_Sans_L_Regular-50"/>
       <use transform="translate(55.391677 0)scale(0.996264)" xlink:href="#Nimbus_Sans_L_Regular-48"/>
       <use transform="translate(110.783354 0)scale(0.996264)" xlink:href="#Nimbus_Sans_L_Regular-50"/>
       <use transform="translate(166.175031 0)scale(0.996264)" xlink:href="#Nimbus_Sans_L_Regular-48"/>
       <use transform="translate(221.566708 0)scale(0.996264)" xlink:href="#Nimbus_Sans_L_Regular-45"/>
       <use transform="translate(254.741938 0)scale(0.996264)" xlink:href="#Nimbus_Sans_L_Regular-48"/>
       <use transform="translate(310.133615 0)scale(0.996264)" xlink:href="#Nimbus_Sans_L_Regular-51"/>
       <use transform="translate(365.525292 0)scale(0.996264)" xlink:href="#Nimbus_Sans_L_Regular-45"/>
       <use transform="translate(398.700521 0)scale(0.996264)" xlink:href="#Nimbus_Sans_L_Regular-48"/>
       <use transform="translate(454.092198 0)scale(0.996264)" xlink:href="#Nimbus_Sans_L_Regular-49"/>
      </g>
     </g>
    </g>
    <g id="xtick_3">
     <g id="line2d_3">
      <g>
       <use style="stroke:#000000;stroke-width:0.8;" x="302.552727" xlink:href="#m408a160096" y="478.8"/>
      </g>
     </g>
     <g id="text_3">
      <!-- 2020-03-15 -->
      <g transform="translate(277.078553 492.89832)scale(0.1 -0.1)">
       <use transform="scale(0.996264)" xlink:href="#Nimbus_Sans_L_Regular-50"/>
       <use transform="translate(55.391677 0)scale(0.996264)" xlink:href="#Nimbus_Sans_L_Regular-48"/>
       <use transform="translate(110.783354 0)scale(0.996264)" xlink:href="#Nimbus_Sans_L_Regular-50"/>
       <use transform="translate(166.175031 0)scale(0.996264)" xlink:href="#Nimbus_Sans_L_Regular-48"/>
       <use transform="translate(221.566708 0)scale(0.996264)" xlink:href="#Nimbus_Sans_L_Regular-45"/>
       <use transform="translate(254.741938 0)scale(0.996264)" xlink:href="#Nimbus_Sans_L_Regular-48"/>
       <use transform="translate(310.133615 0)scale(0.996264)" xlink:href="#Nimbus_Sans_L_Regular-51"/>
       <use transform="translate(365.525292 0)scale(0.996264)" xlink:href="#Nimbus_Sans_L_Regular-45"/>
       <use transform="translate(398.700521 0)scale(0.996264)" xlink:href="#Nimbus_Sans_L_Regular-49"/>
       <use transform="translate(454.092198 0)scale(0.996264)" xlink:href="#Nimbus_Sans_L_Regular-53"/>
      </g>
     </g>
    </g>
    <g id="xtick_4">
     <g id="line2d_4">
      <g>
       <use style="stroke:#000000;stroke-width:0.8;" x="437.563636" xlink:href="#m408a160096" y="478.8"/>
      </g>
     </g>
     <g id="text_4">
      <!-- 2020-04-01 -->
      <defs>
       <path d="M 32.703125 17 
L 32.703125 0 
L 41.5 0 
L 41.5 17 
L 52 17 
L 52 24.890625 
L 41.5 24.890625 
L 41.5 70.890625 
L 35 70.890625 
L 2.796875 26.296875 
L 2.796875 17 
z
M 32.703125 24.890625 
L 10.5 24.890625 
L 32.703125 55.890625 
z
" id="Nimbus_Sans_L_Regular-52"/>
      </defs>
      <g transform="translate(412.089462 492.89832)scale(0.1 -0.1)">
       <use transform="scale(0.996264)" xlink:href="#Nimbus_Sans_L_Regular-50"/>
       <use transform="translate(55.391677 0)scale(0.996264)" xlink:href="#Nimbus_Sans_L_Regular-48"/>
       <use transform="translate(110.783354 0)scale(0.996264)" xlink:href="#Nimbus_Sans_L_Regular-50"/>
       <use transform="translate(166.175031 0)scale(0.996264)" xlink:href="#Nimbus_Sans_L_Regular-48"/>
       <use transform="translate(221.566708 0)scale(0.996264)" xlink:href="#Nimbus_Sans_L_Regular-45"/>
       <use transform="translate(254.741938 0)scale(0.996264)" xlink:href="#Nimbus_Sans_L_Regular-48"/>
       <use transform="translate(310.133615 0)scale(0.996264)" xlink:href="#Nimbus_Sans_L_Regular-52"/>
       <use transform="translate(365.525292 0)scale(0.996264)" xlink:href="#Nimbus_Sans_L_Regular-45"/>
       <use transform="translate(398.700521 0)scale(0.996264)" xlink:href="#Nimbus_Sans_L_Regular-48"/>
       <use transform="translate(454.092198 0)scale(0.996264)" xlink:href="#Nimbus_Sans_L_Regular-49"/>
      </g>
     </g>
    </g>
    <g id="xtick_5">
     <g id="line2d_5">
      <g>
       <use style="stroke:#000000;stroke-width:0.8;" x="548.749091" xlink:href="#m408a160096" y="478.8"/>
      </g>
     </g>
     <g id="text_5">
      <!-- 2020-04-15 -->
      <g transform="translate(523.274917 492.89832)scale(0.1 -0.1)">
       <use transform="scale(0.996264)" xlink:href="#Nimbus_Sans_L_Regular-50"/>
       <use transform="translate(55.391677 0)scale(0.996264)" xlink:href="#Nimbus_Sans_L_Regular-48"/>
       <use transform="translate(110.783354 0)scale(0.996264)" xlink:href="#Nimbus_Sans_L_Regular-50"/>
       <use transform="translate(166.175031 0)scale(0.996264)" xlink:href="#Nimbus_Sans_L_Regular-48"/>
       <use transform="translate(221.566708 0)scale(0.996264)" xlink:href="#Nimbus_Sans_L_Regular-45"/>
       <use transform="translate(254.741938 0)scale(0.996264)" xlink:href="#Nimbus_Sans_L_Regular-48"/>
       <use transform="translate(310.133615 0)scale(0.996264)" xlink:href="#Nimbus_Sans_L_Regular-52"/>
       <use transform="translate(365.525292 0)scale(0.996264)" xlink:href="#Nimbus_Sans_L_Regular-45"/>
       <use transform="translate(398.700521 0)scale(0.996264)" xlink:href="#Nimbus_Sans_L_Regular-49"/>
       <use transform="translate(454.092198 0)scale(0.996264)" xlink:href="#Nimbus_Sans_L_Regular-53"/>
      </g>
     </g>
    </g>
    <g id="xtick_6">
     <g id="line2d_6">
      <g>
       <use style="stroke:#000000;stroke-width:0.8;" x="675.818182" xlink:href="#m408a160096" y="478.8"/>
      </g>
     </g>
     <g id="text_6">
      <!-- 2020-05-01 -->
      <g transform="translate(650.344008 492.89832)scale(0.1 -0.1)">
       <use transform="scale(0.996264)" xlink:href="#Nimbus_Sans_L_Regular-50"/>
       <use transform="translate(55.391677 0)scale(0.996264)" xlink:href="#Nimbus_Sans_L_Regular-48"/>
       <use transform="translate(110.783354 0)scale(0.996264)" xlink:href="#Nimbus_Sans_L_Regular-50"/>
       <use transform="translate(166.175031 0)scale(0.996264)" xlink:href="#Nimbus_Sans_L_Regular-48"/>
       <use transform="translate(221.566708 0)scale(0.996264)" xlink:href="#Nimbus_Sans_L_Regular-45"/>
       <use transform="translate(254.741938 0)scale(0.996264)" xlink:href="#Nimbus_Sans_L_Regular-48"/>
       <use transform="translate(310.133615 0)scale(0.996264)" xlink:href="#Nimbus_Sans_L_Regular-53"/>
       <use transform="translate(365.525292 0)scale(0.996264)" xlink:href="#Nimbus_Sans_L_Regular-45"/>
       <use transform="translate(398.700521 0)scale(0.996264)" xlink:href="#Nimbus_Sans_L_Regular-48"/>
       <use transform="translate(454.092198 0)scale(0.996264)" xlink:href="#Nimbus_Sans_L_Regular-49"/>
      </g>
     </g>
    </g>
   </g>
   <g id="matplotlib.axis_2">
    <g id="ytick_1">
     <g id="line2d_7">
      <defs>
       <path d="M 0 0 
L -3.5 0 
" id="mb27c9ae8eb" style="stroke:#000000;stroke-width:0.8;"/>
      </defs>
      <g>
       <use style="stroke:#000000;stroke-width:0.8;" x="50.4" xlink:href="#mb27c9ae8eb" y="457.838182"/>
      </g>
     </g>
     <g id="text_7">
      <!-- $0$ -->
      <defs>
       <path d="M 42 31.84375 
C 42 37.96875 41.90625 48.421875 37.703125 56.453125 
C 34 63.484375 28.09375 66 22.90625 66 
C 18.09375 66 12 63.78125 8.203125 56.5625 
C 4.203125 49.015625 3.796875 39.671875 3.796875 31.84375 
C 3.796875 26.109375 3.90625 17.375 7 9.734375 
C 11.296875 -0.609375 19 -2 22.90625 -2 
C 27.5 -2 34.5 -0.109375 38.59375 9.4375 
C 41.59375 16.375 42 24.5 42 31.84375 
z
M 22.90625 -0.40625 
C 16.5 -0.40625 12.703125 5.125 11.296875 12.75 
C 10.203125 18.6875 10.203125 27.328125 10.203125 32.953125 
C 10.203125 40.6875 10.203125 47.109375 11.5 53.234375 
C 13.40625 61.78125 19 64.390625 22.90625 64.390625 
C 27 64.390625 32.296875 61.671875 34.203125 53.4375 
C 35.5 47.71875 35.59375 40.984375 35.59375 32.953125 
C 35.59375 26.421875 35.59375 18.375 34.40625 12.453125 
C 32.296875 1.5 26.40625 -0.40625 22.90625 -0.40625 
z
" id="CMR17-48"/>
      </defs>
      <g transform="translate(38.418665 461.387342)scale(0.1 -0.1)">
       <use transform="scale(0.996264)" xlink:href="#CMR17-48"/>
      </g>
     </g>
    </g>
    <g id="ytick_2">
     <g id="line2d_8">
      <g>
       <use style="stroke:#000000;stroke-width:0.8;" x="50.4" xlink:href="#mb27c9ae8eb" y="371.468927"/>
      </g>
     </g>
     <g id="text_8">
      <!-- $500$ -->
      <defs>
       <path d="M 11.40625 58.59375 
C 12.40625 58.1875 16.5 56.890625 20.703125 56.890625 
C 30 56.890625 35.09375 61.890625 38 64.6875 
C 38 65.484375 38 66 37.40625 66 
C 37.296875 66 37.09375 66 36.296875 65.59375 
C 32.796875 64.09375 28.703125 63 23.703125 63 
C 20.703125 63 16.203125 63.359375 11.296875 65.484375 
C 10.203125 66 10 66 9.90625 66 
C 9.40625 66 9.296875 65.890625 9.296875 63.90625 
L 9.296875 34.859375 
C 9.296875 33.015625 9.296875 32.5 10.296875 32.5 
C 10.796875 32.5 11 32.703125 11.5 33.421875 
C 14.703125 38.046875 19.09375 40 24.09375 40 
C 27.59375 40 35.09375 37.734375 35.09375 20.203125 
C 35.09375 16.984375 35.09375 11.1875 32.09375 6.59375 
C 29.59375 2.484375 25.703125 0.390625 21.40625 0.390625 
C 14.796875 0.390625 8.09375 4.984375 6.296875 12.6875 
C 6.703125 12.59375 7.5 12.390625 7.90625 12.390625 
C 9.203125 12.390625 11.703125 13.09375 11.703125 16.1875 
C 11.703125 18.890625 9.796875 20 7.90625 20 
C 5.59375 20 4.09375 18.59375 4.09375 15.796875 
C 4.09375 7.09375 11 -2 21.59375 -2 
C 31.90625 -2 41.703125 6.890625 41.703125 19.796875 
C 41.703125 32.09375 33.90625 41.59375 24.203125 41.59375 
C 19.09375 41.59375 14.796875 39.6875 11.40625 36 
z
" id="CMR17-53"/>
      </defs>
      <g transform="translate(28.455994 375.018087)scale(0.1 -0.1)">
       <use transform="scale(0.996264)" xlink:href="#CMR17-53"/>
       <use transform="translate(45.690477 0)scale(0.996264)" xlink:href="#CMR17-48"/>
       <use transform="translate(91.380954 0)scale(0.996264)" xlink:href="#CMR17-48"/>
      </g>
     </g>
    </g>
    <g id="ytick_3">
     <g id="line2d_9">
      <g>
       <use style="stroke:#000000;stroke-width:0.8;" x="50.4" xlink:href="#mb27c9ae8eb" y="285.099672"/>
      </g>
     </g>
     <g id="text_9">
      <!-- $1000$ -->
      <defs>
       <path d="M 26.59375 63.796875 
C 26.59375 65.890625 26.5 66 25.09375 66 
C 21.203125 61.359375 15.296875 59.890625 9.703125 59.6875 
C 9.40625 59.6875 8.90625 59.6875 8.796875 59.5 
C 8.703125 59.296875 8.703125 59.09375 8.703125 57 
C 11.796875 57 17 57.59375 21 59.984375 
L 21 7.296875 
C 21 3.796875 20.796875 2.59375 12.203125 2.59375 
L 9.203125 2.59375 
L 9.203125 0 
C 14 0.09375 19 0.1875 23.796875 0.1875 
C 28.59375 0.1875 33.59375 0.09375 38.40625 0 
L 38.40625 2.59375 
L 35.40625 2.59375 
C 26.796875 2.59375 26.59375 3.6875 26.59375 7.296875 
z
" id="CMR17-49"/>
      </defs>
      <g transform="translate(23.474659 288.648832)scale(0.1 -0.1)">
       <use transform="scale(0.996264)" xlink:href="#CMR17-49"/>
       <use transform="translate(45.690477 0)scale(0.996264)" xlink:href="#CMR17-48"/>
       <use transform="translate(91.380954 0)scale(0.996264)" xlink:href="#CMR17-48"/>
       <use transform="translate(137.071431 0)scale(0.996264)" xlink:href="#CMR17-48"/>
      </g>
     </g>
    </g>
    <g id="ytick_4">
     <g id="line2d_10">
      <g>
       <use style="stroke:#000000;stroke-width:0.8;" x="50.4" xlink:href="#mb27c9ae8eb" y="198.730417"/>
      </g>
     </g>
     <g id="text_10">
      <!-- $1500$ -->
      <g transform="translate(23.474659 202.279577)scale(0.1 -0.1)">
       <use transform="scale(0.996264)" xlink:href="#CMR17-49"/>
       <use transform="translate(45.690477 0)scale(0.996264)" xlink:href="#CMR17-53"/>
       <use transform="translate(91.380954 0)scale(0.996264)" xlink:href="#CMR17-48"/>
       <use transform="translate(137.071431 0)scale(0.996264)" xlink:href="#CMR17-48"/>
      </g>
     </g>
    </g>
    <g id="ytick_5">
     <g id="line2d_11">
      <g>
       <use style="stroke:#000000;stroke-width:0.8;" x="50.4" xlink:href="#mb27c9ae8eb" y="112.361162"/>
      </g>
     </g>
     <g id="text_11">
      <!-- $2000$ -->
      <defs>
       <path d="M 41.703125 15.46875 
L 39.90625 15.46875 
C 38.90625 8.390625 38.09375 7.1875 37.703125 6.59375 
C 37.203125 5.796875 30 5.796875 28.59375 5.796875 
L 9.40625 5.796875 
C 13 9.6875 20 16.765625 28.5 24.9375 
C 34.59375 30.71875 41.703125 37.5 41.703125 47.390625 
C 41.703125 59.1875 32.296875 66 21.796875 66 
C 10.796875 66 4.09375 56.296875 4.09375 47.296875 
C 4.09375 43.390625 7 42.890625 8.203125 42.890625 
C 9.203125 42.890625 12.203125 43.484375 12.203125 46.984375 
C 12.203125 50.09375 9.59375 51 8.203125 51 
C 7.59375 51 7 50.890625 6.59375 50.6875 
C 8.5 59.1875 14.296875 63.390625 20.40625 63.390625 
C 29.09375 63.390625 34.796875 56.5 34.796875 47.390625 
C 34.796875 38.703125 29.703125 31.21875 24 24.734375 
L 4.09375 2.296875 
L 4.09375 0 
L 39.296875 0 
z
" id="CMR17-50"/>
      </defs>
      <g transform="translate(23.474659 115.910322)scale(0.1 -0.1)">
       <use transform="scale(0.996264)" xlink:href="#CMR17-50"/>
       <use transform="translate(45.690477 0)scale(0.996264)" xlink:href="#CMR17-48"/>
       <use transform="translate(91.380954 0)scale(0.996264)" xlink:href="#CMR17-48"/>
       <use transform="translate(137.071431 0)scale(0.996264)" xlink:href="#CMR17-48"/>
      </g>
     </g>
    </g>
    <g id="ytick_6">
     <g id="line2d_12">
      <g>
       <use style="stroke:#000000;stroke-width:0.8;" x="50.4" xlink:href="#mb27c9ae8eb" y="25.991907"/>
      </g>
     </g>
     <g id="text_12">
      <!-- $2500$ -->
      <g transform="translate(23.474659 29.541067)scale(0.1 -0.1)">
       <use transform="scale(0.996264)" xlink:href="#CMR17-50"/>
       <use transform="translate(45.690477 0)scale(0.996264)" xlink:href="#CMR17-53"/>
       <use transform="translate(91.380954 0)scale(0.996264)" xlink:href="#CMR17-48"/>
       <use transform="translate(137.071431 0)scale(0.996264)" xlink:href="#CMR17-48"/>
      </g>
     </g>
    </g>
    <g id="text_13">
     <!-- Number of cases -->
     <defs>
      <path d="M 64.59375 73 
L 55.796875 73 
L 55.796875 13.3125 
L 17.703125 73 
L 7.59375 73 
L 7.59375 0 
L 16.40625 0 
L 16.40625 59.171875 
L 54.09375 0 
L 64.59375 0 
z
" id="Nimbus_Sans_L_Regular-78"/>
      <path d="M 48.203125 0.296875 
L 48.203125 52 
L 39.90625 52 
L 39.90625 22.71875 
C 39.90625 12.1875 34.296875 5.296875 25.59375 5.296875 
C 19 5.296875 14.796875 9.234375 14.796875 15.4375 
L 14.796875 52 
L 6.5 52 
L 6.5 12.1875 
C 6.5 3.59375 13 -2 23.203125 -2 
C 30.90625 -2 35.796875 0.6875 40.703125 7.5625 
L 40.703125 0.296875 
z
" id="Nimbus_Sans_L_Regular-117"/>
      <path d="M 7 52 
L 7 0 
L 15.40625 0 
L 15.40625 32.640625 
C 15.40625 40.578125 20.90625 46.6875 27.703125 46.6875 
C 33.90625 46.6875 37.40625 42.875 37.40625 36.171875 
L 37.40625 0 
L 45.796875 0 
L 45.796875 32.953125 
C 45.796875 40.578125 51.296875 46.6875 58.09375 46.6875 
C 64.203125 46.6875 67.796875 42.78125 67.796875 36.171875 
L 67.796875 0 
L 76.203125 0 
L 76.203125 39.375 
C 76.203125 48.796875 70.796875 54 61 54 
C 54 54 49.796875 51.890625 44.90625 45.984375 
C 41.796875 51.59375 37.59375 54 30.796875 54 
C 23.796875 54 19.203125 51.390625 14.703125 45.09375 
L 14.703125 52 
z
" id="Nimbus_Sans_L_Regular-109"/>
      <path d="M 5.40625 73 
L 5.40625 0.296875 
L 12.90625 0.296875 
L 12.90625 6.984375 
C 16.90625 0.890625 22.203125 -2 29.5 -2 
C 43.296875 -2 52.296875 9.28125 52.296875 26.59375 
C 52.296875 43.5 43.703125 54 29.90625 54 
C 22.703125 54 17.59375 51.296875 13.703125 45.390625 
L 13.703125 73 
z
M 28.296875 46.1875 
C 37.59375 46.1875 43.59375 38.125 43.59375 25.6875 
C 43.59375 13.859375 37.40625 5.796875 28.296875 5.796875 
C 19.5 5.796875 13.703125 13.75 13.703125 25.984375 
C 13.703125 38.234375 19.5 46.1875 28.296875 46.1875 
z
" id="Nimbus_Sans_L_Regular-98"/>
      <path d="M 51.296875 23.1875 
C 51.296875 31.21875 50.703125 36.109375 49.203125 40.078125 
C 45.796875 48.796875 37.796875 54 28 54 
C 13.40625 54 4 42.71875 4 25.296875 
C 4 8.515625 13.09375 -2 27.796875 -2 
C 39.796875 -2 48.09375 4.796875 50.203125 15.90625 
L 41.796875 15.90625 
C 39.5 9.1875 34.796875 5.6875 28.09375 5.6875 
C 22.796875 5.6875 18.296875 8.03125 15.5 12.296875 
C 13.5 15.21875 12.796875 18.140625 12.703125 23.1875 
z
M 12.90625 30 
C 13.59375 39.875 19.5 46.296875 27.90625 46.296875 
C 36.09375 46.296875 42.40625 39.359375 42.40625 30.609375 
C 42.40625 30.40625 42.40625 30.203125 42.296875 30 
z
" id="Nimbus_Sans_L_Regular-101"/>
      <path d="M 6.90625 52 
L 6.90625 0 
L 15.296875 0 
L 15.296875 26.984375 
C 15.296875 34.421875 17.203125 39.28125 21.203125 42.15625 
C 23.796875 44.046875 26.296875 44.640625 32.09375 44.734375 
L 32.09375 53.1875 
C 30.703125 53.890625 30 54 28.90625 54 
C 23.5 54 19.40625 50.796875 14.59375 42.96875 
L 14.59375 52 
z
" id="Nimbus_Sans_L_Regular-114"/>
      <path d="M 27.203125 54 
C 12.5 54 3.59375 43.5 3.59375 25.984375 
C 3.59375 8.484375 12.40625 -2 27.296875 -2 
C 42 -2 51 8.484375 51 25.59375 
C 51 43.609375 42.296875 54 27.203125 54 
z
M 27.296875 46.296875 
C 36.703125 46.296875 42.296875 38.625 42.296875 25.6875 
C 42.296875 13.453125 36.5 5.6875 27.296875 5.6875 
C 18 5.6875 12.296875 13.359375 12.296875 25.984375 
C 12.296875 38.53125 18 46.296875 27.296875 46.296875 
z
" id="Nimbus_Sans_L_Regular-111"/>
      <path d="M 25.796875 52 
L 17.09375 52 
L 17.09375 60.3125 
C 17.09375 63.859375 19.09375 65.6875 22.90625 65.6875 
C 23.59375 65.6875 23.90625 65.6875 25.796875 65.59375 
L 25.796875 72.484375 
C 23.90625 72.890625 22.796875 73 21.09375 73 
C 13.40625 73 8.796875 68.59375 8.796875 61.015625 
L 8.796875 52 
L 1.796875 52 
L 1.796875 45.1875 
L 8.796875 45.1875 
L 8.796875 0 
L 17.09375 0 
L 17.09375 45.1875 
L 25.796875 45.1875 
z
" id="Nimbus_Sans_L_Regular-102"/>
      <path d="M 47.09375 34.953125 
C 46.703125 40.015625 45.59375 43.296875 43.59375 46.1875 
C 40 51.09375 33.703125 54 26.40625 54 
C 12.296875 54 3.09375 42.8125 3.09375 25.5 
C 3.09375 8.671875 12.09375 -2 26.296875 -2 
C 38.796875 -2 46.703125 5.5 47.703125 18.234375 
L 39.296875 18.234375 
C 37.90625 9.875 33.59375 5.6875 26.5 5.6875 
C 17.296875 5.6875 11.796875 13.15625 11.796875 25.5 
C 11.796875 38.53125 17.203125 46.296875 26.296875 46.296875 
C 33.296875 46.296875 37.703125 42.203125 38.703125 34.953125 
z
" id="Nimbus_Sans_L_Regular-99"/>
      <path d="M 53.5 5.1875 
C 52.59375 5 52.203125 5 51.703125 5 
C 48.796875 5 47.203125 6.484375 47.203125 9.078125 
L 47.203125 39.71875 
C 47.203125 48.984375 40.40625 54 27.5 54 
C 19.90625 54 13.59375 51.796875 10.09375 47.890625 
C 7.703125 45.203125 6.703125 42.21875 6.5 37.03125 
L 14.90625 37.03125 
C 15.59375 43.40625 19.40625 46.296875 27.203125 46.296875 
C 34.703125 46.296875 38.90625 43.5 38.90625 38.53125 
L 38.90625 36.34375 
C 38.90625 32.859375 36.796875 31.359375 30.203125 30.5625 
C 18.40625 29.078125 16.59375 28.671875 13.40625 27.390625 
C 7.296875 24.890625 4.203125 20.21875 4.203125 13.453125 
C 4.203125 4 10.796875 -2 21.40625 -2 
C 28 -2 33.296875 0.296875 39.203125 5.6875 
C 39.796875 0.390625 42.40625 -2 47.796875 -2 
C 49.5 -2 50.796875 -1.8125 53.5 -1.109375 
z
M 38.90625 16.734375 
C 38.90625 13.953125 38.09375 12.265625 35.59375 9.96875 
C 32.203125 6.890625 28.09375 5.296875 23.203125 5.296875 
C 16.703125 5.296875 12.90625 8.375 12.90625 13.65625 
C 12.90625 19.125 16.59375 21.90625 25.5 23.203125 
C 34.296875 24.40625 36.09375 24.796875 38.90625 26.09375 
z
" id="Nimbus_Sans_L_Regular-97"/>
      <path d="M 43.796875 37.9375 
C 43.703125 48.1875 36.90625 54 24.796875 54 
C 12.59375 54 4.703125 47.6875 4.703125 38.03125 
C 4.703125 29.875 8.90625 25.984375 21.296875 23 
L 29.09375 21.109375 
C 34.90625 19.71875 37.203125 17.640625 37.203125 13.859375 
C 37.203125 8.96875 32.296875 5.6875 25 5.6875 
C 20.5 5.6875 16.703125 6.984375 14.59375 9.171875 
C 13.296875 10.671875 12.703125 12.15625 12.203125 15.84375 
L 3.40625 15.84375 
C 3.796875 3.796875 10.59375 -2 24.296875 -2 
C 37.5 -2 45.90625 4.5 45.90625 14.546875 
C 45.90625 22.3125 41.5 26.59375 31.09375 29.078125 
L 23.09375 30.96875 
C 16.296875 32.5625 13.40625 34.75 13.40625 38.421875 
C 13.40625 43.203125 17.703125 46.296875 24.5 46.296875 
C 31.203125 46.296875 34.796875 43.40625 35 37.9375 
z
" id="Nimbus_Sans_L_Regular-115"/>
     </defs>
     <g transform="translate(17.352673 285.868407)rotate(-90)scale(0.1 -0.1)">
      <use transform="scale(0.996264)" xlink:href="#Nimbus_Sans_L_Regular-78"/>
      <use transform="translate(71.929985 0)scale(0.996264)" xlink:href="#Nimbus_Sans_L_Regular-117"/>
      <use transform="translate(127.321662 0)scale(0.996264)" xlink:href="#Nimbus_Sans_L_Regular-109"/>
      <use transform="translate(210.310092 0)scale(0.996264)" xlink:href="#Nimbus_Sans_L_Regular-98"/>
      <use transform="translate(265.701769 0)scale(0.996264)" xlink:href="#Nimbus_Sans_L_Regular-101"/>
      <use transform="translate(321.093446 0)scale(0.996264)" xlink:href="#Nimbus_Sans_L_Regular-114"/>
      <use transform="translate(381.963845 0)scale(0.996264)" xlink:href="#Nimbus_Sans_L_Regular-111"/>
      <use transform="translate(437.355522 0)scale(0.996264)" xlink:href="#Nimbus_Sans_L_Regular-102"/>
      <use transform="translate(492.745861 0)scale(0.996264)" xlink:href="#Nimbus_Sans_L_Regular-99"/>
      <use transform="translate(542.559062 0)scale(0.996264)" xlink:href="#Nimbus_Sans_L_Regular-97"/>
      <use transform="translate(597.950739 0)scale(0.996264)" xlink:href="#Nimbus_Sans_L_Regular-115"/>
      <use transform="translate(647.763939 0)scale(0.996264)" xlink:href="#Nimbus_Sans_L_Regular-101"/>
      <use transform="translate(703.155616 0)scale(0.996264)" xlink:href="#Nimbus_Sans_L_Regular-115"/>
     </g>
    </g>
   </g>
   <g id="line2d_13">
    <path clip-path="url(#p8476a403a8)" d="M 80.181818 457.665443 
L 88.123636 457.838182 
L 96.065455 457.838182 
L 104.007273 457.838182 
L 111.949091 457.665443 
L 119.890909 457.838182 
L 127.832727 457.665443 
L 135.774545 456.456274 
L 143.716364 457.665443 
L 151.658182 457.665443 
L 159.6 457.665443 
L 167.541818 457.319966 
L 175.483636 455.938058 
L 183.425455 457.147228 
L 191.367273 455.76532 
L 199.309091 456.629012 
L 207.250909 453.174242 
L 215.192727 449.89221 
L 223.134545 449.373995 
L 231.076364 447.301133 
L 239.018182 453.519719 
L 246.96 453.692458 
L 254.901818 440.218854 
L 262.843636 431.927405 
L 270.785455 422.599526 
L 278.727273 409.644138 
L 286.669091 386.324439 
L 294.610909 386.842654 
L 302.552727 400.316258 
L 310.494545 352.294952 
L 318.436364 287.172534 
L 326.378182 269.380467 
L 334.32 256.597818 
L 342.261818 242.778737 
L 350.203636 287.69075 
L 358.145455 346.421843 
L 366.087273 282.854071 
L 374.029091 236.041935 
L 381.970909 194.93017 
L 389.912727 185.256813 
L 397.854545 151.054588 
L 405.796364 221.877377 
L 413.738182 295.636721 
L 421.68 242.605998 
L 429.621818 134.64443 
L 437.563636 116.334148 
L 445.505455 75.913336 
L 453.447273 38.601818 
L 461.389091 208.231035 
L 469.330909 297.709583 
L 477.272727 219.2863 
L 485.214545 153.12745 
L 493.156364 118.579748 
L 501.098182 132.226091 
L 509.04 241.051352 
L 516.981818 232.241688 
L 524.923636 328.975253 
L 532.865455 339.512303 
L 540.807273 293.045643 
L 548.749091 241.742306 
L 556.690909 230.514303 
L 564.632727 215.140575 
L 572.574545 309.283063 
L 580.516364 347.285535 
L 588.458182 319.301897 
L 596.4 296.500414 
L 604.341818 261.089019 
L 612.283636 282.163117 
L 620.225455 295.291244 
L 628.167273 338.130394 
L 636.109091 399.970781 
L 644.050909 352.122214 
L 651.992727 333.639193 
L 659.934545 324.138575 
L 667.876364 371.296188 
L 675.818182 457.838182 
" style="fill:none;stroke:#ffa500;stroke-linecap:square;stroke-width:1.5;"/>
   </g>
   <g id="line2d_14">
    <path clip-path="url(#p8476a403a8)" d="M 151.658182 455.419843 
L 159.6 453.001504 
L 167.541818 451.792334 
L 175.483636 453.001504 
L 183.425455 451.792334 
L 191.367273 450.583164 
L 199.309091 450.583164 
L 207.250909 449.373995 
L 215.192727 444.537317 
L 223.134545 437.282299 
L 231.076364 428.818112 
L 239.018182 417.935586 
L 246.96 402.216382 
L 254.901818 380.624068 
L 262.843636 352.640429 
L 270.785455 319.992851 
L 278.727273 274.217146 
L 286.669091 228.441441 
L 294.610909 196.830293 
L 302.552727 167.982962 
L 310.494545 155.891266 
L 318.436364 145.00874 
L 326.378182 141.208493 
L 334.32 146.21791 
L 342.261818 149.845419 
L 350.203636 166.773793 
L 358.145455 177.48358 
L 366.087273 179.901919 
L 374.029091 181.283827 
L 381.970909 172.646902 
L 389.912727 184.911336 
L 397.854545 193.375523 
L 405.796364 206.50365 
L 413.738182 221.013685 
L 421.68 229.477872 
L 429.621818 233.278119 
L 437.563636 240.533136 
L 445.505455 265.752959 
L 453.447273 302.028046 
L 461.389091 344.176242 
" style="fill:none;stroke:#ffa500;stroke-dasharray:5.55,2.4;stroke-dashoffset:0;stroke-width:1.5;"/>
   </g>
   <g id="patch_3">
    <path d="M 50.4 478.8 
L 50.4 17.64 
" style="fill:none;stroke:#000000;stroke-linecap:square;stroke-linejoin:miter;stroke-width:0.8;"/>
   </g>
   <g id="patch_4">
    <path d="M 705.6 478.8 
L 705.6 17.64 
" style="fill:none;stroke:#000000;stroke-linecap:square;stroke-linejoin:miter;stroke-width:0.8;"/>
   </g>
   <g id="patch_5">
    <path d="M 50.4 478.8 
L 705.6 478.8 
" style="fill:none;stroke:#000000;stroke-linecap:square;stroke-linejoin:miter;stroke-width:0.8;"/>
   </g>
   <g id="patch_6">
    <path d="M 50.4 17.64 
L 705.6 17.64 
" style="fill:none;stroke:#000000;stroke-linecap:square;stroke-linejoin:miter;stroke-width:0.8;"/>
   </g>
   <g id="legend_1">
    <g id="patch_7">
     <path d="M 57.4 54.449348 
L 326.46757 54.449348 
Q 328.46757 54.449348 328.46757 52.449348 
L 328.46757 24.64 
Q 328.46757 22.64 326.46757 22.64 
L 57.4 22.64 
Q 55.4 22.64 55.4 24.64 
L 55.4 52.449348 
Q 55.4 54.449348 57.4 54.449348 
z
" style="fill:#ffffff;opacity:0.8;stroke:#cccccc;stroke-linejoin:miter;"/>
    </g>
    <g id="line2d_15">
     <path d="M 59.4 30.422687 
L 79.4 30.422687 
" style="fill:none;stroke:#ffa500;stroke-linecap:square;stroke-width:1.5;"/>
    </g>
    <g id="line2d_16"/>
    <g id="text_14">
     <!-- asymptomatic or unknown date (sit. report) n = 56367 -->
     <defs>
      <path d="M 38.796875 52 
L 24.296875 11.3125 
L 10.90625 52 
L 2 52 
L 19.703125 -0.453125 
L 16.5 -8.71875 
C 15.203125 -12.40625 13.296875 -13.8125 9.796875 -13.8125 
C 8.59375 -13.8125 7.203125 -13.609375 5.40625 -13.203125 
L 5.40625 -20.703125 
C 7.09375 -21.609375 8.796875 -22 11 -22 
C 13.703125 -22 16.59375 -21.109375 18.796875 -19.5 
C 21.40625 -17.609375 22.90625 -15.40625 24.5 -11.21875 
L 47.796875 52 
z
" id="Nimbus_Sans_L_Regular-121"/>
      <path d="M 5.40625 -22 
L 13.796875 -22 
L 13.796875 5.796875 
C 18.203125 0.390625 23.09375 -2 29.90625 -2 
C 43.40625 -2 52.296875 8.875 52.296875 25.5 
C 52.296875 43 43.703125 54 29.796875 54 
C 22.703125 54 17 50.796875 13.09375 44.59375 
L 13.09375 52.484375 
L 5.40625 52.484375 
z
M 28.40625 46.1875 
C 37.59375 46.1875 43.59375 38.125 43.59375 25.6875 
C 43.59375 13.859375 37.5 5.796875 28.40625 5.796875 
C 19.59375 5.796875 13.796875 13.75 13.796875 25.984375 
C 13.796875 38.234375 19.59375 46.1875 28.40625 46.1875 
z
" id="Nimbus_Sans_L_Regular-112"/>
      <path d="M 25.40625 52 
L 16.796875 52 
L 16.796875 66.390625 
L 8.5 66.390625 
L 8.5 52 
L 1.40625 52 
L 1.40625 45.1875 
L 8.5 45.1875 
L 8.5 6.28125 
C 8.5 1 12.09375 -2 18.59375 -2 
C 20.59375 -2 22.59375 -1.8125 25.40625 -1.3125 
L 25.40625 5.6875 
C 24.296875 5.390625 23 5.296875 21.40625 5.296875 
C 17.796875 5.296875 16.796875 6.28125 16.796875 9.90625 
L 16.796875 45.1875 
L 25.40625 45.1875 
z
" id="Nimbus_Sans_L_Regular-116"/>
      <path d="M 15 52.46875 
L 6.703125 52.46875 
L 6.703125 0 
L 15 0 
z
M 15 73 
L 6.59375 73 
L 6.59375 62.484375 
L 15 62.484375 
z
" id="Nimbus_Sans_L_Regular-105"/>
      <path d="M 7 52 
L 7 0 
L 15.40625 0 
L 15.40625 28.671875 
C 15.40625 39.671875 21 46.6875 29.59375 46.6875 
C 36.203125 46.6875 40.40625 42.6875 40.40625 36.375 
L 40.40625 0 
L 48.703125 0 
L 48.703125 39.671875 
C 48.703125 48.390625 42.203125 54 32.09375 54 
C 24.296875 54 19.296875 50.984375 14.703125 43.6875 
L 14.703125 52 
z
" id="Nimbus_Sans_L_Regular-110"/>
      <path d="M 14.09375 73 
L 5.796875 73 
L 5.796875 0 
L 14.09375 0 
L 14.09375 20.421875 
L 22.203125 28.4375 
L 39.90625 0 
L 50.203125 0 
L 28.796875 34.34375 
L 47 52.46875 
L 36.296875 52.46875 
L 14.09375 30.234375 
z
" id="Nimbus_Sans_L_Regular-107"/>
      <path d="M 55.40625 0 
L 70.796875 52 
L 61.40625 52 
L 51 11.515625 
L 40.703125 52 
L 30.5 52 
L 20.5 11.515625 
L 9.796875 52 
L 0.59375 52 
L 15.796875 0 
L 25.203125 0 
L 35.296875 40.765625 
L 45.90625 0 
z
" id="Nimbus_Sans_L_Regular-119"/>
      <path d="M 49.5 73 
L 41.203125 73 
L 41.203125 45.890625 
C 37.703125 51.1875 32.09375 54 25.09375 54 
C 11.5 54 2.59375 43.109375 2.59375 26.484375 
C 2.59375 8.875 11.296875 -2 25.40625 -2 
C 32.59375 -2 37.59375 0.6875 42.09375 7.1875 
L 42.09375 0.296875 
L 49.5 0.296875 
z
M 26.5 46.1875 
C 35.5 46.1875 41.203125 38.234375 41.203125 25.796875 
C 41.203125 13.75 35.40625 5.796875 26.59375 5.796875 
C 17.40625 5.796875 11.296875 13.859375 11.296875 25.984375 
C 11.296875 38.125 17.40625 46.1875 26.5 46.1875 
z
" id="Nimbus_Sans_L_Regular-100"/>
      <path d="M 23.59375 73 
C 13.59375 59.890625 7.296875 41.6875 7.296875 25.984375 
C 7.296875 10.1875 13.59375 -8.015625 23.59375 -21.109375 
L 29.09375 -21.109375 
C 20.296875 -6.8125 15.40625 9.984375 15.40625 25.984375 
C 15.40625 41.890625 20.296875 58.796875 29.09375 73 
z
" id="Nimbus_Sans_L_Regular-40"/>
      <path d="M 19.09375 10.390625 
L 8.703125 10.390625 
L 8.703125 0 
L 19.09375 0 
z
" id="Nimbus_Sans_L_Regular-46"/>
      <path d="M 9.296875 -21.109375 
C 19.296875 -8.015625 25.59375 10.1875 25.59375 25.890625 
C 25.59375 41.6875 19.296875 59.890625 9.296875 73 
L 3.796875 73 
C 12.59375 58.6875 17.5 41.890625 17.5 25.890625 
C 17.5 9.984375 12.59375 -6.90625 3.796875 -21.109375 
z
" id="Nimbus_Sans_L_Regular-41"/>
      <path d="M 53.40625 35 
L 5 35 
L 5 28 
L 53.40625 28 
z
M 53.40625 18 
L 5 18 
L 5 11 
L 53.40625 11 
z
" id="Nimbus_Sans_L_Regular-61"/>
      <path d="M 49.796875 52.375 
C 48.09375 64.09375 40.5 71 29.703125 71 
C 21.90625 71 14.90625 67.1875 10.703125 60.859375 
C 6.296875 53.890625 4.296875 45.109375 4.296875 32.25 
C 4.296875 20.5 6.09375 13 10.296875 6.78125 
C 14.09375 1.09375 20.296875 -2 28.09375 -2 
C 41.59375 -2 51.296875 7.96875 51.296875 21.6875 
C 51.296875 34.703125 42.296875 44 29.59375 44 
C 22.59375 44 17.09375 41.296875 13.296875 36.09375 
C 13.40625 53.484375 19 63.1875 29.09375 63.1875 
C 35.296875 63.1875 39.59375 59.25 41 52.375 
z
M 28.5 36.1875 
C 37 36.1875 42.296875 30.375 42.296875 20.984375 
C 42.296875 12.203125 36.296875 5.796875 28.203125 5.796875 
C 20 5.796875 13.796875 12.5 13.796875 21.484375 
C 13.796875 30.171875 19.796875 36.1875 28.5 36.1875 
z
" id="Nimbus_Sans_L_Regular-54"/>
      <path d="M 52 71 
L 4.59375 71 
L 4.59375 62.296875 
L 42.90625 62.296875 
C 26 38.15625 19.09375 23.328125 13.796875 0 
L 23.203125 0 
C 27.09375 22.71875 36 42.25 52 63.59375 
z
" id="Nimbus_Sans_L_Regular-55"/>
     </defs>
     <g transform="translate(87.4 33.922687)scale(0.1 -0.1)">
      <use transform="scale(0.996264)" xlink:href="#Nimbus_Sans_L_Regular-97"/>
      <use transform="translate(55.391677 0)scale(0.996264)" xlink:href="#Nimbus_Sans_L_Regular-115"/>
      <use transform="translate(105.204877 0)scale(0.996264)" xlink:href="#Nimbus_Sans_L_Regular-121"/>
      <use transform="translate(155.018078 0)scale(0.996264)" xlink:href="#Nimbus_Sans_L_Regular-109"/>
      <use transform="translate(238.006508 0)scale(0.996264)" xlink:href="#Nimbus_Sans_L_Regular-112"/>
      <use transform="translate(293.398185 0)scale(0.996264)" xlink:href="#Nimbus_Sans_L_Regular-116"/>
      <use transform="translate(321.093355 0)scale(0.996264)" xlink:href="#Nimbus_Sans_L_Regular-111"/>
      <use transform="translate(376.485032 0)scale(0.996264)" xlink:href="#Nimbus_Sans_L_Regular-109"/>
      <use transform="translate(459.473462 0)scale(0.996264)" xlink:href="#Nimbus_Sans_L_Regular-97"/>
      <use transform="translate(514.865139 0)scale(0.996264)" xlink:href="#Nimbus_Sans_L_Regular-116"/>
      <use transform="translate(542.560309 0)scale(0.996264)" xlink:href="#Nimbus_Sans_L_Regular-105"/>
      <use transform="translate(564.677093 0)scale(0.996264)" xlink:href="#Nimbus_Sans_L_Regular-99"/>
      <use transform="translate(642.185463 0)scale(0.996264)" xlink:href="#Nimbus_Sans_L_Regular-111"/>
      <use transform="translate(697.57714 0)scale(0.996264)" xlink:href="#Nimbus_Sans_L_Regular-114"/>
      <use transform="translate(758.447539 0)scale(0.996264)" xlink:href="#Nimbus_Sans_L_Regular-117"/>
      <use transform="translate(813.839216 0)scale(0.996264)" xlink:href="#Nimbus_Sans_L_Regular-110"/>
      <use transform="translate(869.230893 0)scale(0.996264)" xlink:href="#Nimbus_Sans_L_Regular-107"/>
      <use transform="translate(919.044094 0)scale(0.996264)" xlink:href="#Nimbus_Sans_L_Regular-110"/>
      <use transform="translate(974.435771 0)scale(0.996264)" xlink:href="#Nimbus_Sans_L_Regular-111"/>
      <use transform="translate(1028.334055 0)scale(0.996264)" xlink:href="#Nimbus_Sans_L_Regular-119"/>
      <use transform="translate(1100.26404 0)scale(0.996264)" xlink:href="#Nimbus_Sans_L_Regular-110"/>
      <use transform="translate(1183.350886 0)scale(0.996264)" xlink:href="#Nimbus_Sans_L_Regular-100"/>
      <use transform="translate(1238.742563 0)scale(0.996264)" xlink:href="#Nimbus_Sans_L_Regular-97"/>
      <use transform="translate(1294.13424 0)scale(0.996264)" xlink:href="#Nimbus_Sans_L_Regular-116"/>
      <use transform="translate(1321.82941 0)scale(0.996264)" xlink:href="#Nimbus_Sans_L_Regular-101"/>
      <use transform="translate(1404.916256 0)scale(0.996264)" xlink:href="#Nimbus_Sans_L_Regular-40"/>
      <use transform="translate(1438.091486 0)scale(0.996264)" xlink:href="#Nimbus_Sans_L_Regular-115"/>
      <use transform="translate(1487.904687 0)scale(0.996264)" xlink:href="#Nimbus_Sans_L_Regular-105"/>
      <use transform="translate(1510.021471 0)scale(0.996264)" xlink:href="#Nimbus_Sans_L_Regular-116"/>
      <use transform="translate(1537.716641 0)scale(0.996264)" xlink:href="#Nimbus_Sans_L_Regular-46"/>
      <use transform="translate(1599.681462 0)scale(0.996264)" xlink:href="#Nimbus_Sans_L_Regular-114"/>
      <use transform="translate(1632.856692 0)scale(0.996264)" xlink:href="#Nimbus_Sans_L_Regular-101"/>
      <use transform="translate(1688.248369 0)scale(0.996264)" xlink:href="#Nimbus_Sans_L_Regular-112"/>
      <use transform="translate(1743.640046 0)scale(0.996264)" xlink:href="#Nimbus_Sans_L_Regular-111"/>
      <use transform="translate(1799.031722 0)scale(0.996264)" xlink:href="#Nimbus_Sans_L_Regular-114"/>
      <use transform="translate(1836.191051 0)scale(0.996264)" xlink:href="#Nimbus_Sans_L_Regular-116"/>
      <use transform="translate(1863.88622 0)scale(0.996264)" xlink:href="#Nimbus_Sans_L_Regular-41"/>
      <use transform="translate(1924.756619 0)scale(0.996264)" xlink:href="#Nimbus_Sans_L_Regular-110"/>
      <use transform="translate(2007.843466 0)scale(0.996264)" xlink:href="#Nimbus_Sans_L_Regular-61"/>
      <use transform="translate(2093.720128 0)scale(0.996264)" xlink:href="#Nimbus_Sans_L_Regular-53"/>
      <use transform="translate(2149.111805 0)scale(0.996264)" xlink:href="#Nimbus_Sans_L_Regular-54"/>
      <use transform="translate(2204.503482 0)scale(0.996264)" xlink:href="#Nimbus_Sans_L_Regular-51"/>
      <use transform="translate(2259.895159 0)scale(0.996264)" xlink:href="#Nimbus_Sans_L_Regular-54"/>
      <use transform="translate(2315.286836 0)scale(0.996264)" xlink:href="#Nimbus_Sans_L_Regular-55"/>
     </g>
    </g>
    <g id="line2d_17">
     <path d="M 59.4 44.827361 
L 79.4 44.827361 
" style="fill:none;stroke:#ffa500;stroke-dasharray:5.55,2.4;stroke-dashoffset:0;stroke-width:1.5;"/>
    </g>
    <g id="line2d_18"/>
    <g id="text_15">
     <!-- imputated (RKI estimate) n = 38261 -->
     <defs>
      <path d="M 18.59375 31.796875 
L 42.59375 31.796875 
C 50.90625 31.796875 54.59375 27.734375 54.59375 18.609375 
L 54.5 12.03125 
C 54.5 7.46875 55.296875 3 56.59375 0 
L 67.90625 0 
L 67.90625 2.296875 
C 64.40625 4.734375 63.703125 7.359375 63.5 17.203125 
C 63.40625 29.359375 61.5 32.984375 53.59375 36.390625 
C 61.796875 40.390625 65.09375 45.421875 65.09375 53.625 
C 65.09375 66.09375 57.203125 73 42.90625 73 
L 9.296875 73 
L 9.296875 0 
L 18.59375 0 
z
M 18.59375 40 
L 18.59375 64.796875 
L 41.09375 64.796875 
C 46.296875 64.796875 49.296875 64 51.59375 62.03125 
C 54.09375 59.953125 55.40625 56.6875 55.40625 52.34375 
C 55.40625 43.84375 51 40 41.09375 40 
z
" id="Nimbus_Sans_L_Regular-82"/>
      <path d="M 17.203125 25.53125 
L 29.09375 37.4375 
L 54.796875 0 
L 65.796875 0 
L 35.796875 43.25 
L 65.5 73 
L 53.5 73 
L 17.203125 36.046875 
L 17.203125 73 
L 7.90625 73 
L 7.90625 0 
L 17.203125 0 
z
" id="Nimbus_Sans_L_Regular-75"/>
      <path d="M 19.40625 73 
L 10 73 
L 10 0 
L 19.40625 0 
z
" id="Nimbus_Sans_L_Regular-73"/>
      <path d="M 39.09375 37.484375 
C 46.40625 41.890625 48.796875 45.46875 48.796875 52.140625 
C 48.796875 63.1875 40.09375 71 27.5 71 
C 15 71 6.203125 63.1875 6.203125 52.140625 
C 6.203125 45.578125 8.59375 41.984375 15.796875 37.484375 
C 7.703125 33.59375 3.703125 27.71875 3.703125 19.9375 
C 3.703125 6.984375 13.5 -2 27.5 -2 
C 41.5 -2 51.296875 6.984375 51.296875 19.84375 
C 51.296875 27.71875 47.296875 33.59375 39.09375 37.484375 
z
M 27.5 63.1875 
C 35 63.1875 39.796875 58.8125 39.796875 51.9375 
C 39.796875 45.375 34.90625 41 27.5 41 
C 20.09375 41 15.203125 45.375 15.203125 52.046875 
C 15.203125 58.8125 20.09375 63.1875 27.5 63.1875 
z
M 27.5 33.59375 
C 36.296875 33.59375 42.296875 28.015625 42.296875 19.75 
C 42.296875 11.375 36.296875 5.796875 27.296875 5.796875 
C 18.703125 5.796875 12.703125 11.46875 12.703125 19.75 
C 12.703125 28.015625 18.703125 33.59375 27.5 33.59375 
z
" id="Nimbus_Sans_L_Regular-56"/>
     </defs>
     <g transform="translate(87.4 48.327361)scale(0.1 -0.1)">
      <use transform="scale(0.996264)" xlink:href="#Nimbus_Sans_L_Regular-105"/>
      <use transform="translate(22.116784 0)scale(0.996264)" xlink:href="#Nimbus_Sans_L_Regular-109"/>
      <use transform="translate(105.105215 0)scale(0.996264)" xlink:href="#Nimbus_Sans_L_Regular-112"/>
      <use transform="translate(160.496892 0)scale(0.996264)" xlink:href="#Nimbus_Sans_L_Regular-117"/>
      <use transform="translate(215.888569 0)scale(0.996264)" xlink:href="#Nimbus_Sans_L_Regular-116"/>
      <use transform="translate(243.583738 0)scale(0.996264)" xlink:href="#Nimbus_Sans_L_Regular-97"/>
      <use transform="translate(298.975415 0)scale(0.996264)" xlink:href="#Nimbus_Sans_L_Regular-116"/>
      <use transform="translate(326.670585 0)scale(0.996264)" xlink:href="#Nimbus_Sans_L_Regular-101"/>
      <use transform="translate(382.062262 0)scale(0.996264)" xlink:href="#Nimbus_Sans_L_Regular-100"/>
      <use transform="translate(465.149108 0)scale(0.996264)" xlink:href="#Nimbus_Sans_L_Regular-40"/>
      <use transform="translate(498.324338 0)scale(0.996264)" xlink:href="#Nimbus_Sans_L_Regular-82"/>
      <use transform="translate(570.254323 0)scale(0.996264)" xlink:href="#Nimbus_Sans_L_Regular-75"/>
      <use transform="translate(636.704354 0)scale(0.996264)" xlink:href="#Nimbus_Sans_L_Regular-73"/>
      <use transform="translate(692.094693 0)scale(0.996264)" xlink:href="#Nimbus_Sans_L_Regular-101"/>
      <use transform="translate(747.48637 0)scale(0.996264)" xlink:href="#Nimbus_Sans_L_Regular-115"/>
      <use transform="translate(797.299571 0)scale(0.996264)" xlink:href="#Nimbus_Sans_L_Regular-116"/>
      <use transform="translate(824.99474 0)scale(0.996264)" xlink:href="#Nimbus_Sans_L_Regular-105"/>
      <use transform="translate(847.111525 0)scale(0.996264)" xlink:href="#Nimbus_Sans_L_Regular-109"/>
      <use transform="translate(930.099955 0)scale(0.996264)" xlink:href="#Nimbus_Sans_L_Regular-97"/>
      <use transform="translate(985.491632 0)scale(0.996264)" xlink:href="#Nimbus_Sans_L_Regular-116"/>
      <use transform="translate(1013.186801 0)scale(0.996264)" xlink:href="#Nimbus_Sans_L_Regular-101"/>
      <use transform="translate(1068.578478 0)scale(0.996264)" xlink:href="#Nimbus_Sans_L_Regular-41"/>
      <use transform="translate(1129.448878 0)scale(0.996264)" xlink:href="#Nimbus_Sans_L_Regular-110"/>
      <use transform="translate(1212.535724 0)scale(0.996264)" xlink:href="#Nimbus_Sans_L_Regular-61"/>
      <use transform="translate(1298.412387 0)scale(0.996264)" xlink:href="#Nimbus_Sans_L_Regular-51"/>
      <use transform="translate(1353.804064 0)scale(0.996264)" xlink:href="#Nimbus_Sans_L_Regular-56"/>
      <use transform="translate(1409.195741 0)scale(0.996264)" xlink:href="#Nimbus_Sans_L_Regular-50"/>
      <use transform="translate(1464.587418 0)scale(0.996264)" xlink:href="#Nimbus_Sans_L_Regular-54"/>
      <use transform="translate(1519.979095 0)scale(0.996264)" xlink:href="#Nimbus_Sans_L_Regular-49"/>
     </g>
    </g>
   </g>
  </g>
 </g>
 <defs>
  <clipPath id="p8476a403a8">
   <rect height="461.16" width="655.2" x="50.4" y="17.64"/>
  </clipPath>
 </defs>
</svg>
